<svg xmlns="http://www.w3.org/2000/svg" version="1.1" xmlns:xlink="http://www.w3.org/1999/xlink" viewBox="0 0 232.8 316.4" width="232.8" height="316.4" shape-rendering="crispEdges" style="image-rendering: pixelated;"><rect width="232.8" height="316.4" x="0" y="0" fill="#0d1117"></rect><line x1="116.4" y1="60" x2="30" y2="103.2" stroke-opacity="0.15" stroke-width="1" stroke="#ffffff"></line><line x1="145.20000000000002" y1="74.4" x2="58.800000000000004" y2="117.6" stroke-opacity="0.15" stroke-width="1" stroke="#ffffff"></line><line x1="174" y1="88.8" x2="87.60000000000001" y2="132" stroke-opacity="0.15" stroke-width="1" stroke="#ffffff"></line><line x1="202.8" y1="103.2" x2="116.4" y2="146.4" stroke-opacity="0.15" stroke-width="1" stroke="#ffffff"></line><line x1="116.4" y1="60" x2="202.8" y2="103.2" stroke-opacity="0.15" stroke-width="1" stroke="#ffffff"></line><line x1="87.60000000000001" y1="74.4" x2="174" y2="117.6" stroke-opacity="0.15" stroke-width="1" stroke="#ffffff"></line><line x1="58.800000000000004" y1="88.8" x2="145.20000000000002" y2="132" stroke-opacity="0.15" stroke-width="1" stroke="#ffffff"></line><line x1="30" y1="103.2" x2="116.4" y2="146.4" stroke-opacity="0.15" stroke-width="1" stroke="#ffffff"></line><polygon points="116.4,-74.816 134.83200000000002,-65.6 116.4,-56.384 97.968,-65.6" fill="#f1e05a" stroke-width="1.2" stroke="#010409"></polygon><polygon points="97.968,-65.6 116.4,-56.384 116.4,83.616 97.968,74.4" fill="#d3c23c" stroke-width="0.8" stroke="#010409"></polygon><polygon points="134.83200000000002,-65.6 116.4,-56.384 116.4,83.616 134.83200000000002,74.4" fill="#e5d44e" stroke-width="0.8" stroke="#010409"></polygon><rect width="46.8" height="13" rx="6" ry="6" fill="#161b22" stroke-width="0.8" stroke="#f1e05a" x="93" y="-97.816"></rect><text font-size="7" font-family="monospace" fill="#e6edf3" text-anchor="middle" x="112.150390625" y="-89.33406640625"><tspan dy="0" x="112.150390625">Genta-ta</tspan></text><polygon points="145.20000000000002,43.37347368421053 163.632,52.589473684210525 145.20000000000002,61.80547368421053 126.768,52.589473684210525" fill="#a97bff" stroke-width="1.2" stroke="#010409"></polygon><polygon points="126.768,52.589473684210525 145.20000000000002,61.80547368421053 145.20000000000002,90.13972978595079 126.768,80.92372978595078" fill="#8b5de1" stroke-width="0.8" stroke="#010409"></polygon><polygon points="126.768,80.92372978595078 145.20000000000002,90.13972978595079 145.20000000000002,98.016 126.768,88.8" fill="#925400" stroke-width="0.8" stroke="#010409"></polygon><polygon points="163.632,52.589473684210525 145.20000000000002,61.80547368421053 145.20000000000002,90.13972978595079 163.632,80.92372978595078" fill="#9d6ff3" stroke-width="0.8" stroke="#010409"></polygon><polygon points="163.632,80.92372978595078 145.20000000000002,90.13972978595079 145.20000000000002,98.016 163.632,88.8" fill="#a4660d" stroke-width="0.8" stroke="#010409"></polygon><rect width="33" height="13" rx="6" ry="6" fill="#161b22" stroke-width="0.8" stroke="#a97bff" x="128.70000000000002" y="20.37347368421053"></rect><text font-size="7" font-family="monospace" fill="#e6edf3" text-anchor="middle" x="142.91484375000002" y="28.85540727796053"><tspan dy="0" x="142.91484375000002">Glens</tspan></text><polygon points="87.60000000000001,40.32084210526316 106.03200000000001,49.536842105263155 87.60000000000001,58.75284210526316 69.168,49.536842105263155" fill="#555555" stroke-width="1.2" stroke="#010409"></polygon><polygon points="69.168,49.536842105263155 87.60000000000001,58.75284210526316 87.60000000000001,96.69045418798638 69.168,87.47445418798637" fill="#373737" stroke-width="0.8" stroke="#010409"></polygon><polygon points="69.168,87.47445418798637 87.60000000000001,96.69045418798638 87.60000000000001,98.016 69.168,88.8" fill="#245a00" stroke-width="0.8" stroke="#010409"></polygon><polygon points="106.03200000000001,49.536842105263155 87.60000000000001,58.75284210526316 87.60000000000001,96.69045418798638 106.03200000000001,87.47445418798637" fill="#494949" stroke-width="0.8" stroke="#010409"></polygon><polygon points="106.03200000000001,87.47445418798637 87.60000000000001,96.69045418798638 87.60000000000001,98.016 106.03200000000001,88.8" fill="#366c0d" stroke-width="0.8" stroke="#010409"></polygon><rect width="42.199999999999996" height="13" rx="6" ry="6" fill="#161b22" stroke-width="0.8" stroke="#555555" x="66.50000000000001" y="17.32084210526316"></rect><text font-size="7" font-family="monospace" fill="#e6edf3" text-anchor="middle" x="85.30346679687501" y="25.80277569901316"><tspan dy="0" x="85.30346679687501">Ram_tes</tspan></text><polygon points="174,54.720842105263166 192.43200000000002,63.93684210526316 174,73.15284210526315 155.568,63.93684210526316" fill="#89e051" stroke-width="1.2" stroke="#010409"></polygon><polygon points="155.568,63.93684210526316 174,73.15284210526315 174,112.19713310351331 155.568,102.98113310351332" fill="#6bc233" stroke-width="0.8" stroke="#010409"></polygon><polygon points="155.568,102.98113310351332 174,112.19713310351331 174,112.416 155.568,103.2" fill="#175487" stroke-width="0.8" stroke="#010409"></polygon><polygon points="192.43200000000002,63.93684210526316 174,73.15284210526315 174,112.19713310351331 192.43200000000002,102.98113310351332" fill="#7dd445" stroke-width="0.8" stroke="#010409"></polygon><polygon points="192.43200000000002,102.98113310351332 174,112.19713310351331 174,112.416 192.43200000000002,103.2" fill="#296699" stroke-width="0.8" stroke="#010409"></polygon><rect width="37.599999999999994" height="13" rx="6" ry="6" fill="#161b22" stroke-width="0.8" stroke="#89e051" x="155.2" y="31.720842105263166"></rect><text font-size="7" font-family="monospace" fill="#e6edf3" text-anchor="middle" x="170.658984375" y="40.202775699013166"><tspan dy="0" x="170.658984375">Server</tspan></text><polygon points="116.4,51.668210526315804 134.83200000000002,60.8842105263158 116.4,70.10021052631579 97.968,60.8842105263158" fill="#8b949e" stroke-width="1.2" stroke="#010409"></polygon><polygon points="97.968,60.8842105263158 116.4,70.10021052631579 116.4,112.416 97.968,103.2" fill="#6d7680" stroke-width="0.8" stroke="#010409"></polygon><polygon points="134.83200000000002,60.8842105263158 116.4,70.10021052631579 116.4,112.416 134.83200000000002,103.2" fill="#7f8892" stroke-width="0.8" stroke="#010409"></polygon><rect width="65.19999999999999" height="13" rx="6" ry="6" fill="#161b22" stroke-width="0.8" stroke="#8b949e" x="83.80000000000001" y="28.668210526315804"></rect><text font-size="7" font-family="monospace" fill="#e6edf3" text-anchor="middle" x="109.48041992187501" y="37.150144120065804"><tspan dy="0" x="109.48041992187501">Git-Compiler</tspan></text><polygon points="58.800000000000004,24.19452631578949 77.232,33.41052631578948 58.80000000000001,42.62652631578948 40.36800000000001,33.41052631578948" fill="#555555" stroke-width="1.2" stroke="#010409"></polygon><polygon points="40.36800000000001,33.41052631578948 58.80000000000001,42.62652631578948 58.80000000000001,108.9909293535853 40.36800000000001,99.7749293535853" fill="#373737" stroke-width="0.8" stroke="#010409"></polygon><polygon points="40.36800000000001,99.7749293535853 58.80000000000001,108.9909293535853 58.80000000000001,112.416 40.36800000000001,103.2" fill="#245a00" stroke-width="0.8" stroke="#010409"></polygon><polygon points="77.232,33.41052631578948 58.80000000000001,42.62652631578948 58.80000000000001,108.9909293535853 77.232,99.7749293535853" fill="#494949" stroke-width="0.8" stroke="#010409"></polygon><polygon points="77.232,99.7749293535853 58.80000000000001,108.9909293535853 58.80000000000001,112.416 77.232,103.2" fill="#366c0d" stroke-width="0.8" stroke="#010409"></polygon><rect width="65.19999999999999" height="13" rx="6" ry="6" fill="#161b22" stroke-width="0.8" stroke="#555555" x="26.20000000000001" y="1.1945263157894885"></rect><text font-size="7" font-family="monospace" fill="#e6edf3" text-anchor="middle" x="51.71293945312501" y="9.676459909539489"><tspan dy="0" x="51.71293945312501">Kernel-test…</tspan></text><polygon points="145.20000000000002,72.17347368421053 163.632,81.38947368421051 145.2,90.60547368421052 126.76800000000001,81.38947368421051" fill="#8b949e" stroke-width="1.2" stroke="#010409"></polygon><polygon points="126.76800000000001,81.38947368421051 145.2,90.60547368421052 145.2,126.816 126.76800000000001,117.6" fill="#6d7680" stroke-width="0.8" stroke="#010409"></polygon><polygon points="163.632,81.38947368421051 145.2,90.60547368421052 145.2,126.816 163.632,117.6" fill="#7f8892" stroke-width="0.8" stroke="#010409"></polygon><rect width="60.599999999999994" height="13" rx="6" ry="6" fill="#161b22" stroke-width="0.8" stroke="#8b949e" x="114.90000000000002" y="49.173473684210535"></rect><text font-size="7" font-family="monospace" fill="#e6edf3" text-anchor="middle" x="139.88657226562503" y="57.655407277960535"><tspan dy="0" x="139.88657226562503">Lwgjl-arm64</tspan></text><polygon points="87.6,26.384000000000015 106.032,35.599999999999994 87.60000000000001,44.816 69.168,35.599999999999994" fill="#89e051" stroke-width="1.2" stroke="#010409"></polygon><polygon points="69.168,35.599999999999994 87.60000000000001,44.816 87.60000000000001,109.91303174901373 69.168,100.69703174901372" fill="#6bc233" stroke-width="0.8" stroke="#010409"></polygon><polygon points="69.168,100.69703174901372 87.60000000000001,109.91303174901373 87.60000000000001,118.15077362389631 69.168,108.9347736238963" fill="#373737" stroke-width="0.8" stroke="#010409"></polygon><polygon points="69.168,108.9347736238963 87.60000000000001,118.15077362389631 87.60000000000001,125.28706894608304 69.168,116.07106894608303" fill="#c08766" stroke-width="0.8" stroke="#010409"></polygon><polygon points="69.168,116.07106894608303 87.60000000000001,125.28706894608304 87.60000000000001,126.816 69.168,117.6" fill="#245a00" stroke-width="0.8" stroke="#010409"></polygon><polygon points="106.032,35.599999999999994 87.60000000000001,44.816 87.60000000000001,109.91303174901373 106.032,100.69703174901372" fill="#7dd445" stroke-width="0.8" stroke="#010409"></polygon><polygon points="106.032,100.69703174901372 87.60000000000001,109.91303174901373 87.60000000000001,118.15077362389631 106.032,108.9347736238963" fill="#494949" stroke-width="0.8" stroke="#010409"></polygon><polygon points="106.032,108.9347736238963 87.60000000000001,118.15077362389631 87.60000000000001,125.28706894608304 106.032,116.07106894608303" fill="#d29978" stroke-width="0.8" stroke="#010409"></polygon><polygon points="106.032,116.07106894608303 87.60000000000001,125.28706894608304 87.60000000000001,126.816 106.032,117.6" fill="#366c0d" stroke-width="0.8" stroke="#010409"></polygon><rect width="33" height="13" rx="6" ry="6" fill="#161b22" stroke-width="0.8" stroke="#89e051" x="71.1" y="3.3840000000000146"></rect><text font-size="7" font-family="monospace" fill="#e6edf3" text-anchor="middle" x="85.077294921875" y="11.865933593750015"><tspan dy="0" x="85.077294921875">my-ai</tspan></text><rect width="170" height="111" rx="8" ry="8" fill="#161b22" stroke-width="1" stroke="#30363d" x="16" y="189.39999999999998"></rect><text font-size="11" font-family="monospace" fill="#39d353" text-anchor="start" x="24" y="206.15732421874998"><tspan dy="0" x="24">Top Commits</tspan></text><text font-size="9" font-family="monospace" fill="#c9d1d9" text-anchor="start" x="24" y="221.01962890624998"><tspan dy="0" x="24">1. Genta-ta</tspan></text><text font-size="9" font-family="monospace" fill="#58a6ff" text-anchor="end" x="188.2919921875" y="221.01962890624998"><tspan dy="0" x="188.2919921875">38</tspan></text><text font-size="9" font-family="monospace" fill="#c9d1d9" text-anchor="start" x="24" y="238.01962890624998"><tspan dy="0" x="24">2. my-ai</tspan></text><text font-size="9" font-family="monospace" fill="#58a6ff" text-anchor="end" x="188.2919921875" y="238.01962890624998"><tspan dy="0" x="188.2919921875">19</tspan></text><text font-size="9" font-family="monospace" fill="#c9d1d9" text-anchor="start" x="24" y="255.01962890624998"><tspan dy="0" x="24">3. Kernel-tester</tspan></text><text font-size="9" font-family="monospace" fill="#58a6ff" text-anchor="end" x="188.2919921875" y="255.01962890624998"><tspan dy="0" x="188.2919921875">15</tspan></text><text font-size="9" font-family="monospace" fill="#c9d1d9" text-anchor="start" x="24" y="272.01962890625"><tspan dy="0" x="24">4. Git-Compiler</tspan></text><text font-size="9" font-family="monospace" fill="#58a6ff" text-anchor="end" x="183.14599609375" y="272.01962890625"><tspan dy="0" x="183.14599609375">6</tspan></text><text font-size="9" font-family="monospace" fill="#c9d1d9" text-anchor="start" x="24" y="289.01962890625"><tspan dy="0" x="24">5. Server</tspan></text><text font-size="9" font-family="monospace" fill="#58a6ff" text-anchor="end" x="183.14599609375" y="289.01962890625"><tspan dy="0" x="183.14599609375">5</tspan></text><rect width="9" height="9" rx="2" ry="2" fill="#f1e05a" x="14" y="14"></rect><text font-size="9" font-family="monospace" fill="#c9d1d9" text-anchor="start" x="27" y="22.61962890625"><tspan dy="0" x="27">JavaScript</tspan></text><rect width="9" height="9" rx="2" ry="2" fill="#a97bff" x="14" y="30"></rect><text font-size="9" font-family="monospace" fill="#c9d1d9" text-anchor="start" x="27" y="38.61962890625"><tspan dy="0" x="27">Kotlin</tspan></text><rect width="9" height="9" rx="2" ry="2" fill="#b07219" x="14" y="46"></rect><text font-size="9" font-family="monospace" fill="#c9d1d9" text-anchor="start" x="27" y="54.61962890625"><tspan dy="0" x="27">Java</tspan></text><rect width="9" height="9" rx="2" ry="2" fill="#555555" x="14" y="62"></rect><text font-size="9" font-family="monospace" fill="#c9d1d9" text-anchor="start" x="27" y="70.61962890625"><tspan dy="0" x="27">C</tspan></text><rect width="9" height="9" rx="2" ry="2" fill="#427819" x="218.8" y="14"></rect><text font-size="9" font-family="monospace" fill="#c9d1d9" text-anchor="end" x="248.35615234375" y="22.61962890625"><tspan dy="0" x="248.35615234375">Makefile</tspan></text><rect width="9" height="9" rx="2" ry="2" fill="#89e051" x="218.8" y="30"></rect><text font-size="9" font-family="monospace" fill="#c9d1d9" text-anchor="end" x="232.8654296875" y="38.61962890625"><tspan dy="0" x="232.8654296875">Shell</tspan></text><rect width="9" height="9" rx="2" ry="2" fill="#3572a5" x="218.8" y="46"></rect><text font-size="9" font-family="monospace" fill="#c9d1d9" text-anchor="end" x="242.41474609375" y="54.61962890625"><tspan dy="0" x="242.41474609375">Python</tspan></text><rect width="9" height="9" rx="2" ry="2" fill="#dea584" x="218.8" y="62"></rect><text font-size="9" font-family="monospace" fill="#c9d1d9" text-anchor="end" x="231.35810546875" y="70.61962890625"><tspan dy="0" x="231.35810546875">Rust</tspan></text></svg>