<svg xmlns="http://www.w3.org/2000/svg" version="1.1" xmlns:xlink="http://www.w3.org/1999/xlink" viewBox="0 0 261.6 330.8" width="261.6" height="330.8" shape-rendering="crispEdges" style="image-rendering: pixelated;"><rect width="261.6" height="330.8" x="0" y="0" fill="#0d1117"></rect><line x1="130.8" y1="60" x2="44.400000000000006" y2="103.2" stroke-opacity="0.15" stroke-width="1" stroke="#ffffff"></line><line x1="159.60000000000002" y1="74.4" x2="73.20000000000002" y2="117.6" stroke-opacity="0.15" stroke-width="1" stroke="#ffffff"></line><line x1="188.4" y1="88.8" x2="102.00000000000001" y2="132" stroke-opacity="0.15" stroke-width="1" stroke="#ffffff"></line><line x1="217.20000000000002" y1="103.2" x2="130.8" y2="146.4" stroke-opacity="0.15" stroke-width="1" stroke="#ffffff"></line><line x1="246" y1="117.6" x2="159.60000000000002" y2="160.8" stroke-opacity="0.15" stroke-width="1" stroke="#ffffff"></line><line x1="130.8" y1="60" x2="246" y2="117.6" stroke-opacity="0.15" stroke-width="1" stroke="#ffffff"></line><line x1="102.00000000000001" y1="74.4" x2="217.20000000000002" y2="132" stroke-opacity="0.15" stroke-width="1" stroke="#ffffff"></line><line x1="73.20000000000002" y1="88.8" x2="188.4" y2="146.4" stroke-opacity="0.15" stroke-width="1" stroke="#ffffff"></line><line x1="44.400000000000006" y1="103.2" x2="159.60000000000002" y2="160.8" stroke-opacity="0.15" stroke-width="1" stroke="#ffffff"></line><polygon points="130.8,-74.816 149.23200000000003,-65.6 130.8,-56.384 112.36800000000001,-65.6" fill="#f1e05a" stroke-width="1.2" stroke="#010409"></polygon><polygon points="112.36800000000001,-65.6 130.8,-56.384 130.8,83.616 112.36800000000001,74.4" fill="#d3c23c" stroke-width="0.8" stroke="#010409"></polygon><polygon points="149.23200000000003,-65.6 130.8,-56.384 130.8,83.616 149.23200000000003,74.4" fill="#e5d44e" stroke-width="0.8" stroke="#010409"></polygon><rect width="46.8" height="13" rx="6" ry="6" fill="#161b22" stroke-width="0.8" stroke="#f1e05a" x="107.4" y="-97.816"></rect><text font-size="7" font-family="monospace" fill="#e6edf3" text-anchor="middle" x="126.550390625" y="-89.33406640625"><tspan dy="0" x="126.550390625">Genta-ta</tspan></text><polygon points="159.60000000000002,51.51382456140351 178.032,60.729824561403504 159.60000000000002,69.94582456140351 141.168,60.729824561403504" fill="#a97bff" stroke-width="1.2" stroke="#010409"></polygon><polygon points="141.168,60.729824561403504 159.60000000000002,69.94582456140351 159.60000000000002,92.34080984596568 141.168,83.12480984596567" fill="#8b5de1" stroke-width="0.8" stroke="#010409"></polygon><polygon points="141.168,83.12480984596567 159.60000000000002,92.34080984596568 159.60000000000002,95.69210748002905 141.168,86.47610748002904" fill="#6d7680" stroke-width="0.8" stroke="#010409"></polygon><polygon points="141.168,86.47610748002904 159.60000000000002,95.69210748002905 159.60000000000002,98.016 141.168,88.8" fill="#6bc233" stroke-width="0.8" stroke="#010409"></polygon><polygon points="178.032,60.729824561403504 159.60000000000002,69.94582456140351 159.60000000000002,92.34080984596568 178.032,83.12480984596567" fill="#9d6ff3" stroke-width="0.8" stroke="#010409"></polygon><polygon points="178.032,83.12480984596567 159.60000000000002,92.34080984596568 159.60000000000002,95.69210748002905 178.032,86.47610748002904" fill="#7f8892" stroke-width="0.8" stroke="#010409"></polygon><polygon points="178.032,86.47610748002904 159.60000000000002,95.69210748002905 159.60000000000002,98.016 178.032,88.8" fill="#7dd445" stroke-width="0.8" stroke="#010409"></polygon><rect width="56" height="13" rx="6" ry="6" fill="#161b22" stroke-width="0.8" stroke="#a97bff" x="131.60000000000002" y="28.51382456140351"></rect><text font-size="7" font-family="monospace" fill="#e6edf3" text-anchor="middle" x="155.40908203125002" y="36.99575815515351"><tspan dy="0" x="155.40908203125002">MCP-server</tspan></text><polygon points="102.00000000000001,45.40856140350878 120.43200000000002,54.62456140350877 102.00000000000001,63.84056140350878 83.56800000000001,54.62456140350877" fill="#89e051" stroke-width="1.2" stroke="#010409"></polygon><polygon points="83.56800000000001,54.62456140350877 102.00000000000001,63.84056140350878 102.00000000000001,97.82549387204824 83.56800000000001,88.60949387204823" fill="#6bc233" stroke-width="0.8" stroke="#010409"></polygon><polygon points="83.56800000000001,88.60949387204823 102.00000000000001,97.82549387204824 102.00000000000001,98.016 83.56800000000001,88.8" fill="#175487" stroke-width="0.8" stroke="#010409"></polygon><polygon points="120.43200000000002,54.62456140350877 102.00000000000001,63.84056140350878 102.00000000000001,97.82549387204824 120.43200000000002,88.60949387204823" fill="#7dd445" stroke-width="0.8" stroke="#010409"></polygon><polygon points="120.43200000000002,88.60949387204823 102.00000000000001,97.82549387204824 102.00000000000001,98.016 120.43200000000002,88.8" fill="#296699" stroke-width="0.8" stroke="#010409"></polygon><rect width="37.599999999999994" height="13" rx="6" ry="6" fill="#161b22" stroke-width="0.8" stroke="#89e051" x="83.20000000000002" y="22.408561403508777"></rect><text font-size="7" font-family="monospace" fill="#e6edf3" text-anchor="middle" x="98.65898437500002" y="30.890494997258777"><tspan dy="0" x="98.65898437500002">Server</tspan></text><polygon points="188.4,61.84364912280702 206.832,71.05964912280702 188.4,80.27564912280701 169.96800000000002,71.05964912280702" fill="#a97bff" stroke-width="1.2" stroke="#010409"></polygon><polygon points="169.96800000000002,71.05964912280702 188.4,80.27564912280701 188.4,111.83066666115795 169.96800000000002,102.61466666115797" fill="#8b5de1" stroke-width="0.8" stroke="#010409"></polygon><polygon points="169.96800000000002,102.61466666115797 188.4,111.83066666115795 188.4,112.1763160896983 169.96800000000002,102.96031608969831" fill="#6d7680" stroke-width="0.8" stroke="#010409"></polygon><polygon points="169.96800000000002,102.96031608969831 188.4,112.1763160896983 188.4,112.416 169.96800000000002,103.2" fill="#6bc233" stroke-width="0.8" stroke="#010409"></polygon><polygon points="206.832,71.05964912280702 188.4,80.27564912280701 188.4,111.83066666115795 206.832,102.61466666115797" fill="#9d6ff3" stroke-width="0.8" stroke="#010409"></polygon><polygon points="206.832,102.61466666115797 188.4,111.83066666115795 188.4,112.1763160896983 206.832,102.96031608969831" fill="#7f8892" stroke-width="0.8" stroke="#010409"></polygon><polygon points="206.832,102.96031608969831 188.4,112.1763160896983 188.4,112.416 206.832,103.2" fill="#7dd445" stroke-width="0.8" stroke="#010409"></polygon><rect width="56" height="13" rx="6" ry="6" fill="#161b22" stroke-width="0.8" stroke="#a97bff" x="160.4" y="38.84364912280702"></rect><text font-size="7" font-family="monospace" fill="#e6edf3" text-anchor="middle" x="180.671484375" y="47.32558271655702"><tspan dy="0" x="180.671484375">Ai-copilot</tspan></text><polygon points="130.8,59.80856140350878 149.23200000000003,69.02456140350878 130.8,78.24056140350876 112.36800000000001,69.02456140350878" fill="#555555" stroke-width="1.2" stroke="#010409"></polygon><polygon points="112.36800000000001,69.02456140350878 130.8,78.24056140350876 130.8,111.26221839061549 112.36800000000001,102.0462183906155" fill="#373737" stroke-width="0.8" stroke="#010409"></polygon><polygon points="112.36800000000001,102.0462183906155 130.8,111.26221839061549 130.8,112.416 112.36800000000001,103.2" fill="#245a00" stroke-width="0.8" stroke="#010409"></polygon><polygon points="149.23200000000003,69.02456140350878 130.8,78.24056140350876 130.8,111.26221839061549 149.23200000000003,102.0462183906155" fill="#494949" stroke-width="0.8" stroke="#010409"></polygon><polygon points="149.23200000000003,102.0462183906155 130.8,111.26221839061549 130.8,112.416 149.23200000000003,103.2" fill="#366c0d" stroke-width="0.8" stroke="#010409"></polygon><rect width="42.199999999999996" height="13" rx="6" ry="6" fill="#161b22" stroke-width="0.8" stroke="#555555" x="109.70000000000002" y="36.80856140350878"></rect><text font-size="7" font-family="monospace" fill="#e6edf3" text-anchor="middle" x="128.50346679687502" y="45.29049499725878"><tspan dy="0" x="128.50346679687502">Ram_tes</tspan></text><polygon points="73.20000000000002,39.457684210526324 91.632,48.67368421052632 73.20000000000002,57.88968421052631 54.768000000000015,48.67368421052632" fill="#555555" stroke-width="1.2" stroke="#010409"></polygon><polygon points="54.768000000000015,48.67368421052632 73.20000000000002,57.88968421052631 73.20000000000002,109.74000211939244 54.768000000000015,100.52400211939243" fill="#373737" stroke-width="0.8" stroke="#010409"></polygon><polygon points="54.768000000000015,100.52400211939243 73.20000000000002,109.74000211939244 73.20000000000002,112.416 54.768000000000015,103.2" fill="#245a00" stroke-width="0.8" stroke="#010409"></polygon><polygon points="91.632,48.67368421052632 73.20000000000002,57.88968421052631 73.20000000000002,109.74000211939244 91.632,100.52400211939243" fill="#494949" stroke-width="0.8" stroke="#010409"></polygon><polygon points="91.632,100.52400211939243 73.20000000000002,109.74000211939244 73.20000000000002,112.416 91.632,103.2" fill="#366c0d" stroke-width="0.8" stroke="#010409"></polygon><rect width="65.19999999999999" height="13" rx="6" ry="6" fill="#161b22" stroke-width="0.8" stroke="#555555" x="40.60000000000002" y="16.457684210526324"></rect><text font-size="7" font-family="monospace" fill="#e6edf3" text-anchor="middle" x="66.11293945312502" y="24.939617804276324"><tspan dy="0" x="66.11293945312502">Kernel-test…</tspan></text><polygon points="217.20000000000002,76.24364912280703 235.632,85.45964912280701 217.20000000000002,94.67564912280702 198.76800000000003,85.45964912280701" fill="#a97bff" stroke-width="1.2" stroke="#010409"></polygon><polygon points="198.76800000000003,85.45964912280701 217.20000000000002,94.67564912280702 217.20000000000002,119.82504698055322 198.76800000000003,110.60904698055322" fill="#8b5de1" stroke-width="0.8" stroke="#010409"></polygon><polygon points="198.76800000000003,110.60904698055322 217.20000000000002,119.82504698055322 217.20000000000002,126.816 198.76800000000003,117.6" fill="#925400" stroke-width="0.8" stroke="#010409"></polygon><polygon points="235.632,85.45964912280701 217.20000000000002,94.67564912280702 217.20000000000002,119.82504698055322 235.632,110.60904698055322" fill="#9d6ff3" stroke-width="0.8" stroke="#010409"></polygon><polygon points="235.632,110.60904698055322 217.20000000000002,119.82504698055322 217.20000000000002,126.816 235.632,117.6" fill="#a4660d" stroke-width="0.8" stroke="#010409"></polygon><rect width="33" height="13" rx="6" ry="6" fill="#161b22" stroke-width="0.8" stroke="#a97bff" x="200.70000000000002" y="53.24364912280703"></rect><text font-size="7" font-family="monospace" fill="#e6edf3" text-anchor="middle" x="214.91484375000002" y="61.72558271655703"><tspan dy="0" x="214.91484375000002">Glens</tspan></text><polygon points="159.60000000000002,72.17347368421053 178.032,81.38947368421051 159.6,90.60547368421052 141.168,81.38947368421051" fill="#8b949e" stroke-width="1.2" stroke="#010409"></polygon><polygon points="141.168,81.38947368421051 159.6,90.60547368421052 159.6,126.816 141.168,117.6" fill="#6d7680" stroke-width="0.8" stroke="#010409"></polygon><polygon points="178.032,81.38947368421051 159.6,90.60547368421052 159.6,126.816 178.032,117.6" fill="#7f8892" stroke-width="0.8" stroke="#010409"></polygon><rect width="65.19999999999999" height="13" rx="6" ry="6" fill="#161b22" stroke-width="0.8" stroke="#8b949e" x="127.00000000000003" y="49.173473684210535"></rect><text font-size="7" font-family="monospace" fill="#e6edf3" text-anchor="middle" x="152.68041992187503" y="57.655407277960535"><tspan dy="0" x="152.68041992187503">Git-Compiler</tspan></text><polygon points="102,45.71733333333335 120.432,54.93333333333333 102.00000000000001,64.14933333333335 83.56800000000001,54.93333333333333" fill="#89e051" stroke-width="1.2" stroke="#010409"></polygon><polygon points="83.56800000000001,54.93333333333333 102.00000000000001,64.14933333333335 102.00000000000001,113.89828442607552 83.56800000000001,104.68228442607551" fill="#6bc233" stroke-width="0.8" stroke="#010409"></polygon><polygon points="83.56800000000001,104.68228442607551 102.00000000000001,113.89828442607552 102.00000000000001,120.19379447679881 83.56800000000001,110.9777944767988" fill="#373737" stroke-width="0.8" stroke="#010409"></polygon><polygon points="83.56800000000001,110.9777944767988 102.00000000000001,120.19379447679881 102.00000000000001,125.64754862546184 83.56800000000001,116.43154862546183" fill="#c08766" stroke-width="0.8" stroke="#010409"></polygon><polygon points="83.56800000000001,116.43154862546183 102.00000000000001,125.64754862546184 102.00000000000001,126.816 83.56800000000001,117.6" fill="#245a00" stroke-width="0.8" stroke="#010409"></polygon><polygon points="120.432,54.93333333333333 102.00000000000001,64.14933333333335 102.00000000000001,113.89828442607552 120.432,104.68228442607551" fill="#7dd445" stroke-width="0.8" stroke="#010409"></polygon><polygon points="120.432,104.68228442607551 102.00000000000001,113.89828442607552 102.00000000000001,120.19379447679881 120.432,110.9777944767988" fill="#494949" stroke-width="0.8" stroke="#010409"></polygon><polygon points="120.432,110.9777944767988 102.00000000000001,120.19379447679881 102.00000000000001,125.64754862546184 120.432,116.43154862546183" fill="#d29978" stroke-width="0.8" stroke="#010409"></polygon><polygon points="120.432,116.43154862546183 102.00000000000001,125.64754862546184 102.00000000000001,126.816 120.432,117.6" fill="#366c0d" stroke-width="0.8" stroke="#010409"></polygon><rect width="33" height="13" rx="6" ry="6" fill="#161b22" stroke-width="0.8" stroke="#89e051" x="85.5" y="22.71733333333335"></rect><text font-size="7" font-family="monospace" fill="#e6edf3" text-anchor="middle" x="99.477294921875" y="31.19926692708335"><tspan dy="0" x="99.477294921875">my-ai</tspan></text><polygon points="188.4,90.64364912280702 206.832,99.85964912280701 188.4,109.07564912280702 169.96800000000002,99.85964912280701" fill="#8b949e" stroke-width="1.2" stroke="#010409"></polygon><polygon points="169.96800000000002,99.85964912280701 188.4,109.07564912280702 188.4,141.216 169.96800000000002,132" fill="#6d7680" stroke-width="0.8" stroke="#010409"></polygon><polygon points="206.832,99.85964912280701 188.4,109.07564912280702 188.4,141.216 206.832,132" fill="#7f8892" stroke-width="0.8" stroke="#010409"></polygon><rect width="60.599999999999994" height="13" rx="6" ry="6" fill="#161b22" stroke-width="0.8" stroke="#8b949e" x="158.10000000000002" y="67.64364912280702"></rect><text font-size="7" font-family="monospace" fill="#e6edf3" text-anchor="middle" x="183.08657226562502" y="76.12558271655702"><tspan dy="0" x="183.08657226562502">Lwgjl-arm64</tspan></text><rect width="170" height="111" rx="8" ry="8" fill="#161b22" stroke-width="1" stroke="#30363d" x="16" y="203.8"></rect><text font-size="11" font-family="monospace" fill="#39d353" text-anchor="start" x="24" y="220.55732421875"><tspan dy="0" x="24">Top Commits</tspan></text><text font-size="9" font-family="monospace" fill="#c9d1d9" text-anchor="start" x="24" y="235.41962890625"><tspan dy="0" x="24">1. Genta-ta</tspan></text><text font-size="9" font-family="monospace" fill="#58a6ff" text-anchor="end" x="188.2919921875" y="235.41962890625"><tspan dy="0" x="188.2919921875">57</tspan></text><text font-size="9" font-family="monospace" fill="#c9d1d9" text-anchor="start" x="24" y="252.41962890625"><tspan dy="0" x="24">2. my-ai</tspan></text><text font-size="9" font-family="monospace" fill="#58a6ff" text-anchor="end" x="188.2919921875" y="252.41962890625"><tspan dy="0" x="188.2919921875">19</tspan></text><text font-size="9" font-family="monospace" fill="#c9d1d9" text-anchor="start" x="24" y="269.41962890625"><tspan dy="0" x="24">3. Kernel-tester</tspan></text><text font-size="9" font-family="monospace" fill="#58a6ff" text-anchor="end" x="188.2919921875" y="269.41962890625"><tspan dy="0" x="188.2919921875">15</tspan></text><text font-size="9" font-family="monospace" fill="#c9d1d9" text-anchor="start" x="24" y="286.41962890625"><tspan dy="0" x="24">4. Git-Compiler</tspan></text><text font-size="9" font-family="monospace" fill="#58a6ff" text-anchor="end" x="183.14599609375" y="286.41962890625"><tspan dy="0" x="183.14599609375">6</tspan></text><text font-size="9" font-family="monospace" fill="#c9d1d9" text-anchor="start" x="24" y="303.41962890625"><tspan dy="0" x="24">5. Server</tspan></text><text font-size="9" font-family="monospace" fill="#58a6ff" text-anchor="end" x="183.14599609375" y="303.41962890625"><tspan dy="0" x="183.14599609375">5</tspan></text><rect width="9" height="9" rx="2" ry="2" fill="#f1e05a" x="14" y="14"></rect><text font-size="9" font-family="monospace" fill="#c9d1d9" text-anchor="start" x="27" y="22.61962890625"><tspan dy="0" x="27">JavaScript</tspan></text><rect width="9" height="9" rx="2" ry="2" fill="#a97bff" x="14" y="30"></rect><text font-size="9" font-family="monospace" fill="#c9d1d9" text-anchor="start" x="27" y="38.61962890625"><tspan dy="0" x="27">Kotlin</tspan></text><rect width="9" height="9" rx="2" ry="2" fill="#8b949e" x="14" y="46"></rect><text font-size="9" font-family="monospace" fill="#c9d1d9" text-anchor="start" x="27" y="54.61962890625"><tspan dy="0" x="27">Batchfile</tspan></text><rect width="9" height="9" rx="2" ry="2" fill="#89e051" x="14" y="62"></rect><text font-size="9" font-family="monospace" fill="#c9d1d9" text-anchor="start" x="27" y="70.61962890625"><tspan dy="0" x="27">Shell</tspan></text><rect width="9" height="9" rx="2" ry="2" fill="#3572a5" x="14" y="78"></rect><text font-size="9" font-family="monospace" fill="#c9d1d9" text-anchor="start" x="27" y="86.61962890625"><tspan dy="0" x="27">Python</tspan></text><rect width="9" height="9" rx="2" ry="2" fill="#555555" x="247.60000000000002" y="14"></rect><text font-size="9" font-family="monospace" fill="#c9d1d9" text-anchor="end" x="247.27773437500002" y="22.61962890625"><tspan dy="0" x="247.27773437500002">C</tspan></text><rect width="9" height="9" rx="2" ry="2" fill="#427819" x="247.60000000000002" y="30"></rect><text font-size="9" font-family="monospace" fill="#c9d1d9" text-anchor="end" x="277.15615234375" y="38.61962890625"><tspan dy="0" x="277.15615234375">Makefile</tspan></text><rect width="9" height="9" rx="2" ry="2" fill="#b07219" x="247.60000000000002" y="46"></rect><text font-size="9" font-family="monospace" fill="#c9d1d9" text-anchor="end" x="258.52333984375" y="54.61962890625"><tspan dy="0" x="258.52333984375">Java</tspan></text><rect width="9" height="9" rx="2" ry="2" fill="#dea584" x="247.60000000000002" y="62"></rect><text font-size="9" font-family="monospace" fill="#c9d1d9" text-anchor="end" x="260.15810546875" y="70.61962890625"><tspan dy="0" x="260.15810546875">Rust</tspan></text></svg>