<svg xmlns="http://www.w3.org/2000/svg" version="1.1" xmlns:xlink="http://www.w3.org/1999/xlink" viewBox="0 0 232.8 316.4" width="232.8" height="316.4" shape-rendering="crispEdges" style="image-rendering: pixelated;"><rect width="232.8" height="316.4" x="0" y="0" fill="#0d1117"></rect><line x1="116.4" y1="60" x2="30" y2="103.2" stroke-opacity="0.15" stroke-width="1" stroke="#ffffff"></line><line x1="145.20000000000002" y1="74.4" x2="58.800000000000004" y2="117.6" stroke-opacity="0.15" stroke-width="1" stroke="#ffffff"></line><line x1="174" y1="88.8" x2="87.60000000000001" y2="132" stroke-opacity="0.15" stroke-width="1" stroke="#ffffff"></line><line x1="202.8" y1="103.2" x2="116.4" y2="146.4" stroke-opacity="0.15" stroke-width="1" stroke="#ffffff"></line><line x1="116.4" y1="60" x2="202.8" y2="103.2" stroke-opacity="0.15" stroke-width="1" stroke="#ffffff"></line><line x1="87.60000000000001" y1="74.4" x2="174" y2="117.6" stroke-opacity="0.15" stroke-width="1" stroke="#ffffff"></line><line x1="58.800000000000004" y1="88.8" x2="145.20000000000002" y2="132" stroke-opacity="0.15" stroke-width="1" stroke="#ffffff"></line><line x1="30" y1="103.2" x2="116.4" y2="146.4" stroke-opacity="0.15" stroke-width="1" stroke="#ffffff"></line><polygon points="116.4,28.643459459459457 134.83200000000002,37.859459459459465 116.4,47.07545945945946 97.968,37.859459459459465" fill="#a97bff" stroke-width="1.2" stroke="#010409"></polygon><polygon points="97.968,37.859459459459465 116.4,47.07545945945946 116.4,75.66794731071275 97.968,66.45194731071275" fill="#8b5de1" stroke-width="0.8" stroke="#010409"></polygon><polygon points="97.968,66.45194731071275 116.4,75.66794731071275 116.4,83.616 97.968,74.4" fill="#925400" stroke-width="0.8" stroke="#010409"></polygon><polygon points="134.83200000000002,37.859459459459465 116.4,47.07545945945946 116.4,75.66794731071275 134.83200000000002,66.45194731071275" fill="#9d6ff3" stroke-width="0.8" stroke="#010409"></polygon><polygon points="134.83200000000002,66.45194731071275 116.4,75.66794731071275 116.4,83.616 134.83200000000002,74.4" fill="#a4660d" stroke-width="0.8" stroke="#010409"></polygon><rect width="33" height="13" rx="6" ry="6" fill="#161b22" stroke-width="0.8" stroke="#a97bff" x="99.9" y="5.643459459459457"></rect><text font-size="7" font-family="monospace" fill="#e6edf3" text-anchor="middle" x="114.11484375" y="14.125393053209457"><tspan dy="0" x="114.11484375">Glens</tspan></text><polygon points="145.20000000000002,-60.416 163.632,-51.2 145.20000000000002,-41.983999999999995 126.768,-51.2" fill="#f1e05a" stroke-width="1.2" stroke="#010409"></polygon><polygon points="126.768,-51.2 145.20000000000002,-41.983999999999995 145.20000000000002,98.016 126.768,88.8" fill="#d3c23c" stroke-width="0.8" stroke="#010409"></polygon><polygon points="163.632,-51.2 145.20000000000002,-41.983999999999995 145.20000000000002,98.016 163.632,88.8" fill="#e5d44e" stroke-width="0.8" stroke="#010409"></polygon><rect width="46.8" height="13" rx="6" ry="6" fill="#161b22" stroke-width="0.8" stroke="#f1e05a" x="121.80000000000001" y="-83.416"></rect><text font-size="7" font-family="monospace" fill="#e6edf3" text-anchor="middle" x="140.950390625" y="-74.93406640625"><tspan dy="0" x="140.950390625">Genta-ta</tspan></text><polygon points="87.60000000000001,39.908324324324326 106.03200000000001,49.12432432432432 87.60000000000001,58.34032432432433 69.168,49.12432432432432" fill="#555555" stroke-width="1.2" stroke="#010409"></polygon><polygon points="69.168,49.12432432432432 87.60000000000001,58.34032432432433 87.60000000000001,96.67652736074618 69.168,87.46052736074617" fill="#373737" stroke-width="0.8" stroke="#010409"></polygon><polygon points="69.168,87.46052736074617 87.60000000000001,96.67652736074618 87.60000000000001,98.016 69.168,88.8" fill="#245a00" stroke-width="0.8" stroke="#010409"></polygon><polygon points="106.03200000000001,49.12432432432432 87.60000000000001,58.34032432432433 87.60000000000001,96.67652736074618 106.03200000000001,87.46052736074617" fill="#494949" stroke-width="0.8" stroke="#010409"></polygon><polygon points="106.03200000000001,87.46052736074617 87.60000000000001,96.67652736074618 87.60000000000001,98.016 106.03200000000001,88.8" fill="#366c0d" stroke-width="0.8" stroke="#010409"></polygon><rect width="42.199999999999996" height="13" rx="6" ry="6" fill="#161b22" stroke-width="0.8" stroke="#555555" x="66.50000000000001" y="16.908324324324326"></rect><text font-size="7" font-family="monospace" fill="#e6edf3" text-anchor="middle" x="85.30346679687501" y="25.390257918074326"><tspan dy="0" x="85.30346679687501">Ram_tes</tspan></text><polygon points="174,54.30832432432433 192.43200000000002,63.524324324324326 174,72.74032432432432 155.568,63.524324324324326" fill="#89e051" stroke-width="1.2" stroke="#010409"></polygon><polygon points="155.568,63.524324324324326 174,72.74032432432432 174,112.1948335817402 155.568,102.97883358174022" fill="#6bc233" stroke-width="0.8" stroke="#010409"></polygon><polygon points="155.568,102.97883358174022 174,112.1948335817402 174,112.416 155.568,103.2" fill="#175487" stroke-width="0.8" stroke="#010409"></polygon><polygon points="192.43200000000002,63.524324324324326 174,72.74032432432432 174,112.1948335817402 192.43200000000002,102.97883358174022" fill="#7dd445" stroke-width="0.8" stroke="#010409"></polygon><polygon points="192.43200000000002,102.97883358174022 174,112.1948335817402 174,112.416 192.43200000000002,103.2" fill="#296699" stroke-width="0.8" stroke="#010409"></polygon><rect width="37.599999999999994" height="13" rx="6" ry="6" fill="#161b22" stroke-width="0.8" stroke="#89e051" x="155.2" y="31.30832432432433"></rect><text font-size="7" font-family="monospace" fill="#e6edf3" text-anchor="middle" x="170.658984375" y="39.79025791807433"><tspan dy="0" x="170.658984375">Server</tspan></text><polygon points="116.4,51.1731891891892 134.83200000000002,60.389189189189196 116.4,69.60518918918919 97.968,60.389189189189196" fill="#8b949e" stroke-width="1.2" stroke="#010409"></polygon><polygon points="97.968,60.389189189189196 116.4,69.60518918918919 116.4,112.416 97.968,103.2" fill="#6d7680" stroke-width="0.8" stroke="#010409"></polygon><polygon points="134.83200000000002,60.389189189189196 116.4,69.60518918918919 116.4,112.416 134.83200000000002,103.2" fill="#7f8892" stroke-width="0.8" stroke="#010409"></polygon><rect width="65.19999999999999" height="13" rx="6" ry="6" fill="#161b22" stroke-width="0.8" stroke="#8b949e" x="83.80000000000001" y="28.173189189189202"></rect><text font-size="7" font-family="monospace" fill="#e6edf3" text-anchor="middle" x="109.48041992187501" y="36.6551227829392"><tspan dy="0" x="109.48041992187501">Git-Compiler</tspan></text><polygon points="58.800000000000004,22.956972972972977 77.232,32.17297297297297 58.80000000000001,41.388972972972965 40.36800000000001,32.17297297297297" fill="#555555" stroke-width="1.2" stroke="#010409"></polygon><polygon points="40.36800000000001,32.17297297297297 58.80000000000001,41.388972972972965 58.80000000000001,108.93019372392526 40.36800000000001,99.71419372392526" fill="#373737" stroke-width="0.8" stroke="#010409"></polygon><polygon points="40.36800000000001,99.71419372392526 58.80000000000001,108.93019372392526 58.80000000000001,112.416 40.36800000000001,103.2" fill="#245a00" stroke-width="0.8" stroke="#010409"></polygon><polygon points="77.232,32.17297297297297 58.80000000000001,41.388972972972965 58.80000000000001,108.93019372392526 77.232,99.71419372392526" fill="#494949" stroke-width="0.8" stroke="#010409"></polygon><polygon points="77.232,99.71419372392526 58.80000000000001,108.93019372392526 58.80000000000001,112.416 77.232,103.2" fill="#366c0d" stroke-width="0.8" stroke="#010409"></polygon><rect width="65.19999999999999" height="13" rx="6" ry="6" fill="#161b22" stroke-width="0.8" stroke="#555555" x="26.20000000000001" y="-0.04302702702702277"></rect><text font-size="7" font-family="monospace" fill="#e6edf3" text-anchor="middle" x="51.71293945312501" y="8.438906566722977"><tspan dy="0" x="51.71293945312501">Kernel-test…</tspan></text><polygon points="145.20000000000002,71.84345945945947 163.632,81.05945945945945 145.2,90.27545945945946 126.76800000000001,81.05945945945945" fill="#8b949e" stroke-width="1.2" stroke="#010409"></polygon><polygon points="126.76800000000001,81.05945945945945 145.2,90.27545945945946 145.2,126.816 126.76800000000001,117.6" fill="#6d7680" stroke-width="0.8" stroke="#010409"></polygon><polygon points="163.632,81.05945945945945 145.2,90.27545945945946 145.2,126.816 163.632,117.6" fill="#7f8892" stroke-width="0.8" stroke="#010409"></polygon><rect width="60.599999999999994" height="13" rx="6" ry="6" fill="#161b22" stroke-width="0.8" stroke="#8b949e" x="114.90000000000002" y="48.84345945945947"></rect><text font-size="7" font-family="monospace" fill="#e6edf3" text-anchor="middle" x="139.88657226562503" y="57.32539305320947"><tspan dy="0" x="139.88657226562503">Lwgjl-arm64</tspan></text><polygon points="87.6,24.81643243243245 106.032,34.03243243243243 87.60000000000001,43.24843243243244 69.168,34.03243243243243" fill="#89e051" stroke-width="1.2" stroke="#010409"></polygon><polygon points="69.168,34.03243243243243 87.60000000000001,43.24843243243244 87.60000000000001,109.58990315357627 69.168,100.37390315357626" fill="#6bc233" stroke-width="0.8" stroke="#010409"></polygon><polygon points="69.168,100.37390315357626 87.60000000000001,109.58990315357627 87.60000000000001,117.98512328447178 69.168,108.76912328447177" fill="#373737" stroke-width="0.8" stroke="#010409"></polygon><polygon points="69.168,108.76912328447177 87.60000000000001,117.98512328447178 87.60000000000001,125.25784086397125 69.168,116.04184086397125" fill="#c08766" stroke-width="0.8" stroke="#010409"></polygon><polygon points="69.168,116.04184086397125 87.60000000000001,125.25784086397125 87.60000000000001,126.816 69.168,117.6" fill="#245a00" stroke-width="0.8" stroke="#010409"></polygon><polygon points="106.032,34.03243243243243 87.60000000000001,43.24843243243244 87.60000000000001,109.58990315357627 106.032,100.37390315357626" fill="#7dd445" stroke-width="0.8" stroke="#010409"></polygon><polygon points="106.032,100.37390315357626 87.60000000000001,109.58990315357627 87.60000000000001,117.98512328447178 106.032,108.76912328447177" fill="#494949" stroke-width="0.8" stroke="#010409"></polygon><polygon points="106.032,108.76912328447177 87.60000000000001,117.98512328447178 87.60000000000001,125.25784086397125 106.032,116.04184086397125" fill="#d29978" stroke-width="0.8" stroke="#010409"></polygon><polygon points="106.032,116.04184086397125 87.60000000000001,125.25784086397125 87.60000000000001,126.816 106.032,117.6" fill="#366c0d" stroke-width="0.8" stroke="#010409"></polygon><rect width="33" height="13" rx="6" ry="6" fill="#161b22" stroke-width="0.8" stroke="#89e051" x="71.1" y="1.8164324324324497"></rect><text font-size="7" font-family="monospace" fill="#e6edf3" text-anchor="middle" x="85.077294921875" y="10.29836602618245"><tspan dy="0" x="85.077294921875">my-ai</tspan></text><rect width="170" height="111" rx="8" ry="8" fill="#161b22" stroke-width="1" stroke="#30363d" x="16" y="189.39999999999998"></rect><text font-size="11" font-family="monospace" fill="#39d353" text-anchor="start" x="24" y="206.15732421874998"><tspan dy="0" x="24">Top Commits</tspan></text><text font-size="9" font-family="monospace" fill="#c9d1d9" text-anchor="start" x="24" y="221.01962890624998"><tspan dy="0" x="24">1. Genta-ta</tspan></text><text font-size="9" font-family="monospace" fill="#58a6ff" text-anchor="end" x="188.2919921875" y="221.01962890624998"><tspan dy="0" x="188.2919921875">37</tspan></text><text font-size="9" font-family="monospace" fill="#c9d1d9" text-anchor="start" x="24" y="238.01962890624998"><tspan dy="0" x="24">2. my-ai</tspan></text><text font-size="9" font-family="monospace" fill="#58a6ff" text-anchor="end" x="188.2919921875" y="238.01962890624998"><tspan dy="0" x="188.2919921875">19</tspan></text><text font-size="9" font-family="monospace" fill="#c9d1d9" text-anchor="start" x="24" y="255.01962890624998"><tspan dy="0" x="24">3. Kernel-tester</tspan></text><text font-size="9" font-family="monospace" fill="#58a6ff" text-anchor="end" x="188.2919921875" y="255.01962890624998"><tspan dy="0" x="188.2919921875">15</tspan></text><text font-size="9" font-family="monospace" fill="#c9d1d9" text-anchor="start" x="24" y="272.01962890625"><tspan dy="0" x="24">4. Git-Compiler</tspan></text><text font-size="9" font-family="monospace" fill="#58a6ff" text-anchor="end" x="183.14599609375" y="272.01962890625"><tspan dy="0" x="183.14599609375">6</tspan></text><text font-size="9" font-family="monospace" fill="#c9d1d9" text-anchor="start" x="24" y="289.01962890625"><tspan dy="0" x="24">5. Server</tspan></text><text font-size="9" font-family="monospace" fill="#58a6ff" text-anchor="end" x="183.14599609375" y="289.01962890625"><tspan dy="0" x="183.14599609375">5</tspan></text><rect width="9" height="9" rx="2" ry="2" fill="#a97bff" x="14" y="14"></rect><text font-size="9" font-family="monospace" fill="#c9d1d9" text-anchor="start" x="27" y="22.61962890625"><tspan dy="0" x="27">Kotlin</tspan></text><rect width="9" height="9" rx="2" ry="2" fill="#b07219" x="14" y="30"></rect><text font-size="9" font-family="monospace" fill="#c9d1d9" text-anchor="start" x="27" y="38.61962890625"><tspan dy="0" x="27">Java</tspan></text><rect width="9" height="9" rx="2" ry="2" fill="#f1e05a" x="14" y="46"></rect><text font-size="9" font-family="monospace" fill="#c9d1d9" text-anchor="start" x="27" y="54.61962890625"><tspan dy="0" x="27">JavaScript</tspan></text><rect width="9" height="9" rx="2" ry="2" fill="#555555" x="14" y="62"></rect><text font-size="9" font-family="monospace" fill="#c9d1d9" text-anchor="start" x="27" y="70.61962890625"><tspan dy="0" x="27">C</tspan></text><rect width="9" height="9" rx="2" ry="2" fill="#427819" x="218.8" y="14"></rect><text font-size="9" font-family="monospace" fill="#c9d1d9" text-anchor="end" x="248.35615234375" y="22.61962890625"><tspan dy="0" x="248.35615234375">Makefile</tspan></text><rect width="9" height="9" rx="2" ry="2" fill="#89e051" x="218.8" y="30"></rect><text font-size="9" font-family="monospace" fill="#c9d1d9" text-anchor="end" x="232.8654296875" y="38.61962890625"><tspan dy="0" x="232.8654296875">Shell</tspan></text><rect width="9" height="9" rx="2" ry="2" fill="#3572a5" x="218.8" y="46"></rect><text font-size="9" font-family="monospace" fill="#c9d1d9" text-anchor="end" x="242.41474609375" y="54.61962890625"><tspan dy="0" x="242.41474609375">Python</tspan></text><rect width="9" height="9" rx="2" ry="2" fill="#dea584" x="218.8" y="62"></rect><text font-size="9" font-family="monospace" fill="#c9d1d9" text-anchor="end" x="231.35810546875" y="70.61962890625"><tspan dy="0" x="231.35810546875">Rust</tspan></text></svg>