<svg xmlns="http://www.w3.org/2000/svg" version="1.1" xmlns:xlink="http://www.w3.org/1999/xlink" width="456" height="448" shape-rendering="crispEdges" style="image-rendering: pixelated;"><rect width="456" height="448" fill="#0d1117"></rect><polygon points="228,-20 246,-11 228,-2 210,-11" fill="#f1e05a" stroke-width="1.2" stroke="#010409"></polygon><polygon points="210,-11 228,-2 228,138 210,129" fill="#d3c23c" stroke-width="0.8" stroke="#010409"></polygon><polygon points="246,-11 228,-2 228,138 246,129" fill="#e5d44e" stroke-width="0.8" stroke="#010409"></polygon><rect width="63.6" height="18" rx="9" ry="9" fill="#161b22" stroke-width="1" stroke="#f1e05a" x="196.2" y="-52"></rect><text font-size="10" font-family="monospace" fill="#e6edf3" text-anchor="middle" x="223.41484375" y="-39.3115234375"><tspan dy="0" x="223.41484375">Genta-ta</tspan></text><polygon points="246,91.61538461538461 264,100.61538461538461 246,109.61538461538461 228,100.61538461538461" fill="#a97bff" stroke-width="1.2" stroke="#010409"></polygon><polygon points="228,100.61538461538461 246,109.61538461538461 246,138.85004213913578 228,129.85004213913578" fill="#8b5de1" stroke-width="0.8" stroke="#010409"></polygon><polygon points="228,129.85004213913578 246,138.85004213913578 246,147 228,138" fill="#925400" stroke-width="0.8" stroke="#010409"></polygon><polygon points="264,100.61538461538461 246,109.61538461538461 246,138.85004213913578 264,129.85004213913578" fill="#9d6ff3" stroke-width="0.8" stroke="#010409"></polygon><polygon points="264,129.85004213913578 246,138.85004213913578 246,147 264,138" fill="#a4660d" stroke-width="0.8" stroke="#010409"></polygon><rect width="45" height="18" rx="9" ry="9" fill="#161b22" stroke-width="1" stroke="#a97bff" x="223.5" y="59.61538461538461"></rect><text font-size="10" font-family="monospace" fill="#e6edf3" text-anchor="middle" x="243.6640625" y="72.30386117788461"><tspan dy="0" x="243.6640625">Glens</tspan></text><polygon points="210,82.6923076923077 228,91.6923076923077 210,100.6923076923077 192,91.6923076923077" fill="#555555" stroke-width="1.2" stroke="#010409"></polygon><polygon points="192,91.6923076923077 210,100.6923076923077 210,145.4366268304999 192,136.4366268304999" fill="#373737" stroke-width="0.8" stroke="#010409"></polygon><polygon points="192,136.4366268304999 210,145.4366268304999 210,147 192,138" fill="#245a00" stroke-width="0.8" stroke="#010409"></polygon><polygon points="228,91.6923076923077 210,100.6923076923077 210,145.4366268304999 228,136.4366268304999" fill="#494949" stroke-width="0.8" stroke="#010409"></polygon><polygon points="228,136.4366268304999 210,145.4366268304999 210,147 228,138" fill="#366c0d" stroke-width="0.8" stroke="#010409"></polygon><rect width="57.4" height="18" rx="9" ry="9" fill="#161b22" stroke-width="1" stroke="#555555" x="181.3" y="50.69230769230769"></rect><text font-size="10" font-family="monospace" fill="#e6edf3" text-anchor="middle" x="208.01923828125" y="63.38078425480769"><tspan dy="0" x="208.01923828125">Ram_tes</tspan></text><polygon points="264,91.6923076923077 282,100.6923076923077 264,109.6923076923077 246,100.6923076923077" fill="#89e051" stroke-width="1.2" stroke="#010409"></polygon><polygon points="246,100.6923076923077 264,109.6923076923077 264,155.74186434708037 246,146.74186434708037" fill="#6bc233" stroke-width="0.8" stroke="#010409"></polygon><polygon points="246,146.74186434708037 264,155.74186434708037 264,156 246,147" fill="#175487" stroke-width="0.8" stroke="#010409"></polygon><polygon points="282,100.6923076923077 264,109.6923076923077 264,155.74186434708037 282,146.74186434708037" fill="#7dd445" stroke-width="0.8" stroke="#010409"></polygon><polygon points="282,146.74186434708037 264,155.74186434708037 264,156 282,147" fill="#296699" stroke-width="0.8" stroke="#010409"></polygon><rect width="51.2" height="18" rx="9" ry="9" fill="#161b22" stroke-width="1" stroke="#89e051" x="238.4" y="59.69230769230769"></rect><text font-size="10" font-family="monospace" fill="#e6edf3" text-anchor="middle" x="260.34140625" y="72.3807842548077"><tspan dy="0" x="260.34140625">Server</tspan></text><polygon points="228,87.23076923076923 246,96.23076923076923 228,105.23076923076923 210,96.23076923076923" fill="#8b949e" stroke-width="1.2" stroke="#010409"></polygon><polygon points="210,96.23076923076923 228,105.23076923076923 228,156 210,147" fill="#6d7680" stroke-width="0.8" stroke="#010409"></polygon><polygon points="246,96.23076923076923 228,105.23076923076923 228,156 246,147" fill="#7f8892" stroke-width="0.8" stroke="#010409"></polygon><rect width="88.4" height="18" rx="9" ry="9" fill="#161b22" stroke-width="1" stroke="#8b949e" x="183.8" y="55.230769230769226"></rect><text font-size="10" font-family="monospace" fill="#e6edf3" text-anchor="middle" x="220.34345703125" y="67.91924579326923"><tspan dy="0" x="220.34345703125">Git-Compiler</tspan></text><polygon points="192,47.07692307692308 210,56.07692307692308 192,65.07692307692308 174,56.07692307692308" fill="#555555" stroke-width="1.2" stroke="#010409"></polygon><polygon points="174,56.07692307692308 192,65.07692307692308 192,151.53775167785233 174,142.53775167785233" fill="#373737" stroke-width="0.8" stroke="#010409"></polygon><polygon points="174,142.53775167785233 192,151.53775167785233 192,156 174,147" fill="#245a00" stroke-width="0.8" stroke="#010409"></polygon><polygon points="210,56.07692307692308 192,65.07692307692308 192,151.53775167785233 210,142.53775167785233" fill="#494949" stroke-width="0.8" stroke="#010409"></polygon><polygon points="210,142.53775167785233 192,151.53775167785233 192,156 210,147" fill="#366c0d" stroke-width="0.8" stroke="#010409"></polygon><rect width="94.60000000000001" height="18" rx="9" ry="9" fill="#161b22" stroke-width="1" stroke="#555555" x="144.7" y="15.07692307692308"></rect><text font-size="10" font-family="monospace" fill="#e6edf3" text-anchor="middle" x="181.9294921875" y="27.76539963942308"><tspan dy="0" x="181.9294921875">Kernel-tester</tspan></text><polygon points="246,105.15384615384616 264,114.15384615384616 246,123.15384615384616 228,114.15384615384616" fill="#8b949e" stroke-width="1.2" stroke="#010409"></polygon><polygon points="228,114.15384615384616 246,123.15384615384616 246,165 228,156" fill="#6d7680" stroke-width="0.8" stroke="#010409"></polygon><polygon points="264,114.15384615384616 246,123.15384615384616 246,165 264,156" fill="#7f8892" stroke-width="0.8" stroke="#010409"></polygon><rect width="82.2" height="18" rx="9" ry="9" fill="#161b22" stroke-width="1" stroke="#8b949e" x="204.9" y="73.15384615384616"></rect><text font-size="10" font-family="monospace" fill="#e6edf3" text-anchor="middle" x="240.45224609375" y="85.84232271634616"><tspan dy="0" x="240.45224609375">Lwgjl-arm64</tspan></text><polygon points="210,38.23076923076924 228,47.23076923076924 210,56.23076923076924 192,47.23076923076924" fill="#89e051" stroke-width="1.2" stroke="#010409"></polygon><polygon points="192,47.23076923076924 210,56.23076923076924 210,142.5789895807743 192,133.5789895807743" fill="#6bc233" stroke-width="0.8" stroke="#010409"></polygon><polygon points="192,133.5789895807743 210,142.5789895807743 210,153.50597551987747 192,144.50597551987747" fill="#373737" stroke-width="0.8" stroke="#010409"></polygon><polygon points="192,144.50597551987747 210,153.50597551987747 210,162.97194323617396 192,153.97194323617396" fill="#c08766" stroke-width="0.8" stroke="#010409"></polygon><polygon points="192,153.97194323617396 210,162.97194323617396 210,165 192,156" fill="#245a00" stroke-width="0.8" stroke="#010409"></polygon><polygon points="228,47.23076923076924 210,56.23076923076924 210,142.5789895807743 228,133.5789895807743" fill="#7dd445" stroke-width="0.8" stroke="#010409"></polygon><polygon points="228,133.5789895807743 210,142.5789895807743 210,153.50597551987747 228,144.50597551987747" fill="#494949" stroke-width="0.8" stroke="#010409"></polygon><polygon points="228,144.50597551987747 210,153.50597551987747 210,162.97194323617396 228,153.97194323617396" fill="#d29978" stroke-width="0.8" stroke="#010409"></polygon><polygon points="228,153.97194323617396 210,162.97194323617396 210,165 228,156" fill="#366c0d" stroke-width="0.8" stroke="#010409"></polygon><rect width="45" height="18" rx="9" ry="9" fill="#161b22" stroke-width="1" stroke="#89e051" x="187.5" y="6.230769230769241"></rect><text font-size="10" font-family="monospace" fill="#e6edf3" text-anchor="middle" x="207.32470703125" y="18.91924579326924"><tspan dy="0" x="207.32470703125">my-ai</tspan></text><rect width="214" height="128" rx="8" ry="8" fill="#161b22" stroke-width="1" stroke="#30363d" x="226" y="16"></rect><text font-size="12" font-family="monospace" fill="#39d353" text-anchor="start" x="236" y="34.826171875"><tspan dy="0" x="236">Top Commits</tspan></text><text font-size="10" font-family="monospace" fill="#c9d1d9" text-anchor="start" x="236" y="52.6884765625"><tspan dy="0" x="236">1. Genta-ta</tspan></text><text font-size="10" font-family="monospace" fill="#58a6ff" text-anchor="end" x="441.435546875" y="52.6884765625"><tspan dy="0" x="441.435546875">26</tspan></text><text font-size="10" font-family="monospace" fill="#c9d1d9" text-anchor="start" x="236" y="72.6884765625"><tspan dy="0" x="236">2. my-ai</tspan></text><text font-size="10" font-family="monospace" fill="#58a6ff" text-anchor="end" x="441.435546875" y="72.6884765625"><tspan dy="0" x="441.435546875">19</tspan></text><text font-size="10" font-family="monospace" fill="#c9d1d9" text-anchor="start" x="236" y="92.6884765625"><tspan dy="0" x="236">3. Kernel-tester</tspan></text><text font-size="10" font-family="monospace" fill="#58a6ff" text-anchor="end" x="441.435546875" y="92.6884765625"><tspan dy="0" x="441.435546875">15</tspan></text><text font-size="10" font-family="monospace" fill="#c9d1d9" text-anchor="start" x="236" y="112.6884765625"><tspan dy="0" x="236">4. Git-Compiler</tspan></text><text font-size="10" font-family="monospace" fill="#58a6ff" text-anchor="end" x="435.7177734375" y="112.6884765625"><tspan dy="0" x="435.7177734375">6</tspan></text><text font-size="10" font-family="monospace" fill="#c9d1d9" text-anchor="start" x="236" y="132.6884765625"><tspan dy="0" x="236">5. Server</tspan></text><text font-size="10" font-family="monospace" fill="#58a6ff" text-anchor="end" x="435.7177734375" y="132.6884765625"><tspan dy="0" x="435.7177734375">5</tspan></text></svg>