<svg xmlns="http://www.w3.org/2000/svg" version="1.1" xmlns:xlink="http://www.w3.org/1999/xlink" viewBox="0 0 232.8 316.4" width="232.8" height="316.4" shape-rendering="crispEdges" style="image-rendering: pixelated;"><rect width="232.8" height="316.4" x="0" y="0" fill="#0d1117"></rect><line x1="116.4" y1="60" x2="30" y2="103.2" stroke-opacity="0.15" stroke-width="1" stroke="#ffffff"></line><line x1="145.20000000000002" y1="74.4" x2="58.800000000000004" y2="117.6" stroke-opacity="0.15" stroke-width="1" stroke="#ffffff"></line><line x1="174" y1="88.8" x2="87.60000000000001" y2="132" stroke-opacity="0.15" stroke-width="1" stroke="#ffffff"></line><line x1="202.8" y1="103.2" x2="116.4" y2="146.4" stroke-opacity="0.15" stroke-width="1" stroke="#ffffff"></line><line x1="116.4" y1="60" x2="202.8" y2="103.2" stroke-opacity="0.15" stroke-width="1" stroke="#ffffff"></line><line x1="87.60000000000001" y1="74.4" x2="174" y2="117.6" stroke-opacity="0.15" stroke-width="1" stroke="#ffffff"></line><line x1="58.800000000000004" y1="88.8" x2="145.20000000000002" y2="132" stroke-opacity="0.15" stroke-width="1" stroke="#ffffff"></line><line x1="30" y1="103.2" x2="116.4" y2="146.4" stroke-opacity="0.15" stroke-width="1" stroke="#ffffff"></line><polygon points="116.4,-74.816 134.83200000000002,-65.6 116.4,-56.384 97.968,-65.6" fill="#f1e05a" stroke-width="1.2" stroke="#010409"></polygon><polygon points="97.968,-65.6 116.4,-56.384 116.4,83.616 97.968,74.4" fill="#d3c23c" stroke-width="0.8" stroke="#010409"></polygon><polygon points="134.83200000000002,-65.6 116.4,-56.384 116.4,83.616 134.83200000000002,74.4" fill="#e5d44e" stroke-width="0.8" stroke="#010409"></polygon><rect width="46.8" height="13" rx="6" ry="6" fill="#161b22" stroke-width="0.8" stroke="#f1e05a" x="93" y="-97.816"></rect><text font-size="7" font-family="monospace" fill="#e6edf3" text-anchor="middle" x="112.150390625" y="-89.33406640625"><tspan dy="0" x="112.150390625">Genta-ta</tspan></text><polygon points="145.20000000000002,46.11461224489796 163.632,55.33061224489796 145.20000000000002,64.54661224489797 126.768,55.33061224489796" fill="#a97bff" stroke-width="1.2" stroke="#010409"></polygon><polygon points="126.768,55.33061224489796 145.20000000000002,64.54661224489797 145.20000000000002,97.40646251988511 126.768,88.1904625198851" fill="#8b5de1" stroke-width="0.8" stroke="#010409"></polygon><polygon points="126.768,88.1904625198851 145.20000000000002,97.40646251988511 145.20000000000002,97.76640491115985 126.768,88.55040491115984" fill="#6d7680" stroke-width="0.8" stroke="#010409"></polygon><polygon points="126.768,88.55040491115984 145.20000000000002,97.76640491115985 145.20000000000002,98.016 126.768,88.8" fill="#6bc233" stroke-width="0.8" stroke="#010409"></polygon><polygon points="163.632,55.33061224489796 145.20000000000002,64.54661224489797 145.20000000000002,97.40646251988511 163.632,88.1904625198851" fill="#9d6ff3" stroke-width="0.8" stroke="#010409"></polygon><polygon points="163.632,88.1904625198851 145.20000000000002,97.40646251988511 145.20000000000002,97.76640491115985 163.632,88.55040491115984" fill="#7f8892" stroke-width="0.8" stroke="#010409"></polygon><polygon points="163.632,88.55040491115984 145.20000000000002,97.76640491115985 145.20000000000002,98.016 163.632,88.8" fill="#7dd445" stroke-width="0.8" stroke="#010409"></polygon><rect width="56" height="13" rx="6" ry="6" fill="#161b22" stroke-width="0.8" stroke="#a97bff" x="117.20000000000002" y="23.114612244897963"></rect><text font-size="7" font-family="monospace" fill="#e6edf3" text-anchor="middle" x="137.47148437500002" y="31.596545838647963"><tspan dy="0" x="137.47148437500002">Ai-copilot</tspan></text><polygon points="87.60000000000001,43.74726530612245 106.03200000000001,52.963265306122445 87.60000000000001,62.17926530612245 69.168,52.963265306122445" fill="#89e051" stroke-width="1.2" stroke="#010409"></polygon><polygon points="69.168,52.963265306122445 87.60000000000001,62.17926530612245 87.60000000000001,97.81623321293479 69.168,88.60023321293478" fill="#6bc233" stroke-width="0.8" stroke="#010409"></polygon><polygon points="69.168,88.60023321293478 87.60000000000001,97.81623321293479 87.60000000000001,98.016 69.168,88.8" fill="#175487" stroke-width="0.8" stroke="#010409"></polygon><polygon points="106.03200000000001,52.963265306122445 87.60000000000001,62.17926530612245 87.60000000000001,97.81623321293479 106.03200000000001,88.60023321293478" fill="#7dd445" stroke-width="0.8" stroke="#010409"></polygon><polygon points="106.03200000000001,88.60023321293478 87.60000000000001,97.81623321293479 87.60000000000001,98.016 106.03200000000001,88.8" fill="#296699" stroke-width="0.8" stroke="#010409"></polygon><rect width="37.599999999999994" height="13" rx="6" ry="6" fill="#161b22" stroke-width="0.8" stroke="#89e051" x="68.80000000000001" y="20.74726530612245"></rect><text font-size="7" font-family="monospace" fill="#e6edf3" text-anchor="middle" x="84.25898437500001" y="29.22919889987245"><tspan dy="0" x="84.25898437500001">Server</tspan></text><polygon points="174,60.51461224489797 192.43200000000002,69.73061224489797 174,78.94661224489795 155.568,69.73061224489797" fill="#a97bff" stroke-width="1.2" stroke="#010409"></polygon><polygon points="155.568,69.73061224489797 174,78.94661224489795 174,105.13596381496875 155.568,95.91996381496875" fill="#8b5de1" stroke-width="0.8" stroke="#010409"></polygon><polygon points="155.568,95.91996381496875 174,105.13596381496875 174,112.416 155.568,103.2" fill="#925400" stroke-width="0.8" stroke="#010409"></polygon><polygon points="192.43200000000002,69.73061224489797 174,78.94661224489795 174,105.13596381496875 192.43200000000002,95.91996381496875" fill="#9d6ff3" stroke-width="0.8" stroke="#010409"></polygon><polygon points="192.43200000000002,95.91996381496875 174,105.13596381496875 174,112.416 192.43200000000002,103.2" fill="#a4660d" stroke-width="0.8" stroke="#010409"></polygon><rect width="33" height="13" rx="6" ry="6" fill="#161b22" stroke-width="0.8" stroke="#a97bff" x="157.5" y="37.51461224489797"></rect><text font-size="7" font-family="monospace" fill="#e6edf3" text-anchor="middle" x="171.71484375" y="45.99654583864797"><tspan dy="0" x="171.71484375">Glens</tspan></text><polygon points="116.4,58.147265306122456 134.83200000000002,67.36326530612246 116.4,76.57926530612244 97.968,67.36326530612246" fill="#555555" stroke-width="1.2" stroke="#010409"></polygon><polygon points="97.968,67.36326530612246 116.4,76.57926530612244 116.4,111.20613212036925 97.968,101.99013212036925" fill="#373737" stroke-width="0.8" stroke="#010409"></polygon><polygon points="97.968,101.99013212036925 116.4,111.20613212036925 116.4,112.416 97.968,103.2" fill="#245a00" stroke-width="0.8" stroke="#010409"></polygon><polygon points="134.83200000000002,67.36326530612246 116.4,76.57926530612244 116.4,111.20613212036925 134.83200000000002,101.99013212036925" fill="#494949" stroke-width="0.8" stroke="#010409"></polygon><polygon points="134.83200000000002,101.99013212036925 116.4,111.20613212036925 116.4,112.416 134.83200000000002,103.2" fill="#366c0d" stroke-width="0.8" stroke="#010409"></polygon><rect width="42.199999999999996" height="13" rx="6" ry="6" fill="#161b22" stroke-width="0.8" stroke="#555555" x="95.30000000000001" y="35.147265306122456"></rect><text font-size="7" font-family="monospace" fill="#e6edf3" text-anchor="middle" x="114.10346679687501" y="43.629198899872456"><tspan dy="0" x="114.10346679687501">Ram_tes</tspan></text><polygon points="58.800000000000004,60.51461224489797 77.232,69.73061224489797 58.80000000000001,78.94661224489795 40.36800000000001,69.73061224489797" fill="#8b949e" stroke-width="1.2" stroke="#010409"></polygon><polygon points="40.36800000000001,69.73061224489797 58.80000000000001,78.94661224489795 58.80000000000001,112.416 40.36800000000001,103.2" fill="#6d7680" stroke-width="0.8" stroke="#010409"></polygon><polygon points="77.232,69.73061224489797 58.80000000000001,78.94661224489795 58.80000000000001,112.416 77.232,103.2" fill="#7f8892" stroke-width="0.8" stroke="#010409"></polygon><rect width="60.599999999999994" height="13" rx="6" ry="6" fill="#161b22" stroke-width="0.8" stroke="#8b949e" x="28.500000000000007" y="37.51461224489797"></rect><text font-size="7" font-family="monospace" fill="#e6edf3" text-anchor="middle" x="53.48657226562501" y="45.99654583864797"><tspan dy="0" x="53.48657226562501">Lwgjl-arm64</tspan></text><polygon points="145.20000000000002,70.17991836734696 163.632,79.39591836734694 145.2,88.61191836734695 126.76800000000001,79.39591836734694" fill="#8b949e" stroke-width="1.2" stroke="#010409"></polygon><polygon points="126.76800000000001,79.39591836734694 145.2,88.61191836734695 145.2,126.816 126.76800000000001,117.6" fill="#6d7680" stroke-width="0.8" stroke="#010409"></polygon><polygon points="163.632,79.39591836734694 145.2,88.61191836734695 145.2,126.816 163.632,117.6" fill="#7f8892" stroke-width="0.8" stroke="#010409"></polygon><rect width="65.19999999999999" height="13" rx="6" ry="6" fill="#161b22" stroke-width="0.8" stroke="#8b949e" x="112.60000000000002" y="47.17991836734696"></rect><text font-size="7" font-family="monospace" fill="#e6edf3" text-anchor="middle" x="138.28041992187502" y="55.66185196109696"><tspan dy="0" x="138.28041992187502">Git-Compiler</tspan></text><polygon points="87.6,48.873795918367364 106.032,58.089795918367344 87.60000000000001,67.30579591836735 69.168,58.089795918367344" fill="#555555" stroke-width="1.2" stroke="#010409"></polygon><polygon points="69.168,58.089795918367344 87.60000000000001,67.30579591836735 87.60000000000001,123.89540693055746 69.168,114.67940693055745" fill="#373737" stroke-width="0.8" stroke="#010409"></polygon><polygon points="69.168,114.67940693055745 87.60000000000001,123.89540693055746 87.60000000000001,126.816 69.168,117.6" fill="#245a00" stroke-width="0.8" stroke="#010409"></polygon><polygon points="106.032,58.089795918367344 87.60000000000001,67.30579591836735 87.60000000000001,123.89540693055746 106.032,114.67940693055745" fill="#494949" stroke-width="0.8" stroke="#010409"></polygon><polygon points="106.032,114.67940693055745 87.60000000000001,123.89540693055746 87.60000000000001,126.816 106.032,117.6" fill="#366c0d" stroke-width="0.8" stroke="#010409"></polygon><rect width="65.19999999999999" height="13" rx="6" ry="6" fill="#161b22" stroke-width="0.8" stroke="#555555" x="55" y="25.873795918367364"></rect><text font-size="7" font-family="monospace" fill="#e6edf3" text-anchor="middle" x="80.512939453125" y="34.355729512117364"><tspan dy="0" x="80.512939453125">Kernel-test…</tspan></text><polygon points="116.4,53.80440816326531 134.832,63.0204081632653 116.4,72.23640816326531 97.96800000000002,63.0204081632653" fill="#89e051" stroke-width="1.2" stroke="#010409"></polygon><polygon points="97.96800000000002,63.0204081632653 116.4,72.23640816326531 116.4,126.99697742948392 97.96800000000002,117.78097742948391" fill="#6bc233" stroke-width="0.8" stroke="#010409"></polygon><polygon points="97.96800000000002,117.78097742948391 116.4,126.99697742948392 116.4,133.92668562687146 97.96800000000002,124.71068562687145" fill="#373737" stroke-width="0.8" stroke="#010409"></polygon><polygon points="97.96800000000002,124.71068562687145 116.4,133.92668562687146 116.4,139.92984097505246 97.96800000000002,130.71384097505245" fill="#c08766" stroke-width="0.8" stroke="#010409"></polygon><polygon points="97.96800000000002,130.71384097505245 116.4,139.92984097505246 116.4,141.216 97.96800000000002,132" fill="#245a00" stroke-width="0.8" stroke="#010409"></polygon><polygon points="134.832,63.0204081632653 116.4,72.23640816326531 116.4,126.99697742948392 134.832,117.78097742948391" fill="#7dd445" stroke-width="0.8" stroke="#010409"></polygon><polygon points="134.832,117.78097742948391 116.4,126.99697742948392 116.4,133.92668562687146 134.832,124.71068562687145" fill="#494949" stroke-width="0.8" stroke="#010409"></polygon><polygon points="134.832,124.71068562687145 116.4,133.92668562687146 116.4,139.92984097505246 134.832,130.71384097505245" fill="#d29978" stroke-width="0.8" stroke="#010409"></polygon><polygon points="134.832,130.71384097505245 116.4,139.92984097505246 116.4,141.216 134.832,132" fill="#366c0d" stroke-width="0.8" stroke="#010409"></polygon><rect width="33" height="13" rx="6" ry="6" fill="#161b22" stroke-width="0.8" stroke="#89e051" x="99.9" y="30.804408163265308"></rect><text font-size="7" font-family="monospace" fill="#e6edf3" text-anchor="middle" x="113.877294921875" y="39.28634175701531"><tspan dy="0" x="113.877294921875">my-ai</tspan></text><rect width="170" height="111" rx="8" ry="8" fill="#161b22" stroke-width="1" stroke="#30363d" x="16" y="189.39999999999998"></rect><text font-size="11" font-family="monospace" fill="#39d353" text-anchor="start" x="24" y="206.15732421874998"><tspan dy="0" x="24">Top Commits</tspan></text><text font-size="9" font-family="monospace" fill="#c9d1d9" text-anchor="start" x="24" y="221.01962890624998"><tspan dy="0" x="24">1. Genta-ta</tspan></text><text font-size="9" font-family="monospace" fill="#58a6ff" text-anchor="end" x="188.2919921875" y="221.01962890624998"><tspan dy="0" x="188.2919921875">49</tspan></text><text font-size="9" font-family="monospace" fill="#c9d1d9" text-anchor="start" x="24" y="238.01962890624998"><tspan dy="0" x="24">2. my-ai</tspan></text><text font-size="9" font-family="monospace" fill="#58a6ff" text-anchor="end" x="188.2919921875" y="238.01962890624998"><tspan dy="0" x="188.2919921875">19</tspan></text><text font-size="9" font-family="monospace" fill="#c9d1d9" text-anchor="start" x="24" y="255.01962890624998"><tspan dy="0" x="24">3. Kernel-tester</tspan></text><text font-size="9" font-family="monospace" fill="#58a6ff" text-anchor="end" x="188.2919921875" y="255.01962890624998"><tspan dy="0" x="188.2919921875">15</tspan></text><text font-size="9" font-family="monospace" fill="#c9d1d9" text-anchor="start" x="24" y="272.01962890625"><tspan dy="0" x="24">4. Git-Compiler</tspan></text><text font-size="9" font-family="monospace" fill="#58a6ff" text-anchor="end" x="183.14599609375" y="272.01962890625"><tspan dy="0" x="183.14599609375">6</tspan></text><text font-size="9" font-family="monospace" fill="#c9d1d9" text-anchor="start" x="24" y="289.01962890625"><tspan dy="0" x="24">5. Server</tspan></text><text font-size="9" font-family="monospace" fill="#58a6ff" text-anchor="end" x="183.14599609375" y="289.01962890625"><tspan dy="0" x="183.14599609375">5</tspan></text><rect width="9" height="9" rx="2" ry="2" fill="#f1e05a" x="14" y="14"></rect><text font-size="9" font-family="monospace" fill="#c9d1d9" text-anchor="start" x="27" y="22.61962890625"><tspan dy="0" x="27">JavaScript</tspan></text><rect width="9" height="9" rx="2" ry="2" fill="#a97bff" x="14" y="30"></rect><text font-size="9" font-family="monospace" fill="#c9d1d9" text-anchor="start" x="27" y="38.61962890625"><tspan dy="0" x="27">Kotlin</tspan></text><rect width="9" height="9" rx="2" ry="2" fill="#8b949e" x="14" y="46"></rect><text font-size="9" font-family="monospace" fill="#c9d1d9" text-anchor="start" x="27" y="54.61962890625"><tspan dy="0" x="27">Batchfile</tspan></text><rect width="9" height="9" rx="2" ry="2" fill="#89e051" x="14" y="62"></rect><text font-size="9" font-family="monospace" fill="#c9d1d9" text-anchor="start" x="27" y="70.61962890625"><tspan dy="0" x="27">Shell</tspan></text><rect width="9" height="9" rx="2" ry="2" fill="#3572a5" x="14" y="78"></rect><text font-size="9" font-family="monospace" fill="#c9d1d9" text-anchor="start" x="27" y="86.61962890625"><tspan dy="0" x="27">Python</tspan></text><rect width="9" height="9" rx="2" ry="2" fill="#b07219" x="218.8" y="14"></rect><text font-size="9" font-family="monospace" fill="#c9d1d9" text-anchor="end" x="229.72333984375" y="22.61962890625"><tspan dy="0" x="229.72333984375">Java</tspan></text><rect width="9" height="9" rx="2" ry="2" fill="#555555" x="218.8" y="30"></rect><text font-size="9" font-family="monospace" fill="#c9d1d9" text-anchor="end" x="218.477734375" y="38.61962890625"><tspan dy="0" x="218.477734375">C</tspan></text><rect width="9" height="9" rx="2" ry="2" fill="#427819" x="218.8" y="46"></rect><text font-size="9" font-family="monospace" fill="#c9d1d9" text-anchor="end" x="248.35615234375" y="54.61962890625"><tspan dy="0" x="248.35615234375">Makefile</tspan></text><rect width="9" height="9" rx="2" ry="2" fill="#dea584" x="218.8" y="62"></rect><text font-size="9" font-family="monospace" fill="#c9d1d9" text-anchor="end" x="231.35810546875" y="70.61962890625"><tspan dy="0" x="231.35810546875">Rust</tspan></text></svg>