<svg xmlns="http://www.w3.org/2000/svg" version="1.1" xmlns:xlink="http://www.w3.org/1999/xlink" viewBox="0 0 261.6 330.8" width="261.6" height="330.8" shape-rendering="crispEdges" style="image-rendering: pixelated;"><rect width="261.6" height="330.8" x="0" y="0" fill="#0d1117"></rect><line x1="130.8" y1="60" x2="44.400000000000006" y2="103.2" stroke-opacity="0.15" stroke-width="1" stroke="#ffffff"></line><line x1="159.60000000000002" y1="74.4" x2="73.20000000000002" y2="117.6" stroke-opacity="0.15" stroke-width="1" stroke="#ffffff"></line><line x1="188.4" y1="88.8" x2="102.00000000000001" y2="132" stroke-opacity="0.15" stroke-width="1" stroke="#ffffff"></line><line x1="217.20000000000002" y1="103.2" x2="130.8" y2="146.4" stroke-opacity="0.15" stroke-width="1" stroke="#ffffff"></line><line x1="246" y1="117.6" x2="159.60000000000002" y2="160.8" stroke-opacity="0.15" stroke-width="1" stroke="#ffffff"></line><line x1="130.8" y1="60" x2="246" y2="117.6" stroke-opacity="0.15" stroke-width="1" stroke="#ffffff"></line><line x1="102.00000000000001" y1="74.4" x2="217.20000000000002" y2="132" stroke-opacity="0.15" stroke-width="1" stroke="#ffffff"></line><line x1="73.20000000000002" y1="88.8" x2="188.4" y2="146.4" stroke-opacity="0.15" stroke-width="1" stroke="#ffffff"></line><line x1="44.400000000000006" y1="103.2" x2="159.60000000000002" y2="160.8" stroke-opacity="0.15" stroke-width="1" stroke="#ffffff"></line><polygon points="130.8,36.72246153846154 149.23200000000003,45.938461538461546 130.8,55.15446153846154 112.36800000000001,45.938461538461546" fill="#a97bff" stroke-width="1.2" stroke="#010409"></polygon><polygon points="112.36800000000001,45.938461538461546 130.8,55.15446153846154 130.8,77.86168459862577 112.36800000000001,68.64568459862578" fill="#8b5de1" stroke-width="0.8" stroke="#010409"></polygon><polygon points="112.36800000000001,68.64568459862578 130.8,77.86168459862577 130.8,81.25970705547176 112.36800000000001,72.04370705547177" fill="#6d7680" stroke-width="0.8" stroke="#010409"></polygon><polygon points="112.36800000000001,72.04370705547177 130.8,81.25970705547176 130.8,83.616 112.36800000000001,74.4" fill="#6bc233" stroke-width="0.8" stroke="#010409"></polygon><polygon points="149.23200000000003,45.938461538461546 130.8,55.15446153846154 130.8,77.86168459862577 149.23200000000003,68.64568459862578" fill="#9d6ff3" stroke-width="0.8" stroke="#010409"></polygon><polygon points="149.23200000000003,68.64568459862578 130.8,77.86168459862577 130.8,81.25970705547176 149.23200000000003,72.04370705547177" fill="#7f8892" stroke-width="0.8" stroke="#010409"></polygon><polygon points="149.23200000000003,72.04370705547177 130.8,81.25970705547176 130.8,83.616 149.23200000000003,74.4" fill="#7dd445" stroke-width="0.8" stroke="#010409"></polygon><rect width="56" height="13" rx="6" ry="6" fill="#161b22" stroke-width="0.8" stroke="#a97bff" x="102.80000000000001" y="13.722461538461538"></rect><text font-size="7" font-family="monospace" fill="#e6edf3" text-anchor="middle" x="126.60908203125001" y="22.204395132211538"><tspan dy="0" x="126.60908203125001">MCP-server</tspan></text><polygon points="159.60000000000002,-60.416 178.032,-51.2 159.60000000000002,-41.983999999999995 141.168,-51.2" fill="#f1e05a" stroke-width="1.2" stroke="#010409"></polygon><polygon points="141.168,-51.2 159.60000000000002,-41.983999999999995 159.60000000000002,98.016 141.168,88.8" fill="#d3c23c" stroke-width="0.8" stroke="#010409"></polygon><polygon points="178.032,-51.2 159.60000000000002,-41.983999999999995 159.60000000000002,98.016 178.032,88.8" fill="#e5d44e" stroke-width="0.8" stroke="#010409"></polygon><rect width="46.8" height="13" rx="6" ry="6" fill="#161b22" stroke-width="0.8" stroke="#f1e05a" x="136.20000000000002" y="-83.416"></rect><text font-size="7" font-family="monospace" fill="#e6edf3" text-anchor="middle" x="155.35039062500002" y="-74.93406640625"><tspan dy="0" x="155.35039062500002">Genta-ta</tspan></text><polygon points="102.00000000000001,44.43015384615385 120.43200000000002,53.646153846153844 102.00000000000001,62.86215384615385 83.56800000000001,53.646153846153844" fill="#89e051" stroke-width="1.2" stroke="#010409"></polygon><polygon points="83.56800000000001,53.646153846153844 102.00000000000001,62.86215384615385 102.00000000000001,97.82003987809921 83.56800000000001,88.6040398780992" fill="#6bc233" stroke-width="0.8" stroke="#010409"></polygon><polygon points="83.56800000000001,88.6040398780992 102.00000000000001,97.82003987809921 102.00000000000001,98.016 83.56800000000001,88.8" fill="#175487" stroke-width="0.8" stroke="#010409"></polygon><polygon points="120.43200000000002,53.646153846153844 102.00000000000001,62.86215384615385 102.00000000000001,97.82003987809921 120.43200000000002,88.6040398780992" fill="#7dd445" stroke-width="0.8" stroke="#010409"></polygon><polygon points="120.43200000000002,88.6040398780992 102.00000000000001,97.82003987809921 102.00000000000001,98.016 120.43200000000002,88.8" fill="#296699" stroke-width="0.8" stroke="#010409"></polygon><rect width="37.599999999999994" height="13" rx="6" ry="6" fill="#161b22" stroke-width="0.8" stroke="#89e051" x="83.20000000000002" y="21.43015384615385"></rect><text font-size="7" font-family="monospace" fill="#e6edf3" text-anchor="middle" x="98.65898437500002" y="29.91208743990385"><tspan dy="0" x="98.65898437500002">Server</tspan></text><polygon points="188.4,61.06092307692309 206.832,70.27692307692308 188.4,79.49292307692308 169.96800000000002,70.27692307692308" fill="#a97bff" stroke-width="1.2" stroke="#010409"></polygon><polygon points="169.96800000000002,70.27692307692308 188.4,79.49292307692308 188.4,111.81641181834101 169.96800000000002,102.60041181834102" fill="#8b5de1" stroke-width="0.8" stroke="#010409"></polygon><polygon points="169.96800000000002,102.60041181834102 188.4,111.81641181834101 188.4,112.17047897733792 169.96800000000002,102.95447897733791" fill="#6d7680" stroke-width="0.8" stroke="#010409"></polygon><polygon points="169.96800000000002,102.95447897733791 188.4,112.17047897733792 188.4,112.416 169.96800000000002,103.2" fill="#6bc233" stroke-width="0.8" stroke="#010409"></polygon><polygon points="206.832,70.27692307692308 188.4,79.49292307692308 188.4,111.81641181834101 206.832,102.60041181834102" fill="#9d6ff3" stroke-width="0.8" stroke="#010409"></polygon><polygon points="206.832,102.60041181834102 188.4,111.81641181834101 188.4,112.17047897733792 206.832,102.95447897733791" fill="#7f8892" stroke-width="0.8" stroke="#010409"></polygon><polygon points="206.832,102.95447897733791 188.4,112.17047897733792 188.4,112.416 206.832,103.2" fill="#7dd445" stroke-width="0.8" stroke="#010409"></polygon><rect width="56" height="13" rx="6" ry="6" fill="#161b22" stroke-width="0.8" stroke="#a97bff" x="160.4" y="38.06092307692309"></rect><text font-size="7" font-family="monospace" fill="#e6edf3" text-anchor="middle" x="180.671484375" y="46.54285667067309"><tspan dy="0" x="180.671484375">Ai-copilot</tspan></text><polygon points="130.8,58.830153846153856 149.23200000000003,68.04615384615386 130.8,77.26215384615384 112.36800000000001,68.04615384615386" fill="#555555" stroke-width="1.2" stroke="#010409"></polygon><polygon points="112.36800000000001,68.04615384615386 130.8,77.26215384615384 130.8,111.22918681318681 112.36800000000001,102.01318681318682" fill="#373737" stroke-width="0.8" stroke="#010409"></polygon><polygon points="112.36800000000001,102.01318681318682 130.8,111.22918681318681 130.8,112.416 112.36800000000001,103.2" fill="#245a00" stroke-width="0.8" stroke="#010409"></polygon><polygon points="149.23200000000003,68.04615384615386 130.8,77.26215384615384 130.8,111.22918681318681 149.23200000000003,102.01318681318682" fill="#494949" stroke-width="0.8" stroke="#010409"></polygon><polygon points="149.23200000000003,102.01318681318682 130.8,111.22918681318681 130.8,112.416 149.23200000000003,103.2" fill="#366c0d" stroke-width="0.8" stroke="#010409"></polygon><rect width="42.199999999999996" height="13" rx="6" ry="6" fill="#161b22" stroke-width="0.8" stroke="#555555" x="109.70000000000002" y="35.830153846153856"></rect><text font-size="7" font-family="monospace" fill="#e6edf3" text-anchor="middle" x="128.50346679687502" y="44.312087439903856"><tspan dy="0" x="128.50346679687502">Ram_tes</tspan></text><polygon points="73.20000000000002,36.52246153846155 91.632,45.73846153846154 73.20000000000002,54.95446153846154 54.768000000000015,45.73846153846154" fill="#555555" stroke-width="1.2" stroke="#010409"></polygon><polygon points="54.768000000000015,45.73846153846154 73.20000000000002,54.95446153846154 73.20000000000002,109.59594966442953 54.768000000000015,100.37994966442953" fill="#373737" stroke-width="0.8" stroke="#010409"></polygon><polygon points="54.768000000000015,100.37994966442953 73.20000000000002,109.59594966442953 73.20000000000002,112.416 54.768000000000015,103.2" fill="#245a00" stroke-width="0.8" stroke="#010409"></polygon><polygon points="91.632,45.73846153846154 73.20000000000002,54.95446153846154 73.20000000000002,109.59594966442953 91.632,100.37994966442953" fill="#494949" stroke-width="0.8" stroke="#010409"></polygon><polygon points="91.632,100.37994966442953 73.20000000000002,109.59594966442953 73.20000000000002,112.416 91.632,103.2" fill="#366c0d" stroke-width="0.8" stroke="#010409"></polygon><rect width="65.19999999999999" height="13" rx="6" ry="6" fill="#161b22" stroke-width="0.8" stroke="#555555" x="40.60000000000002" y="13.522461538461549"></rect><text font-size="7" font-family="monospace" fill="#e6edf3" text-anchor="middle" x="66.11293945312502" y="22.00439513221155"><tspan dy="0" x="66.11293945312502">Kernel-test…</tspan></text><polygon points="217.20000000000002,75.4609230769231 235.632,84.67692307692307 217.20000000000002,93.89292307692308 198.76800000000003,84.67692307692307" fill="#a97bff" stroke-width="1.2" stroke="#010409"></polygon><polygon points="198.76800000000003,84.67692307692307 217.20000000000002,93.89292307692308 217.20000000000002,119.65479367389891 198.76800000000003,110.4387936738989" fill="#8b5de1" stroke-width="0.8" stroke="#010409"></polygon><polygon points="198.76800000000003,110.4387936738989 217.20000000000002,119.65479367389891 217.20000000000002,126.816 198.76800000000003,117.6" fill="#925400" stroke-width="0.8" stroke="#010409"></polygon><polygon points="235.632,84.67692307692307 217.20000000000002,93.89292307692308 217.20000000000002,119.65479367389891 235.632,110.4387936738989" fill="#9d6ff3" stroke-width="0.8" stroke="#010409"></polygon><polygon points="235.632,110.4387936738989 217.20000000000002,119.65479367389891 217.20000000000002,126.816 235.632,117.6" fill="#a4660d" stroke-width="0.8" stroke="#010409"></polygon><rect width="33" height="13" rx="6" ry="6" fill="#161b22" stroke-width="0.8" stroke="#a97bff" x="200.70000000000002" y="52.460923076923095"></rect><text font-size="7" font-family="monospace" fill="#e6edf3" text-anchor="middle" x="214.91484375000002" y="60.942856670673095"><tspan dy="0" x="214.91484375000002">Glens</tspan></text><polygon points="159.60000000000002,70.99938461538463 178.032,80.21538461538461 159.6,89.43138461538462 141.168,80.21538461538461" fill="#8b949e" stroke-width="1.2" stroke="#010409"></polygon><polygon points="141.168,80.21538461538461 159.6,89.43138461538462 159.6,126.816 141.168,117.6" fill="#6d7680" stroke-width="0.8" stroke="#010409"></polygon><polygon points="178.032,80.21538461538461 159.6,89.43138461538462 159.6,126.816 178.032,117.6" fill="#7f8892" stroke-width="0.8" stroke="#010409"></polygon><rect width="65.19999999999999" height="13" rx="6" ry="6" fill="#161b22" stroke-width="0.8" stroke="#8b949e" x="127.00000000000003" y="47.99938461538463"></rect><text font-size="7" font-family="monospace" fill="#e6edf3" text-anchor="middle" x="152.68041992187503" y="56.48131820913463"><tspan dy="0" x="152.68041992187503">Git-Compiler</tspan></text><polygon points="102,41.99938461538463 120.432,51.21538461538461 102.00000000000001,60.431384615384616 83.56800000000001,51.21538461538461" fill="#89e051" stroke-width="1.2" stroke="#010409"></polygon><polygon points="83.56800000000001,51.21538461538461 102.00000000000001,60.431384615384616 102.00000000000001,113.13188968048672 83.56800000000001,103.91588968048671" fill="#6bc233" stroke-width="0.8" stroke="#010409"></polygon><polygon points="83.56800000000001,103.91588968048671 102.00000000000001,113.13188968048672 102.00000000000001,119.80090585124063 83.56800000000001,110.58490585124062" fill="#373737" stroke-width="0.8" stroke="#010409"></polygon><polygon points="83.56800000000001,110.58490585124062 102.00000000000001,119.80090585124063 102.00000000000001,125.57822561019668 83.56800000000001,116.36222561019667" fill="#c08766" stroke-width="0.8" stroke="#010409"></polygon><polygon points="83.56800000000001,116.36222561019667 102.00000000000001,125.57822561019668 102.00000000000001,126.816 83.56800000000001,117.6" fill="#245a00" stroke-width="0.8" stroke="#010409"></polygon><polygon points="120.432,51.21538461538461 102.00000000000001,60.431384615384616 102.00000000000001,113.13188968048672 120.432,103.91588968048671" fill="#7dd445" stroke-width="0.8" stroke="#010409"></polygon><polygon points="120.432,103.91588968048671 102.00000000000001,113.13188968048672 102.00000000000001,119.80090585124063 120.432,110.58490585124062" fill="#494949" stroke-width="0.8" stroke="#010409"></polygon><polygon points="120.432,110.58490585124062 102.00000000000001,119.80090585124063 102.00000000000001,125.57822561019668 120.432,116.36222561019667" fill="#d29978" stroke-width="0.8" stroke="#010409"></polygon><polygon points="120.432,116.36222561019667 102.00000000000001,125.57822561019668 102.00000000000001,126.816 120.432,117.6" fill="#366c0d" stroke-width="0.8" stroke="#010409"></polygon><rect width="33" height="13" rx="6" ry="6" fill="#161b22" stroke-width="0.8" stroke="#89e051" x="85.5" y="18.999384615384628"></rect><text font-size="7" font-family="monospace" fill="#e6edf3" text-anchor="middle" x="99.477294921875" y="27.481318209134628"><tspan dy="0" x="99.477294921875">my-ai</tspan></text><polygon points="188.4,89.86092307692309 206.832,99.07692307692308 188.4,108.29292307692309 169.96800000000002,99.07692307692308" fill="#8b949e" stroke-width="1.2" stroke="#010409"></polygon><polygon points="169.96800000000002,99.07692307692308 188.4,108.29292307692309 188.4,141.216 169.96800000000002,132" fill="#6d7680" stroke-width="0.8" stroke="#010409"></polygon><polygon points="206.832,99.07692307692308 188.4,108.29292307692309 188.4,141.216 206.832,132" fill="#7f8892" stroke-width="0.8" stroke="#010409"></polygon><rect width="60.599999999999994" height="13" rx="6" ry="6" fill="#161b22" stroke-width="0.8" stroke="#8b949e" x="158.10000000000002" y="66.86092307692309"></rect><text font-size="7" font-family="monospace" fill="#e6edf3" text-anchor="middle" x="183.08657226562502" y="75.34285667067309"><tspan dy="0" x="183.08657226562502">Lwgjl-arm64</tspan></text><rect width="170" height="111" rx="8" ry="8" fill="#161b22" stroke-width="1" stroke="#30363d" x="16" y="203.8"></rect><text font-size="11" font-family="monospace" fill="#39d353" text-anchor="start" x="24" y="220.55732421875"><tspan dy="0" x="24">Top Commits</tspan></text><text font-size="9" font-family="monospace" fill="#c9d1d9" text-anchor="start" x="24" y="235.41962890625"><tspan dy="0" x="24">1. Genta-ta</tspan></text><text font-size="9" font-family="monospace" fill="#58a6ff" text-anchor="end" x="188.2919921875" y="235.41962890625"><tspan dy="0" x="188.2919921875">52</tspan></text><text font-size="9" font-family="monospace" fill="#c9d1d9" text-anchor="start" x="24" y="252.41962890625"><tspan dy="0" x="24">2. my-ai</tspan></text><text font-size="9" font-family="monospace" fill="#58a6ff" text-anchor="end" x="188.2919921875" y="252.41962890625"><tspan dy="0" x="188.2919921875">19</tspan></text><text font-size="9" font-family="monospace" fill="#c9d1d9" text-anchor="start" x="24" y="269.41962890625"><tspan dy="0" x="24">3. Kernel-tester</tspan></text><text font-size="9" font-family="monospace" fill="#58a6ff" text-anchor="end" x="188.2919921875" y="269.41962890625"><tspan dy="0" x="188.2919921875">15</tspan></text><text font-size="9" font-family="monospace" fill="#c9d1d9" text-anchor="start" x="24" y="286.41962890625"><tspan dy="0" x="24">4. Git-Compiler</tspan></text><text font-size="9" font-family="monospace" fill="#58a6ff" text-anchor="end" x="183.14599609375" y="286.41962890625"><tspan dy="0" x="183.14599609375">6</tspan></text><text font-size="9" font-family="monospace" fill="#c9d1d9" text-anchor="start" x="24" y="303.41962890625"><tspan dy="0" x="24">5. Server</tspan></text><text font-size="9" font-family="monospace" fill="#58a6ff" text-anchor="end" x="183.14599609375" y="303.41962890625"><tspan dy="0" x="183.14599609375">5</tspan></text><rect width="9" height="9" rx="2" ry="2" fill="#a97bff" x="14" y="14"></rect><text font-size="9" font-family="monospace" fill="#c9d1d9" text-anchor="start" x="27" y="22.61962890625"><tspan dy="0" x="27">Kotlin</tspan></text><rect width="9" height="9" rx="2" ry="2" fill="#8b949e" x="14" y="30"></rect><text font-size="9" font-family="monospace" fill="#c9d1d9" text-anchor="start" x="27" y="38.61962890625"><tspan dy="0" x="27">Batchfile</tspan></text><rect width="9" height="9" rx="2" ry="2" fill="#89e051" x="14" y="46"></rect><text font-size="9" font-family="monospace" fill="#c9d1d9" text-anchor="start" x="27" y="54.61962890625"><tspan dy="0" x="27">Shell</tspan></text><rect width="9" height="9" rx="2" ry="2" fill="#f1e05a" x="14" y="62"></rect><text font-size="9" font-family="monospace" fill="#c9d1d9" text-anchor="start" x="27" y="70.61962890625"><tspan dy="0" x="27">JavaScript</tspan></text><rect width="9" height="9" rx="2" ry="2" fill="#3572a5" x="14" y="78"></rect><text font-size="9" font-family="monospace" fill="#c9d1d9" text-anchor="start" x="27" y="86.61962890625"><tspan dy="0" x="27">Python</tspan></text><rect width="9" height="9" rx="2" ry="2" fill="#555555" x="247.60000000000002" y="14"></rect><text font-size="9" font-family="monospace" fill="#c9d1d9" text-anchor="end" x="247.27773437500002" y="22.61962890625"><tspan dy="0" x="247.27773437500002">C</tspan></text><rect width="9" height="9" rx="2" ry="2" fill="#427819" x="247.60000000000002" y="30"></rect><text font-size="9" font-family="monospace" fill="#c9d1d9" text-anchor="end" x="277.15615234375" y="38.61962890625"><tspan dy="0" x="277.15615234375">Makefile</tspan></text><rect width="9" height="9" rx="2" ry="2" fill="#b07219" x="247.60000000000002" y="46"></rect><text font-size="9" font-family="monospace" fill="#c9d1d9" text-anchor="end" x="258.52333984375" y="54.61962890625"><tspan dy="0" x="258.52333984375">Java</tspan></text><rect width="9" height="9" rx="2" ry="2" fill="#dea584" x="247.60000000000002" y="62"></rect><text font-size="9" font-family="monospace" fill="#c9d1d9" text-anchor="end" x="260.15810546875" y="70.61962890625"><tspan dy="0" x="260.15810546875">Rust</tspan></text></svg>