<svg xmlns="http://www.w3.org/2000/svg" version="1.1" xmlns:xlink="http://www.w3.org/1999/xlink" viewBox="0 0 261.6 330.8" width="261.6" height="330.8" shape-rendering="crispEdges" style="image-rendering: pixelated;"><rect width="261.6" height="330.8" x="0" y="0" fill="#0d1117"></rect><line x1="130.8" y1="60" x2="44.400000000000006" y2="103.2" stroke-opacity="0.15" stroke-width="1" stroke="#ffffff"></line><line x1="159.60000000000002" y1="74.4" x2="73.20000000000002" y2="117.6" stroke-opacity="0.15" stroke-width="1" stroke="#ffffff"></line><line x1="188.4" y1="88.8" x2="102.00000000000001" y2="132" stroke-opacity="0.15" stroke-width="1" stroke="#ffffff"></line><line x1="217.20000000000002" y1="103.2" x2="130.8" y2="146.4" stroke-opacity="0.15" stroke-width="1" stroke="#ffffff"></line><line x1="246" y1="117.6" x2="159.60000000000002" y2="160.8" stroke-opacity="0.15" stroke-width="1" stroke="#ffffff"></line><line x1="130.8" y1="60" x2="246" y2="117.6" stroke-opacity="0.15" stroke-width="1" stroke="#ffffff"></line><line x1="102.00000000000001" y1="74.4" x2="217.20000000000002" y2="132" stroke-opacity="0.15" stroke-width="1" stroke="#ffffff"></line><line x1="73.20000000000002" y1="88.8" x2="188.4" y2="146.4" stroke-opacity="0.15" stroke-width="1" stroke="#ffffff"></line><line x1="44.400000000000006" y1="103.2" x2="159.60000000000002" y2="160.8" stroke-opacity="0.15" stroke-width="1" stroke="#ffffff"></line><polygon points="130.8,-74.816 149.23200000000003,-65.6 130.8,-56.384 112.36800000000001,-65.6" fill="#f1e05a" stroke-width="1.2" stroke="#010409"></polygon><polygon points="112.36800000000001,-65.6 130.8,-56.384 130.8,83.616 112.36800000000001,74.4" fill="#d3c23c" stroke-width="0.8" stroke="#010409"></polygon><polygon points="149.23200000000003,-65.6 130.8,-56.384 130.8,83.616 149.23200000000003,74.4" fill="#e5d44e" stroke-width="0.8" stroke="#010409"></polygon><rect width="46.8" height="13" rx="6" ry="6" fill="#161b22" stroke-width="0.8" stroke="#f1e05a" x="107.4" y="-97.816"></rect><text font-size="7" font-family="monospace" fill="#e6edf3" text-anchor="middle" x="126.550390625" y="-89.33406640625"><tspan dy="0" x="126.550390625">Genta-ta</tspan></text><polygon points="159.60000000000002,51.842064516129035 178.032,61.05806451612903 159.60000000000002,70.27406451612904 141.168,61.05806451612903" fill="#a97bff" stroke-width="1.2" stroke="#010409"></polygon><polygon points="141.168,61.05806451612903 159.60000000000002,70.27406451612904 159.60000000000002,92.40717295663785 141.168,83.19117295663784" fill="#8b5de1" stroke-width="0.8" stroke="#010409"></polygon><polygon points="141.168,83.19117295663784 159.60000000000002,92.40717295663785 159.60000000000002,95.71928202965775 141.168,86.50328202965774" fill="#6d7680" stroke-width="0.8" stroke="#010409"></polygon><polygon points="141.168,86.50328202965774 159.60000000000002,95.71928202965775 159.60000000000002,98.016 141.168,88.8" fill="#6bc233" stroke-width="0.8" stroke="#010409"></polygon><polygon points="178.032,61.05806451612903 159.60000000000002,70.27406451612904 159.60000000000002,92.40717295663785 178.032,83.19117295663784" fill="#9d6ff3" stroke-width="0.8" stroke="#010409"></polygon><polygon points="178.032,83.19117295663784 159.60000000000002,92.40717295663785 159.60000000000002,95.71928202965775 178.032,86.50328202965774" fill="#7f8892" stroke-width="0.8" stroke="#010409"></polygon><polygon points="178.032,86.50328202965774 159.60000000000002,95.71928202965775 159.60000000000002,98.016 178.032,88.8" fill="#7dd445" stroke-width="0.8" stroke="#010409"></polygon><rect width="56" height="13" rx="6" ry="6" fill="#161b22" stroke-width="0.8" stroke="#a97bff" x="131.60000000000002" y="28.842064516129035"></rect><text font-size="7" font-family="monospace" fill="#e6edf3" text-anchor="middle" x="155.40908203125002" y="37.323998109879035"><tspan dy="0" x="155.40908203125002">MCP-server</tspan></text><polygon points="102.00000000000001,46.22916129032258 120.43200000000002,55.445161290322574 102.00000000000001,64.66116129032258 83.56800000000001,55.445161290322574" fill="#89e051" stroke-width="1.2" stroke="#010409"></polygon><polygon points="83.56800000000001,55.445161290322574 102.00000000000001,64.66116129032258 102.00000000000001,97.83006818955386 83.56800000000001,88.61406818955385" fill="#6bc233" stroke-width="0.8" stroke="#010409"></polygon><polygon points="83.56800000000001,88.61406818955385 102.00000000000001,97.83006818955386 102.00000000000001,98.016 83.56800000000001,88.8" fill="#175487" stroke-width="0.8" stroke="#010409"></polygon><polygon points="120.43200000000002,55.445161290322574 102.00000000000001,64.66116129032258 102.00000000000001,97.83006818955386 120.43200000000002,88.61406818955385" fill="#7dd445" stroke-width="0.8" stroke="#010409"></polygon><polygon points="120.43200000000002,88.61406818955385 102.00000000000001,97.83006818955386 102.00000000000001,98.016 120.43200000000002,88.8" fill="#296699" stroke-width="0.8" stroke="#010409"></polygon><rect width="37.599999999999994" height="13" rx="6" ry="6" fill="#161b22" stroke-width="0.8" stroke="#89e051" x="83.20000000000002" y="23.22916129032258"></rect><text font-size="7" font-family="monospace" fill="#e6edf3" text-anchor="middle" x="98.65898437500002" y="31.71109488407258"><tspan dy="0" x="98.65898437500002">Server</tspan></text><polygon points="188.4,62.50012903225807 206.832,71.71612903225807 188.4,80.93212903225806 169.96800000000002,71.71612903225807" fill="#a97bff" stroke-width="1.2" stroke="#010409"></polygon><polygon points="169.96800000000002,71.71612903225807 188.4,80.93212903225806 188.4,111.84262233577863 169.96800000000002,102.62662233577862" fill="#8b5de1" stroke-width="0.8" stroke="#010409"></polygon><polygon points="169.96800000000002,102.62662233577862 188.4,111.84262233577863 188.4,112.18121173232313 169.96800000000002,102.96521173232314" fill="#6d7680" stroke-width="0.8" stroke="#010409"></polygon><polygon points="169.96800000000002,102.96521173232314 188.4,112.18121173232313 188.4,112.416 169.96800000000002,103.2" fill="#6bc233" stroke-width="0.8" stroke="#010409"></polygon><polygon points="206.832,71.71612903225807 188.4,80.93212903225806 188.4,111.84262233577863 206.832,102.62662233577862" fill="#9d6ff3" stroke-width="0.8" stroke="#010409"></polygon><polygon points="206.832,102.62662233577862 188.4,111.84262233577863 188.4,112.18121173232313 206.832,102.96521173232314" fill="#7f8892" stroke-width="0.8" stroke="#010409"></polygon><polygon points="206.832,102.96521173232314 188.4,112.18121173232313 188.4,112.416 206.832,103.2" fill="#7dd445" stroke-width="0.8" stroke="#010409"></polygon><rect width="56" height="13" rx="6" ry="6" fill="#161b22" stroke-width="0.8" stroke="#a97bff" x="160.4" y="39.50012903225807"></rect><text font-size="7" font-family="monospace" fill="#e6edf3" text-anchor="middle" x="180.671484375" y="47.98206262600807"><tspan dy="0" x="180.671484375">Ai-copilot</tspan></text><polygon points="130.8,60.629161290322585 149.23200000000003,69.84516129032258 130.8,79.06116129032257 112.36800000000001,69.84516129032258" fill="#555555" stroke-width="1.2" stroke="#010409"></polygon><polygon points="112.36800000000001,69.84516129032258 130.8,79.06116129032257 130.8,111.28992229426535 112.36800000000001,102.07392229426534" fill="#373737" stroke-width="0.8" stroke="#010409"></polygon><polygon points="112.36800000000001,102.07392229426534 130.8,111.28992229426535 130.8,112.416 112.36800000000001,103.2" fill="#245a00" stroke-width="0.8" stroke="#010409"></polygon><polygon points="149.23200000000003,69.84516129032258 130.8,79.06116129032257 130.8,111.28992229426535 149.23200000000003,102.07392229426534" fill="#494949" stroke-width="0.8" stroke="#010409"></polygon><polygon points="149.23200000000003,102.07392229426534 130.8,111.28992229426535 130.8,112.416 149.23200000000003,103.2" fill="#366c0d" stroke-width="0.8" stroke="#010409"></polygon><rect width="42.199999999999996" height="13" rx="6" ry="6" fill="#161b22" stroke-width="0.8" stroke="#555555" x="109.70000000000002" y="37.629161290322585"></rect><text font-size="7" font-family="monospace" fill="#e6edf3" text-anchor="middle" x="128.50346679687502" y="46.111094884072585"><tspan dy="0" x="128.50346679687502">Ram_tes</tspan></text><polygon points="73.20000000000002,41.91948387096775 91.632,51.13548387096775 73.20000000000002,60.35148387096774 54.768000000000015,51.13548387096775" fill="#555555" stroke-width="1.2" stroke="#010409"></polygon><polygon points="54.768000000000015,51.13548387096775 73.20000000000002,60.35148387096774 73.20000000000002,109.86082030742585 54.768000000000015,100.64482030742585" fill="#373737" stroke-width="0.8" stroke="#010409"></polygon><polygon points="54.768000000000015,100.64482030742585 73.20000000000002,109.86082030742585 73.20000000000002,112.416 54.768000000000015,103.2" fill="#245a00" stroke-width="0.8" stroke="#010409"></polygon><polygon points="91.632,51.13548387096775 73.20000000000002,60.35148387096774 73.20000000000002,109.86082030742585 91.632,100.64482030742585" fill="#494949" stroke-width="0.8" stroke="#010409"></polygon><polygon points="91.632,100.64482030742585 73.20000000000002,109.86082030742585 73.20000000000002,112.416 91.632,103.2" fill="#366c0d" stroke-width="0.8" stroke="#010409"></polygon><rect width="65.19999999999999" height="13" rx="6" ry="6" fill="#161b22" stroke-width="0.8" stroke="#555555" x="40.60000000000002" y="18.919483870967753"></rect><text font-size="7" font-family="monospace" fill="#e6edf3" text-anchor="middle" x="66.11293945312502" y="27.401417464717753"><tspan dy="0" x="66.11293945312502">Kernel-test…</tspan></text><polygon points="217.20000000000002,76.90012903225808 235.632,86.11612903225806 217.20000000000002,95.33212903225807 198.76800000000003,86.11612903225806" fill="#a97bff" stroke-width="1.2" stroke="#010409"></polygon><polygon points="198.76800000000003,86.11612903225806 217.20000000000002,95.33212903225807 217.20000000000002,119.96784007645684 198.76800000000003,110.75184007645683" fill="#8b5de1" stroke-width="0.8" stroke="#010409"></polygon><polygon points="198.76800000000003,110.75184007645683 217.20000000000002,119.96784007645684 217.20000000000002,126.816 198.76800000000003,117.6" fill="#925400" stroke-width="0.8" stroke="#010409"></polygon><polygon points="235.632,86.11612903225806 217.20000000000002,95.33212903225807 217.20000000000002,119.96784007645684 235.632,110.75184007645683" fill="#9d6ff3" stroke-width="0.8" stroke="#010409"></polygon><polygon points="235.632,110.75184007645683 217.20000000000002,119.96784007645684 217.20000000000002,126.816 235.632,117.6" fill="#a4660d" stroke-width="0.8" stroke="#010409"></polygon><rect width="33" height="13" rx="6" ry="6" fill="#161b22" stroke-width="0.8" stroke="#a97bff" x="200.70000000000002" y="53.90012903225808"></rect><text font-size="7" font-family="monospace" fill="#e6edf3" text-anchor="middle" x="214.91484375000002" y="62.38206262600808"><tspan dy="0" x="214.91484375000002">Glens</tspan></text><polygon points="159.60000000000002,73.15819354838712 178.032,82.3741935483871 159.6,91.5901935483871 141.168,82.3741935483871" fill="#8b949e" stroke-width="1.2" stroke="#010409"></polygon><polygon points="141.168,82.3741935483871 159.6,91.5901935483871 159.6,126.816 141.168,117.6" fill="#6d7680" stroke-width="0.8" stroke="#010409"></polygon><polygon points="178.032,82.3741935483871 159.6,91.5901935483871 159.6,126.816 178.032,117.6" fill="#7f8892" stroke-width="0.8" stroke="#010409"></polygon><rect width="65.19999999999999" height="13" rx="6" ry="6" fill="#161b22" stroke-width="0.8" stroke="#8b949e" x="127.00000000000003" y="50.15819354838712"></rect><text font-size="7" font-family="monospace" fill="#e6edf3" text-anchor="middle" x="152.68041992187503" y="58.64012714213712"><tspan dy="0" x="152.68041992187503">Git-Compiler</tspan></text><polygon points="102,48.83561290322582 120.432,58.0516129032258 102.00000000000001,67.26761290322581 83.56800000000001,58.0516129032258" fill="#89e051" stroke-width="1.2" stroke="#010409"></polygon><polygon points="83.56800000000001,58.0516129032258 102.00000000000001,67.26761290322581 102.00000000000001,114.5410671159242 83.56800000000001,105.3250671159242" fill="#6bc233" stroke-width="0.8" stroke="#010409"></polygon><polygon points="83.56800000000001,105.3250671159242 102.00000000000001,114.5410671159242 102.00000000000001,120.52331396920243 83.56800000000001,111.30731396920243" fill="#373737" stroke-width="0.8" stroke="#010409"></polygon><polygon points="83.56800000000001,111.30731396920243 102.00000000000001,120.52331396920243 102.00000000000001,125.70569050923261 83.56800000000001,116.4896905092326" fill="#c08766" stroke-width="0.8" stroke="#010409"></polygon><polygon points="83.56800000000001,116.4896905092326 102.00000000000001,125.70569050923261 102.00000000000001,126.816 83.56800000000001,117.6" fill="#245a00" stroke-width="0.8" stroke="#010409"></polygon><polygon points="120.432,58.0516129032258 102.00000000000001,67.26761290322581 102.00000000000001,114.5410671159242 120.432,105.3250671159242" fill="#7dd445" stroke-width="0.8" stroke="#010409"></polygon><polygon points="120.432,105.3250671159242 102.00000000000001,114.5410671159242 102.00000000000001,120.52331396920243 120.432,111.30731396920243" fill="#494949" stroke-width="0.8" stroke="#010409"></polygon><polygon points="120.432,111.30731396920243 102.00000000000001,120.52331396920243 102.00000000000001,125.70569050923261 120.432,116.4896905092326" fill="#d29978" stroke-width="0.8" stroke="#010409"></polygon><polygon points="120.432,116.4896905092326 102.00000000000001,125.70569050923261 102.00000000000001,126.816 120.432,117.6" fill="#366c0d" stroke-width="0.8" stroke="#010409"></polygon><rect width="33" height="13" rx="6" ry="6" fill="#161b22" stroke-width="0.8" stroke="#89e051" x="85.5" y="25.835612903225822"></rect><text font-size="7" font-family="monospace" fill="#e6edf3" text-anchor="middle" x="99.477294921875" y="34.31754649697582"><tspan dy="0" x="99.477294921875">my-ai</tspan></text><polygon points="188.4,91.30012903225807 206.832,100.51612903225806 188.4,109.73212903225807 169.96800000000002,100.51612903225806" fill="#8b949e" stroke-width="1.2" stroke="#010409"></polygon><polygon points="169.96800000000002,100.51612903225806 188.4,109.73212903225807 188.4,141.216 169.96800000000002,132" fill="#6d7680" stroke-width="0.8" stroke="#010409"></polygon><polygon points="206.832,100.51612903225806 188.4,109.73212903225807 188.4,141.216 206.832,132" fill="#7f8892" stroke-width="0.8" stroke="#010409"></polygon><rect width="60.599999999999994" height="13" rx="6" ry="6" fill="#161b22" stroke-width="0.8" stroke="#8b949e" x="158.10000000000002" y="68.30012903225807"></rect><text font-size="7" font-family="monospace" fill="#e6edf3" text-anchor="middle" x="183.08657226562502" y="76.78206262600807"><tspan dy="0" x="183.08657226562502">Lwgjl-arm64</tspan></text><rect width="170" height="111" rx="8" ry="8" fill="#161b22" stroke-width="1" stroke="#30363d" x="16" y="203.8"></rect><text font-size="11" font-family="monospace" fill="#39d353" text-anchor="start" x="24" y="220.55732421875"><tspan dy="0" x="24">Top Commits</tspan></text><text font-size="9" font-family="monospace" fill="#c9d1d9" text-anchor="start" x="24" y="235.41962890625"><tspan dy="0" x="24">1. Genta-ta</tspan></text><text font-size="9" font-family="monospace" fill="#58a6ff" text-anchor="end" x="188.2919921875" y="235.41962890625"><tspan dy="0" x="188.2919921875">62</tspan></text><text font-size="9" font-family="monospace" fill="#c9d1d9" text-anchor="start" x="24" y="252.41962890625"><tspan dy="0" x="24">2. my-ai</tspan></text><text font-size="9" font-family="monospace" fill="#58a6ff" text-anchor="end" x="188.2919921875" y="252.41962890625"><tspan dy="0" x="188.2919921875">19</tspan></text><text font-size="9" font-family="monospace" fill="#c9d1d9" text-anchor="start" x="24" y="269.41962890625"><tspan dy="0" x="24">3. Kernel-tester</tspan></text><text font-size="9" font-family="monospace" fill="#58a6ff" text-anchor="end" x="188.2919921875" y="269.41962890625"><tspan dy="0" x="188.2919921875">15</tspan></text><text font-size="9" font-family="monospace" fill="#c9d1d9" text-anchor="start" x="24" y="286.41962890625"><tspan dy="0" x="24">4. Git-Compiler</tspan></text><text font-size="9" font-family="monospace" fill="#58a6ff" text-anchor="end" x="183.14599609375" y="286.41962890625"><tspan dy="0" x="183.14599609375">6</tspan></text><text font-size="9" font-family="monospace" fill="#c9d1d9" text-anchor="start" x="24" y="303.41962890625"><tspan dy="0" x="24">5. Server</tspan></text><text font-size="9" font-family="monospace" fill="#58a6ff" text-anchor="end" x="183.14599609375" y="303.41962890625"><tspan dy="0" x="183.14599609375">5</tspan></text><rect width="9" height="9" rx="2" ry="2" fill="#f1e05a" x="14" y="14"></rect><text font-size="9" font-family="monospace" fill="#c9d1d9" text-anchor="start" x="27" y="22.61962890625"><tspan dy="0" x="27">JavaScript</tspan></text><rect width="9" height="9" rx="2" ry="2" fill="#a97bff" x="14" y="30"></rect><text font-size="9" font-family="monospace" fill="#c9d1d9" text-anchor="start" x="27" y="38.61962890625"><tspan dy="0" x="27">Kotlin</tspan></text><rect width="9" height="9" rx="2" ry="2" fill="#8b949e" x="14" y="46"></rect><text font-size="9" font-family="monospace" fill="#c9d1d9" text-anchor="start" x="27" y="54.61962890625"><tspan dy="0" x="27">Batchfile</tspan></text><rect width="9" height="9" rx="2" ry="2" fill="#89e051" x="14" y="62"></rect><text font-size="9" font-family="monospace" fill="#c9d1d9" text-anchor="start" x="27" y="70.61962890625"><tspan dy="0" x="27">Shell</tspan></text><rect width="9" height="9" rx="2" ry="2" fill="#3572a5" x="14" y="78"></rect><text font-size="9" font-family="monospace" fill="#c9d1d9" text-anchor="start" x="27" y="86.61962890625"><tspan dy="0" x="27">Python</tspan></text><rect width="9" height="9" rx="2" ry="2" fill="#555555" x="247.60000000000002" y="14"></rect><text font-size="9" font-family="monospace" fill="#c9d1d9" text-anchor="end" x="247.27773437500002" y="22.61962890625"><tspan dy="0" x="247.27773437500002">C</tspan></text><rect width="9" height="9" rx="2" ry="2" fill="#427819" x="247.60000000000002" y="30"></rect><text font-size="9" font-family="monospace" fill="#c9d1d9" text-anchor="end" x="277.15615234375" y="38.61962890625"><tspan dy="0" x="277.15615234375">Makefile</tspan></text><rect width="9" height="9" rx="2" ry="2" fill="#b07219" x="247.60000000000002" y="46"></rect><text font-size="9" font-family="monospace" fill="#c9d1d9" text-anchor="end" x="258.52333984375" y="54.61962890625"><tspan dy="0" x="258.52333984375">Java</tspan></text><rect width="9" height="9" rx="2" ry="2" fill="#dea584" x="247.60000000000002" y="62"></rect><text font-size="9" font-family="monospace" fill="#c9d1d9" text-anchor="end" x="260.15810546875" y="70.61962890625"><tspan dy="0" x="260.15810546875">Rust</tspan></text></svg>