<svg xmlns="http://www.w3.org/2000/svg" version="1.1" xmlns:xlink="http://www.w3.org/1999/xlink" viewBox="0 0 232.8 316.4" width="232.8" height="316.4" shape-rendering="crispEdges" style="image-rendering: pixelated;"><rect width="232.8" height="316.4" x="0" y="0" fill="#0d1117"></rect><line x1="116.4" y1="60" x2="30" y2="103.2" stroke-opacity="0.15" stroke-width="1" stroke="#ffffff"></line><line x1="145.20000000000002" y1="74.4" x2="58.800000000000004" y2="117.6" stroke-opacity="0.15" stroke-width="1" stroke="#ffffff"></line><line x1="174" y1="88.8" x2="87.60000000000001" y2="132" stroke-opacity="0.15" stroke-width="1" stroke="#ffffff"></line><line x1="202.8" y1="103.2" x2="116.4" y2="146.4" stroke-opacity="0.15" stroke-width="1" stroke="#ffffff"></line><line x1="116.4" y1="60" x2="202.8" y2="103.2" stroke-opacity="0.15" stroke-width="1" stroke="#ffffff"></line><line x1="87.60000000000001" y1="74.4" x2="174" y2="117.6" stroke-opacity="0.15" stroke-width="1" stroke="#ffffff"></line><line x1="58.800000000000004" y1="88.8" x2="145.20000000000002" y2="132" stroke-opacity="0.15" stroke-width="1" stroke="#ffffff"></line><line x1="30" y1="103.2" x2="116.4" y2="146.4" stroke-opacity="0.15" stroke-width="1" stroke="#ffffff"></line><polygon points="116.4,-74.816 134.83200000000002,-65.6 116.4,-56.384 97.968,-65.6" fill="#f1e05a" stroke-width="1.2" stroke="#010409"></polygon><polygon points="97.968,-65.6 116.4,-56.384 116.4,83.616 97.968,74.4" fill="#d3c23c" stroke-width="0.8" stroke="#010409"></polygon><polygon points="134.83200000000002,-65.6 116.4,-56.384 116.4,83.616 134.83200000000002,74.4" fill="#e5d44e" stroke-width="0.8" stroke="#010409"></polygon><rect width="46.8" height="13" rx="6" ry="6" fill="#161b22" stroke-width="0.8" stroke="#f1e05a" x="93" y="-97.816"></rect><text font-size="7" font-family="monospace" fill="#e6edf3" text-anchor="middle" x="112.150390625" y="-89.33406640625"><tspan dy="0" x="112.150390625">Genta-ta</tspan></text><polygon points="145.20000000000002,45.64114285714286 163.632,54.857142857142854 145.20000000000002,64.07314285714287 126.768,54.857142857142854" fill="#a97bff" stroke-width="1.2" stroke="#010409"></polygon><polygon points="126.768,54.857142857142854 145.20000000000002,64.07314285714287 145.20000000000002,90.61635571997724 126.768,81.40035571997723" fill="#8b5de1" stroke-width="0.8" stroke="#010409"></polygon><polygon points="126.768,81.40035571997723 145.20000000000002,90.61635571997724 145.20000000000002,98.016 126.768,88.8" fill="#925400" stroke-width="0.8" stroke="#010409"></polygon><polygon points="163.632,54.857142857142854 145.20000000000002,64.07314285714287 145.20000000000002,90.61635571997724 163.632,81.40035571997723" fill="#9d6ff3" stroke-width="0.8" stroke="#010409"></polygon><polygon points="163.632,81.40035571997723 145.20000000000002,90.61635571997724 145.20000000000002,98.016 163.632,88.8" fill="#a4660d" stroke-width="0.8" stroke="#010409"></polygon><rect width="33" height="13" rx="6" ry="6" fill="#161b22" stroke-width="0.8" stroke="#a97bff" x="128.70000000000002" y="22.64114285714286"></rect><text font-size="7" font-family="monospace" fill="#e6edf3" text-anchor="middle" x="142.91484375000002" y="31.12307645089286"><tspan dy="0" x="142.91484375000002">Glens</tspan></text><polygon points="87.60000000000001,39.012571428571434 106.03200000000001,48.22857142857143 87.60000000000001,57.444571428571436 69.168,48.22857142857143" fill="#555555" stroke-width="1.2" stroke="#010409"></polygon><polygon points="69.168,48.22857142857143 87.60000000000001,57.444571428571436 87.60000000000001,96.64628625016746 69.168,87.43028625016746" fill="#373737" stroke-width="0.8" stroke="#010409"></polygon><polygon points="69.168,87.43028625016746 87.60000000000001,96.64628625016746 87.60000000000001,98.016 69.168,88.8" fill="#245a00" stroke-width="0.8" stroke="#010409"></polygon><polygon points="106.03200000000001,48.22857142857143 87.60000000000001,57.444571428571436 87.60000000000001,96.64628625016746 106.03200000000001,87.43028625016746" fill="#494949" stroke-width="0.8" stroke="#010409"></polygon><polygon points="106.03200000000001,87.43028625016746 87.60000000000001,96.64628625016746 87.60000000000001,98.016 106.03200000000001,88.8" fill="#366c0d" stroke-width="0.8" stroke="#010409"></polygon><rect width="42.199999999999996" height="13" rx="6" ry="6" fill="#161b22" stroke-width="0.8" stroke="#555555" x="66.50000000000001" y="16.012571428571434"></rect><text font-size="7" font-family="monospace" fill="#e6edf3" text-anchor="middle" x="85.30346679687501" y="24.494505022321434"><tspan dy="0" x="85.30346679687501">Ram_tes</tspan></text><polygon points="174,53.41257142857144 192.43200000000002,62.62857142857143 174,71.84457142857143 155.568,62.62857142857143" fill="#89e051" stroke-width="1.2" stroke="#010409"></polygon><polygon points="155.568,62.62857142857143 174,71.84457142857143 174,112.18984033446148 155.568,102.97384033446147" fill="#6bc233" stroke-width="0.8" stroke="#010409"></polygon><polygon points="155.568,102.97384033446147 174,112.18984033446148 174,112.416 155.568,103.2" fill="#175487" stroke-width="0.8" stroke="#010409"></polygon><polygon points="192.43200000000002,62.62857142857143 174,71.84457142857143 174,112.18984033446148 192.43200000000002,102.97384033446147" fill="#7dd445" stroke-width="0.8" stroke="#010409"></polygon><polygon points="192.43200000000002,102.97384033446147 174,112.18984033446148 174,112.416 192.43200000000002,103.2" fill="#296699" stroke-width="0.8" stroke="#010409"></polygon><rect width="37.599999999999994" height="13" rx="6" ry="6" fill="#161b22" stroke-width="0.8" stroke="#89e051" x="155.2" y="30.41257142857144"></rect><text font-size="7" font-family="monospace" fill="#e6edf3" text-anchor="middle" x="170.658984375" y="38.89450502232144"><tspan dy="0" x="170.658984375">Server</tspan></text><polygon points="116.4,50.09828571428572 134.83200000000002,59.31428571428572 116.4,68.53028571428571 97.968,59.31428571428572" fill="#8b949e" stroke-width="1.2" stroke="#010409"></polygon><polygon points="97.968,59.31428571428572 116.4,68.53028571428571 116.4,112.416 97.968,103.2" fill="#6d7680" stroke-width="0.8" stroke="#010409"></polygon><polygon points="134.83200000000002,59.31428571428572 116.4,68.53028571428571 116.4,112.416 134.83200000000002,103.2" fill="#7f8892" stroke-width="0.8" stroke="#010409"></polygon><rect width="65.19999999999999" height="13" rx="6" ry="6" fill="#161b22" stroke-width="0.8" stroke="#8b949e" x="83.80000000000001" y="27.098285714285723"></rect><text font-size="7" font-family="monospace" fill="#e6edf3" text-anchor="middle" x="109.48041992187501" y="35.58021930803572"><tspan dy="0" x="109.48041992187501">Git-Compiler</tspan></text><polygon points="58.800000000000004,20.2697142857143 77.232,29.485714285714295 58.80000000000001,38.70171428571429 40.36800000000001,29.485714285714295" fill="#555555" stroke-width="1.2" stroke="#010409"></polygon><polygon points="40.36800000000001,29.485714285714295 58.80000000000001,38.70171428571429 58.80000000000001,108.79831064237776 40.36800000000001,99.58231064237776" fill="#373737" stroke-width="0.8" stroke="#010409"></polygon><polygon points="40.36800000000001,99.58231064237776 58.80000000000001,108.79831064237776 58.80000000000001,112.416 40.36800000000001,103.2" fill="#245a00" stroke-width="0.8" stroke="#010409"></polygon><polygon points="77.232,29.485714285714295 58.80000000000001,38.70171428571429 58.80000000000001,108.79831064237776 77.232,99.58231064237776" fill="#494949" stroke-width="0.8" stroke="#010409"></polygon><polygon points="77.232,99.58231064237776 58.80000000000001,108.79831064237776 58.80000000000001,112.416 77.232,103.2" fill="#366c0d" stroke-width="0.8" stroke="#010409"></polygon><rect width="65.19999999999999" height="13" rx="6" ry="6" fill="#161b22" stroke-width="0.8" stroke="#555555" x="26.20000000000001" y="-2.7302857142856993"></rect><text font-size="7" font-family="monospace" fill="#e6edf3" text-anchor="middle" x="51.71293945312501" y="5.751647879464301"><tspan dy="0" x="51.71293945312501">Kernel-test…</tspan></text><polygon points="145.20000000000002,71.12685714285716 163.632,80.34285714285714 145.2,89.55885714285715 126.76800000000001,80.34285714285714" fill="#8b949e" stroke-width="1.2" stroke="#010409"></polygon><polygon points="126.76800000000001,80.34285714285714 145.2,89.55885714285715 145.2,126.816 126.76800000000001,117.6" fill="#6d7680" stroke-width="0.8" stroke="#010409"></polygon><polygon points="163.632,80.34285714285714 145.2,89.55885714285715 145.2,126.816 163.632,117.6" fill="#7f8892" stroke-width="0.8" stroke="#010409"></polygon><rect width="60.599999999999994" height="13" rx="6" ry="6" fill="#161b22" stroke-width="0.8" stroke="#8b949e" x="114.90000000000002" y="48.12685714285716"></rect><text font-size="7" font-family="monospace" fill="#e6edf3" text-anchor="middle" x="139.88657226562503" y="56.60879073660716"><tspan dy="0" x="139.88657226562503">Lwgjl-arm64</tspan></text><polygon points="87.6,21.412571428571454 106.032,30.628571428571433 87.60000000000001,39.84457142857144 69.168,30.628571428571433" fill="#89e051" stroke-width="1.2" stroke="#010409"></polygon><polygon points="69.168,30.628571428571433 87.60000000000001,39.84457142857144 87.60000000000001,108.88825248919782 69.168,99.67225248919782" fill="#6bc233" stroke-width="0.8" stroke="#010409"></polygon><polygon points="69.168,99.67225248919782 87.60000000000001,108.88825248919782 87.60000000000001,117.62542540457852 69.168,108.40942540457851" fill="#373737" stroke-width="0.8" stroke="#010409"></polygon><polygon points="69.168,108.40942540457851 87.60000000000001,117.62542540457852 87.60000000000001,125.19437417138563 69.168,115.97837417138562" fill="#c08766" stroke-width="0.8" stroke="#010409"></polygon><polygon points="69.168,115.97837417138562 87.60000000000001,125.19437417138563 87.60000000000001,126.816 69.168,117.6" fill="#245a00" stroke-width="0.8" stroke="#010409"></polygon><polygon points="106.032,30.628571428571433 87.60000000000001,39.84457142857144 87.60000000000001,108.88825248919782 106.032,99.67225248919782" fill="#7dd445" stroke-width="0.8" stroke="#010409"></polygon><polygon points="106.032,99.67225248919782 87.60000000000001,108.88825248919782 87.60000000000001,117.62542540457852 106.032,108.40942540457851" fill="#494949" stroke-width="0.8" stroke="#010409"></polygon><polygon points="106.032,108.40942540457851 87.60000000000001,117.62542540457852 87.60000000000001,125.19437417138563 106.032,115.97837417138562" fill="#d29978" stroke-width="0.8" stroke="#010409"></polygon><polygon points="106.032,115.97837417138562 87.60000000000001,125.19437417138563 87.60000000000001,126.816 106.032,117.6" fill="#366c0d" stroke-width="0.8" stroke="#010409"></polygon><rect width="33" height="13" rx="6" ry="6" fill="#161b22" stroke-width="0.8" stroke="#89e051" x="71.1" y="-1.5874285714285463"></rect><text font-size="7" font-family="monospace" fill="#e6edf3" text-anchor="middle" x="85.077294921875" y="6.894505022321454"><tspan dy="0" x="85.077294921875">my-ai</tspan></text><rect width="170" height="111" rx="8" ry="8" fill="#161b22" stroke-width="1" stroke="#30363d" x="16" y="189.39999999999998"></rect><text font-size="11" font-family="monospace" fill="#39d353" text-anchor="start" x="24" y="206.15732421874998"><tspan dy="0" x="24">Top Commits</tspan></text><text font-size="9" font-family="monospace" fill="#c9d1d9" text-anchor="start" x="24" y="221.01962890624998"><tspan dy="0" x="24">1. Genta-ta</tspan></text><text font-size="9" font-family="monospace" fill="#58a6ff" text-anchor="end" x="188.2919921875" y="221.01962890624998"><tspan dy="0" x="188.2919921875">35</tspan></text><text font-size="9" font-family="monospace" fill="#c9d1d9" text-anchor="start" x="24" y="238.01962890624998"><tspan dy="0" x="24">2. my-ai</tspan></text><text font-size="9" font-family="monospace" fill="#58a6ff" text-anchor="end" x="188.2919921875" y="238.01962890624998"><tspan dy="0" x="188.2919921875">19</tspan></text><text font-size="9" font-family="monospace" fill="#c9d1d9" text-anchor="start" x="24" y="255.01962890624998"><tspan dy="0" x="24">3. Kernel-tester</tspan></text><text font-size="9" font-family="monospace" fill="#58a6ff" text-anchor="end" x="188.2919921875" y="255.01962890624998"><tspan dy="0" x="188.2919921875">15</tspan></text><text font-size="9" font-family="monospace" fill="#c9d1d9" text-anchor="start" x="24" y="272.01962890625"><tspan dy="0" x="24">4. Git-Compiler</tspan></text><text font-size="9" font-family="monospace" fill="#58a6ff" text-anchor="end" x="183.14599609375" y="272.01962890625"><tspan dy="0" x="183.14599609375">6</tspan></text><text font-size="9" font-family="monospace" fill="#c9d1d9" text-anchor="start" x="24" y="289.01962890625"><tspan dy="0" x="24">5. Server</tspan></text><text font-size="9" font-family="monospace" fill="#58a6ff" text-anchor="end" x="183.14599609375" y="289.01962890625"><tspan dy="0" x="183.14599609375">5</tspan></text><rect width="9" height="9" rx="2" ry="2" fill="#f1e05a" x="14" y="14"></rect><text font-size="9" font-family="monospace" fill="#c9d1d9" text-anchor="start" x="27" y="22.61962890625"><tspan dy="0" x="27">JavaScript</tspan></text><rect width="9" height="9" rx="2" ry="2" fill="#a97bff" x="14" y="30"></rect><text font-size="9" font-family="monospace" fill="#c9d1d9" text-anchor="start" x="27" y="38.61962890625"><tspan dy="0" x="27">Kotlin</tspan></text><rect width="9" height="9" rx="2" ry="2" fill="#b07219" x="14" y="46"></rect><text font-size="9" font-family="monospace" fill="#c9d1d9" text-anchor="start" x="27" y="54.61962890625"><tspan dy="0" x="27">Java</tspan></text><rect width="9" height="9" rx="2" ry="2" fill="#555555" x="14" y="62"></rect><text font-size="9" font-family="monospace" fill="#c9d1d9" text-anchor="start" x="27" y="70.61962890625"><tspan dy="0" x="27">C</tspan></text><rect width="9" height="9" rx="2" ry="2" fill="#427819" x="218.8" y="14"></rect><text font-size="9" font-family="monospace" fill="#c9d1d9" text-anchor="end" x="248.35615234375" y="22.61962890625"><tspan dy="0" x="248.35615234375">Makefile</tspan></text><rect width="9" height="9" rx="2" ry="2" fill="#89e051" x="218.8" y="30"></rect><text font-size="9" font-family="monospace" fill="#c9d1d9" text-anchor="end" x="232.8654296875" y="38.61962890625"><tspan dy="0" x="232.8654296875">Shell</tspan></text><rect width="9" height="9" rx="2" ry="2" fill="#3572a5" x="218.8" y="46"></rect><text font-size="9" font-family="monospace" fill="#c9d1d9" text-anchor="end" x="242.41474609375" y="54.61962890625"><tspan dy="0" x="242.41474609375">Python</tspan></text><rect width="9" height="9" rx="2" ry="2" fill="#dea584" x="218.8" y="62"></rect><text font-size="9" font-family="monospace" fill="#c9d1d9" text-anchor="end" x="231.35810546875" y="70.61962890625"><tspan dy="0" x="231.35810546875">Rust</tspan></text></svg>