<svg xmlns="http://www.w3.org/2000/svg" version="1.1" xmlns:xlink="http://www.w3.org/1999/xlink" viewBox="0 0 605.6 532.8" width="605.6" height="532.8" shape-rendering="crispEdges" style="image-rendering: pixelated;"><rect width="605.6" height="532.8" x="0" y="0" fill="#0d1117"></rect><line x1="302.8" y1="130" x2="216.4" y2="173.2" stroke-opacity="0.15" stroke-width="1" stroke="#ffffff"></line><line x1="331.6" y1="144.4" x2="245.20000000000002" y2="187.6" stroke-opacity="0.15" stroke-width="1" stroke="#ffffff"></line><line x1="360.40000000000003" y1="158.8" x2="274" y2="202" stroke-opacity="0.15" stroke-width="1" stroke="#ffffff"></line><line x1="389.20000000000005" y1="173.2" x2="302.8" y2="216.4" stroke-opacity="0.15" stroke-width="1" stroke="#ffffff"></line><line x1="302.8" y1="130" x2="389.20000000000005" y2="173.2" stroke-opacity="0.15" stroke-width="1" stroke="#ffffff"></line><line x1="274" y1="144.4" x2="360.40000000000003" y2="187.6" stroke-opacity="0.15" stroke-width="1" stroke="#ffffff"></line><line x1="245.20000000000002" y1="158.8" x2="331.6" y2="202" stroke-opacity="0.15" stroke-width="1" stroke="#ffffff"></line><line x1="216.4" y1="173.2" x2="302.8" y2="216.4" stroke-opacity="0.15" stroke-width="1" stroke="#ffffff"></line><polygon points="302.8,-4.8160000000000025 321.232,4.400000000000006 302.8,13.616000000000014 284.368,4.400000000000006" fill="#f1e05a" stroke-width="1.2" stroke="#010409"></polygon><polygon points="284.368,4.400000000000006 302.8,13.616000000000014 302.8,153.616 284.368,144.4" fill="#d3c23c" stroke-width="0.8" stroke="#010409"></polygon><polygon points="321.232,4.400000000000006 302.8,13.616000000000014 302.8,153.616 321.232,144.4" fill="#e5d44e" stroke-width="0.8" stroke="#010409"></polygon><rect width="63.6" height="18" rx="9" ry="9" fill="#161b22" stroke-width="1" stroke="#f1e05a" x="271" y="-36.816"></rect><text font-size="10" font-family="monospace" fill="#e6edf3" text-anchor="middle" x="298.21484375" y="-24.127523437500003"><tspan dy="0" x="298.21484375">Genta-ta</tspan></text><polygon points="331.6,113.15542857142857 350.03200000000004,122.37142857142858 331.6,131.58742857142857 313.168,122.37142857142858" fill="#a97bff" stroke-width="1.2" stroke="#010409"></polygon><polygon points="313.168,122.37142857142858 331.6,131.58742857142857 331.6,160.07446257825842 313.168,150.8584625782584" fill="#8b5de1" stroke-width="0.8" stroke="#010409"></polygon><polygon points="313.168,150.8584625782584 331.6,160.07446257825842 331.6,168.01600000000002 313.168,158.8" fill="#925400" stroke-width="0.8" stroke="#010409"></polygon><polygon points="350.03200000000004,122.37142857142858 331.6,131.58742857142857 331.6,160.07446257825842 350.03200000000004,150.8584625782584" fill="#9d6ff3" stroke-width="0.8" stroke="#010409"></polygon><polygon points="350.03200000000004,150.8584625782584 331.6,160.07446257825842 331.6,168.01600000000002 350.03200000000004,158.8" fill="#a4660d" stroke-width="0.8" stroke="#010409"></polygon><rect width="45" height="18" rx="9" ry="9" fill="#161b22" stroke-width="1" stroke="#a97bff" x="309.1" y="81.15542857142857"></rect><text font-size="10" font-family="monospace" fill="#e6edf3" text-anchor="middle" x="329.2640625" y="93.84390513392857"><tspan dy="0" x="329.2640625">Glens</tspan></text><polygon points="274,104.86971428571428 292.432,114.08571428571429 274,123.3017142857143 255.568,114.08571428571429" fill="#555555" stroke-width="1.2" stroke="#010409"></polygon><polygon points="255.568,114.08571428571429 274,123.3017142857143 274,166.5064211137409 255.568,157.2904211137409" fill="#373737" stroke-width="0.8" stroke="#010409"></polygon><polygon points="255.568,157.2904211137409 274,166.5064211137409 274,168.01600000000002 255.568,158.8" fill="#245a00" stroke-width="0.8" stroke="#010409"></polygon><polygon points="292.432,114.08571428571429 274,123.3017142857143 274,166.5064211137409 292.432,157.2904211137409" fill="#494949" stroke-width="0.8" stroke="#010409"></polygon><polygon points="292.432,157.2904211137409 274,166.5064211137409 274,168.01600000000002 292.432,158.8" fill="#366c0d" stroke-width="0.8" stroke="#010409"></polygon><rect width="57.4" height="18" rx="9" ry="9" fill="#161b22" stroke-width="1" stroke="#555555" x="245.3" y="72.86971428571428"></rect><text font-size="10" font-family="monospace" fill="#e6edf3" text-anchor="middle" x="272.01923828125" y="85.55819084821428"><tspan dy="0" x="272.01923828125">Ram_tes</tspan></text><polygon points="360.40000000000003,119.26971428571429 378.832,128.48571428571427 360.4,137.70171428571427 341.968,128.48571428571427" fill="#89e051" stroke-width="1.2" stroke="#010409"></polygon><polygon points="341.968,128.48571428571427 360.4,137.70171428571427 360.4,182.16674656579733 341.968,172.95074656579732" fill="#6bc233" stroke-width="0.8" stroke="#010409"></polygon><polygon points="341.968,172.95074656579732 360.4,182.16674656579733 360.4,182.416 341.968,173.2" fill="#175487" stroke-width="0.8" stroke="#010409"></polygon><polygon points="378.832,128.48571428571427 360.4,137.70171428571427 360.4,182.16674656579733 378.832,172.95074656579732" fill="#7dd445" stroke-width="0.8" stroke="#010409"></polygon><polygon points="378.832,172.95074656579732 360.4,182.16674656579733 360.4,182.416 378.832,173.2" fill="#296699" stroke-width="0.8" stroke="#010409"></polygon><rect width="51.2" height="18" rx="9" ry="9" fill="#161b22" stroke-width="1" stroke="#89e051" x="334.8" y="87.26971428571429"></rect><text font-size="10" font-family="monospace" fill="#e6edf3" text-anchor="middle" x="356.74140625" y="99.95819084821429"><tspan dy="0" x="356.74140625">Server</tspan></text><polygon points="302.8,115.12685714285715 321.232,124.34285714285713 302.8,133.55885714285714 284.368,124.34285714285713" fill="#8b949e" stroke-width="1.2" stroke="#010409"></polygon><polygon points="284.368,124.34285714285713 302.8,133.55885714285714 302.8,182.416 284.368,173.2" fill="#6d7680" stroke-width="0.8" stroke="#010409"></polygon><polygon points="321.232,124.34285714285713 302.8,133.55885714285714 302.8,182.416 321.232,173.2" fill="#7f8892" stroke-width="0.8" stroke="#010409"></polygon><rect width="88.4" height="18" rx="9" ry="9" fill="#161b22" stroke-width="1" stroke="#8b949e" x="258.6" y="83.12685714285715"></rect><text font-size="10" font-family="monospace" fill="#e6edf3" text-anchor="middle" x="295.14345703125" y="95.81533370535715"><tspan dy="0" x="295.14345703125">Git-Compiler</tspan></text><polygon points="245.20000000000002,77.84114285714287 263.632,87.05714285714285 245.20000000000002,96.27314285714286 226.76800000000003,87.05714285714285" fill="#555555" stroke-width="1.2" stroke="#010409"></polygon><polygon points="226.76800000000003,87.05714285714285 245.20000000000002,96.27314285714286 245.20000000000002,178.18835139022053 226.76800000000003,168.97235139022052" fill="#373737" stroke-width="0.8" stroke="#010409"></polygon><polygon points="226.76800000000003,168.97235139022052 245.20000000000002,178.18835139022053 245.20000000000002,182.416 226.76800000000003,173.2" fill="#245a00" stroke-width="0.8" stroke="#010409"></polygon><polygon points="263.632,87.05714285714285 245.20000000000002,96.27314285714286 245.20000000000002,178.18835139022053 263.632,168.97235139022052" fill="#494949" stroke-width="0.8" stroke="#010409"></polygon><polygon points="263.632,168.97235139022052 245.20000000000002,178.18835139022053 245.20000000000002,182.416 263.632,173.2" fill="#366c0d" stroke-width="0.8" stroke="#010409"></polygon><rect width="94.60000000000001" height="18" rx="9" ry="9" fill="#161b22" stroke-width="1" stroke="#555555" x="197.9" y="45.84114285714287"></rect><text font-size="10" font-family="monospace" fill="#e6edf3" text-anchor="middle" x="235.1294921875" y="58.52961941964287"><tspan dy="0" x="235.1294921875">Kernel-tester</tspan></text><polygon points="331.6,137.81257142857146 350.03200000000004,147.0285714285714 331.6,156.24457142857142 313.168,147.0285714285714" fill="#8b949e" stroke-width="1.2" stroke="#010409"></polygon><polygon points="313.168,147.0285714285714 331.6,156.24457142857142 331.6,196.816 313.168,187.6" fill="#6d7680" stroke-width="0.8" stroke="#010409"></polygon><polygon points="350.03200000000004,147.0285714285714 331.6,156.24457142857142 331.6,196.816 350.03200000000004,187.6" fill="#7f8892" stroke-width="0.8" stroke="#010409"></polygon><rect width="82.2" height="18" rx="9" ry="9" fill="#161b22" stroke-width="1" stroke="#8b949e" x="290.5" y="105.81257142857146"></rect><text font-size="10" font-family="monospace" fill="#e6edf3" text-anchor="middle" x="326.05224609375" y="118.50104799107146"><tspan dy="0" x="326.05224609375">Lwgjl-arm64</tspan></text><polygon points="274,75.66971428571429 292.432,84.88571428571427 274,94.10171428571428 255.568,84.88571428571427" fill="#89e051" stroke-width="1.2" stroke="#010409"></polygon><polygon points="255.568,84.88571428571427 274,94.10171428571428 274,175.6431181664475 255.568,166.42711816644749" fill="#6bc233" stroke-width="0.8" stroke="#010409"></polygon><polygon points="255.568,166.42711816644749 274,175.6431181664475 274,185.9618227100722 255.568,176.7458227100722" fill="#373737" stroke-width="0.8" stroke="#010409"></polygon><polygon points="255.568,176.7458227100722 274,185.9618227100722 274,194.9008407181772 255.568,185.68484071817718" fill="#c08766" stroke-width="0.8" stroke="#010409"></polygon><polygon points="255.568,185.68484071817718 274,194.9008407181772 274,196.816 255.568,187.6" fill="#245a00" stroke-width="0.8" stroke="#010409"></polygon><polygon points="292.432,84.88571428571427 274,94.10171428571428 274,175.6431181664475 292.432,166.42711816644749" fill="#7dd445" stroke-width="0.8" stroke="#010409"></polygon><polygon points="292.432,166.42711816644749 274,175.6431181664475 274,185.9618227100722 292.432,176.7458227100722" fill="#494949" stroke-width="0.8" stroke="#010409"></polygon><polygon points="292.432,176.7458227100722 274,185.9618227100722 274,194.9008407181772 292.432,185.68484071817718" fill="#d29978" stroke-width="0.8" stroke="#010409"></polygon><polygon points="292.432,185.68484071817718 274,194.9008407181772 274,196.816 292.432,187.6" fill="#366c0d" stroke-width="0.8" stroke="#010409"></polygon><rect width="45" height="18" rx="9" ry="9" fill="#161b22" stroke-width="1" stroke="#89e051" x="251.5" y="43.66971428571429"></rect><text font-size="10" font-family="monospace" fill="#e6edf3" text-anchor="middle" x="271.32470703125" y="56.35819084821429"><tspan dy="0" x="271.32470703125">my-ai</tspan></text><rect width="200" height="128" rx="8" ry="8" fill="#161b22" stroke-width="1" stroke="#30363d" x="381.6" y="24"></rect><text font-size="12" font-family="monospace" fill="#39d353" text-anchor="start" x="391.6" y="42.826171875"><tspan dy="0" x="391.6">Top Commits</tspan></text><text font-size="10" font-family="monospace" fill="#c9d1d9" text-anchor="start" x="391.6" y="60.6884765625"><tspan dy="0" x="391.6">1. Genta-ta</tspan></text><text font-size="10" font-family="monospace" fill="#58a6ff" text-anchor="end" x="583.035546875" y="60.6884765625"><tspan dy="0" x="583.035546875">28</tspan></text><text font-size="10" font-family="monospace" fill="#c9d1d9" text-anchor="start" x="391.6" y="80.6884765625"><tspan dy="0" x="391.6">2. my-ai</tspan></text><text font-size="10" font-family="monospace" fill="#58a6ff" text-anchor="end" x="583.035546875" y="80.6884765625"><tspan dy="0" x="583.035546875">19</tspan></text><text font-size="10" font-family="monospace" fill="#c9d1d9" text-anchor="start" x="391.6" y="100.6884765625"><tspan dy="0" x="391.6">3. Kernel-tester</tspan></text><text font-size="10" font-family="monospace" fill="#58a6ff" text-anchor="end" x="583.035546875" y="100.6884765625"><tspan dy="0" x="583.035546875">15</tspan></text><text font-size="10" font-family="monospace" fill="#c9d1d9" text-anchor="start" x="391.6" y="120.6884765625"><tspan dy="0" x="391.6">4. Git-Compiler</tspan></text><text font-size="10" font-family="monospace" fill="#58a6ff" text-anchor="end" x="577.3177734375" y="120.6884765625"><tspan dy="0" x="577.3177734375">6</tspan></text><text font-size="10" font-family="monospace" fill="#c9d1d9" text-anchor="start" x="391.6" y="140.6884765625"><tspan dy="0" x="391.6">5. Server</tspan></text><text font-size="10" font-family="monospace" fill="#58a6ff" text-anchor="end" x="577.3177734375" y="140.6884765625"><tspan dy="0" x="577.3177734375">5</tspan></text></svg>