<svg xmlns="http://www.w3.org/2000/svg" version="1.1" xmlns:xlink="http://www.w3.org/1999/xlink" viewBox="0 0 232.8 316.4" width="232.8" height="316.4" shape-rendering="crispEdges" style="image-rendering: pixelated;"><rect width="232.8" height="316.4" x="0" y="0" fill="#0d1117"></rect><line x1="116.4" y1="60" x2="30" y2="103.2" stroke-opacity="0.15" stroke-width="1" stroke="#ffffff"></line><line x1="145.20000000000002" y1="74.4" x2="58.800000000000004" y2="117.6" stroke-opacity="0.15" stroke-width="1" stroke="#ffffff"></line><line x1="174" y1="88.8" x2="87.60000000000001" y2="132" stroke-opacity="0.15" stroke-width="1" stroke="#ffffff"></line><line x1="202.8" y1="103.2" x2="116.4" y2="146.4" stroke-opacity="0.15" stroke-width="1" stroke="#ffffff"></line><line x1="116.4" y1="60" x2="202.8" y2="103.2" stroke-opacity="0.15" stroke-width="1" stroke="#ffffff"></line><line x1="87.60000000000001" y1="74.4" x2="174" y2="117.6" stroke-opacity="0.15" stroke-width="1" stroke="#ffffff"></line><line x1="58.800000000000004" y1="88.8" x2="145.20000000000002" y2="132" stroke-opacity="0.15" stroke-width="1" stroke="#ffffff"></line><line x1="30" y1="103.2" x2="116.4" y2="146.4" stroke-opacity="0.15" stroke-width="1" stroke="#ffffff"></line><polygon points="116.4,-74.816 134.83200000000002,-65.6 116.4,-56.384 97.968,-65.6" fill="#f1e05a" stroke-width="1.2" stroke="#010409"></polygon><polygon points="97.968,-65.6 116.4,-56.384 116.4,83.616 97.968,74.4" fill="#d3c23c" stroke-width="0.8" stroke="#010409"></polygon><polygon points="134.83200000000002,-65.6 116.4,-56.384 116.4,83.616 134.83200000000002,74.4" fill="#e5d44e" stroke-width="0.8" stroke="#010409"></polygon><rect width="46.8" height="13" rx="6" ry="6" fill="#161b22" stroke-width="0.8" stroke="#f1e05a" x="93" y="-97.816"></rect><text font-size="7" font-family="monospace" fill="#e6edf3" text-anchor="middle" x="112.150390625" y="-89.33406640625"><tspan dy="0" x="112.150390625">Genta-ta</tspan></text><polygon points="145.20000000000002,45.038545454545456 163.632,54.25454545454545 145.20000000000002,63.47054545454546 126.768,54.25454545454545" fill="#a97bff" stroke-width="1.2" stroke="#010409"></polygon><polygon points="126.768,54.25454545454545 145.20000000000002,63.47054545454546 145.20000000000002,90.48498768562116 126.768,81.26898768562116" fill="#8b5de1" stroke-width="0.8" stroke="#010409"></polygon><polygon points="126.768,81.26898768562116 145.20000000000002,90.48498768562116 145.20000000000002,98.016 126.768,88.8" fill="#925400" stroke-width="0.8" stroke="#010409"></polygon><polygon points="163.632,54.25454545454545 145.20000000000002,63.47054545454546 145.20000000000002,90.48498768562116 163.632,81.26898768562116" fill="#9d6ff3" stroke-width="0.8" stroke="#010409"></polygon><polygon points="163.632,81.26898768562116 145.20000000000002,90.48498768562116 145.20000000000002,98.016 163.632,88.8" fill="#a4660d" stroke-width="0.8" stroke="#010409"></polygon><rect width="33" height="13" rx="6" ry="6" fill="#161b22" stroke-width="0.8" stroke="#a97bff" x="128.70000000000002" y="22.038545454545456"></rect><text font-size="7" font-family="monospace" fill="#e6edf3" text-anchor="middle" x="142.91484375000002" y="30.520479048295456"><tspan dy="0" x="142.91484375000002">Glens</tspan></text><polygon points="87.60000000000001,38.008242424242425 106.03200000000001,47.22424242424242 87.60000000000001,56.44024242424243 69.168,47.22424242424242" fill="#555555" stroke-width="1.2" stroke="#010409"></polygon><polygon points="69.168,47.22424242424242 87.60000000000001,56.44024242424243 87.60000000000001,96.6123795504277 69.168,87.3963795504277" fill="#373737" stroke-width="0.8" stroke="#010409"></polygon><polygon points="69.168,87.3963795504277 87.60000000000001,96.6123795504277 87.60000000000001,98.016 69.168,88.8" fill="#245a00" stroke-width="0.8" stroke="#010409"></polygon><polygon points="106.03200000000001,47.22424242424242 87.60000000000001,56.44024242424243 87.60000000000001,96.6123795504277 106.03200000000001,87.3963795504277" fill="#494949" stroke-width="0.8" stroke="#010409"></polygon><polygon points="106.03200000000001,87.3963795504277 87.60000000000001,96.6123795504277 87.60000000000001,98.016 106.03200000000001,88.8" fill="#366c0d" stroke-width="0.8" stroke="#010409"></polygon><rect width="42.199999999999996" height="13" rx="6" ry="6" fill="#161b22" stroke-width="0.8" stroke="#555555" x="66.50000000000001" y="15.008242424242425"></rect><text font-size="7" font-family="monospace" fill="#e6edf3" text-anchor="middle" x="85.30346679687501" y="23.490176017992425"><tspan dy="0" x="85.30346679687501">Ram_tes</tspan></text><polygon points="174,52.40824242424243 192.43200000000002,61.624242424242425 174,70.84024242424242 155.568,61.624242424242425" fill="#89e051" stroke-width="1.2" stroke="#010409"></polygon><polygon points="155.568,61.624242424242425 174,70.84024242424242 174,112.18424184508834 155.568,102.96824184508836" fill="#6bc233" stroke-width="0.8" stroke="#010409"></polygon><polygon points="155.568,102.96824184508836 174,112.18424184508834 174,112.416 155.568,103.2" fill="#175487" stroke-width="0.8" stroke="#010409"></polygon><polygon points="192.43200000000002,61.624242424242425 174,70.84024242424242 174,112.18424184508834 192.43200000000002,102.96824184508836" fill="#7dd445" stroke-width="0.8" stroke="#010409"></polygon><polygon points="192.43200000000002,102.96824184508836 174,112.18424184508834 174,112.416 192.43200000000002,103.2" fill="#296699" stroke-width="0.8" stroke="#010409"></polygon><rect width="37.599999999999994" height="13" rx="6" ry="6" fill="#161b22" stroke-width="0.8" stroke="#89e051" x="155.2" y="29.40824242424243"></rect><text font-size="7" font-family="monospace" fill="#e6edf3" text-anchor="middle" x="170.658984375" y="37.89017601799243"><tspan dy="0" x="170.658984375">Server</tspan></text><polygon points="116.4,48.893090909090915 134.83200000000002,58.10909090909091 116.4,67.3250909090909 97.968,58.10909090909091" fill="#8b949e" stroke-width="1.2" stroke="#010409"></polygon><polygon points="97.968,58.10909090909091 116.4,67.3250909090909 116.4,112.416 97.968,103.2" fill="#6d7680" stroke-width="0.8" stroke="#010409"></polygon><polygon points="134.83200000000002,58.10909090909091 116.4,67.3250909090909 116.4,112.416 134.83200000000002,103.2" fill="#7f8892" stroke-width="0.8" stroke="#010409"></polygon><rect width="65.19999999999999" height="13" rx="6" ry="6" fill="#161b22" stroke-width="0.8" stroke="#8b949e" x="83.80000000000001" y="25.893090909090915"></rect><text font-size="7" font-family="monospace" fill="#e6edf3" text-anchor="middle" x="109.48041992187501" y="34.375024502840915"><tspan dy="0" x="109.48041992187501">Git-Compiler</tspan></text><polygon points="58.800000000000004,17.25672727272729 77.232,26.472727272727283 58.80000000000001,35.68872727272728 40.36800000000001,26.472727272727283" fill="#555555" stroke-width="1.2" stroke="#010409"></polygon><polygon points="40.36800000000001,26.472727272727283 58.80000000000001,35.68872727272728 58.80000000000001,108.65044173276388 40.36800000000001,99.43444173276389" fill="#373737" stroke-width="0.8" stroke="#010409"></polygon><polygon points="40.36800000000001,99.43444173276389 58.80000000000001,108.65044173276388 58.80000000000001,112.416 40.36800000000001,103.2" fill="#245a00" stroke-width="0.8" stroke="#010409"></polygon><polygon points="77.232,26.472727272727283 58.80000000000001,35.68872727272728 58.80000000000001,108.65044173276388 77.232,99.43444173276389" fill="#494949" stroke-width="0.8" stroke="#010409"></polygon><polygon points="77.232,99.43444173276389 58.80000000000001,108.65044173276388 58.80000000000001,112.416 77.232,103.2" fill="#366c0d" stroke-width="0.8" stroke="#010409"></polygon><rect width="65.19999999999999" height="13" rx="6" ry="6" fill="#161b22" stroke-width="0.8" stroke="#555555" x="26.20000000000001" y="-5.743272727272711"></rect><text font-size="7" font-family="monospace" fill="#e6edf3" text-anchor="middle" x="51.71293945312501" y="2.7386608664772893"><tspan dy="0" x="51.71293945312501">Kernel-test…</tspan></text><polygon points="145.20000000000002,70.32339393939395 163.632,79.53939393939393 145.2,88.75539393939394 126.76800000000001,79.53939393939393" fill="#8b949e" stroke-width="1.2" stroke="#010409"></polygon><polygon points="126.76800000000001,79.53939393939393 145.2,88.75539393939394 145.2,126.816 126.76800000000001,117.6" fill="#6d7680" stroke-width="0.8" stroke="#010409"></polygon><polygon points="163.632,79.53939393939393 145.2,88.75539393939394 145.2,126.816 163.632,117.6" fill="#7f8892" stroke-width="0.8" stroke="#010409"></polygon><rect width="60.599999999999994" height="13" rx="6" ry="6" fill="#161b22" stroke-width="0.8" stroke="#8b949e" x="114.90000000000002" y="47.32339393939395"></rect><text font-size="7" font-family="monospace" fill="#e6edf3" text-anchor="middle" x="139.88657226562503" y="55.80532753314395"><tspan dy="0" x="139.88657226562503">Lwgjl-arm64</tspan></text><polygon points="87.6,17.59612121212122 106.032,26.8121212121212 87.60000000000001,36.028121212121206 69.168,26.8121212121212" fill="#89e051" stroke-width="1.2" stroke="#010409"></polygon><polygon points="69.168,26.8121212121212 87.60000000000001,36.028121212121206 87.60000000000001,108.10155325944017 69.168,98.88555325944016" fill="#6bc233" stroke-width="0.8" stroke="#010409"></polygon><polygon points="69.168,98.88555325944016 87.60000000000001,108.10155325944017 87.60000000000001,117.2221277816679 69.168,108.00612778166789" fill="#373737" stroke-width="0.8" stroke="#010409"></polygon><polygon points="69.168,108.00612778166789 87.60000000000001,117.2221277816679 87.60000000000001,125.1232145463654 69.168,115.9072145463654" fill="#c08766" stroke-width="0.8" stroke="#010409"></polygon><polygon points="69.168,115.9072145463654 87.60000000000001,125.1232145463654 87.60000000000001,126.816 69.168,117.6" fill="#245a00" stroke-width="0.8" stroke="#010409"></polygon><polygon points="106.032,26.8121212121212 87.60000000000001,36.028121212121206 87.60000000000001,108.10155325944017 106.032,98.88555325944016" fill="#7dd445" stroke-width="0.8" stroke="#010409"></polygon><polygon points="106.032,98.88555325944016 87.60000000000001,108.10155325944017 87.60000000000001,117.2221277816679 106.032,108.00612778166789" fill="#494949" stroke-width="0.8" stroke="#010409"></polygon><polygon points="106.032,108.00612778166789 87.60000000000001,117.2221277816679 87.60000000000001,125.1232145463654 106.032,115.9072145463654" fill="#d29978" stroke-width="0.8" stroke="#010409"></polygon><polygon points="106.032,115.9072145463654 87.60000000000001,125.1232145463654 87.60000000000001,126.816 106.032,117.6" fill="#366c0d" stroke-width="0.8" stroke="#010409"></polygon><rect width="33" height="13" rx="6" ry="6" fill="#161b22" stroke-width="0.8" stroke="#89e051" x="71.1" y="-5.4038787878787815"></rect><text font-size="7" font-family="monospace" fill="#e6edf3" text-anchor="middle" x="85.077294921875" y="3.0780548058712185"><tspan dy="0" x="85.077294921875">my-ai</tspan></text><rect width="170" height="111" rx="8" ry="8" fill="#161b22" stroke-width="1" stroke="#30363d" x="16" y="189.39999999999998"></rect><text font-size="11" font-family="monospace" fill="#39d353" text-anchor="start" x="24" y="206.15732421874998"><tspan dy="0" x="24">Top Commits</tspan></text><text font-size="9" font-family="monospace" fill="#c9d1d9" text-anchor="start" x="24" y="221.01962890624998"><tspan dy="0" x="24">1. Genta-ta</tspan></text><text font-size="9" font-family="monospace" fill="#58a6ff" text-anchor="end" x="188.2919921875" y="221.01962890624998"><tspan dy="0" x="188.2919921875">33</tspan></text><text font-size="9" font-family="monospace" fill="#c9d1d9" text-anchor="start" x="24" y="238.01962890624998"><tspan dy="0" x="24">2. my-ai</tspan></text><text font-size="9" font-family="monospace" fill="#58a6ff" text-anchor="end" x="188.2919921875" y="238.01962890624998"><tspan dy="0" x="188.2919921875">19</tspan></text><text font-size="9" font-family="monospace" fill="#c9d1d9" text-anchor="start" x="24" y="255.01962890624998"><tspan dy="0" x="24">3. Kernel-tester</tspan></text><text font-size="9" font-family="monospace" fill="#58a6ff" text-anchor="end" x="188.2919921875" y="255.01962890624998"><tspan dy="0" x="188.2919921875">15</tspan></text><text font-size="9" font-family="monospace" fill="#c9d1d9" text-anchor="start" x="24" y="272.01962890625"><tspan dy="0" x="24">4. Git-Compiler</tspan></text><text font-size="9" font-family="monospace" fill="#58a6ff" text-anchor="end" x="183.14599609375" y="272.01962890625"><tspan dy="0" x="183.14599609375">6</tspan></text><text font-size="9" font-family="monospace" fill="#c9d1d9" text-anchor="start" x="24" y="289.01962890625"><tspan dy="0" x="24">5. Server</tspan></text><text font-size="9" font-family="monospace" fill="#58a6ff" text-anchor="end" x="183.14599609375" y="289.01962890625"><tspan dy="0" x="183.14599609375">5</tspan></text><rect width="9" height="9" rx="2" ry="2" fill="#f1e05a" x="14" y="14"></rect><text font-size="9" font-family="monospace" fill="#c9d1d9" text-anchor="start" x="27" y="22.61962890625"><tspan dy="0" x="27">JavaScript</tspan></text><rect width="9" height="9" rx="2" ry="2" fill="#a97bff" x="14" y="30"></rect><text font-size="9" font-family="monospace" fill="#c9d1d9" text-anchor="start" x="27" y="38.61962890625"><tspan dy="0" x="27">Kotlin</tspan></text><rect width="9" height="9" rx="2" ry="2" fill="#b07219" x="14" y="46"></rect><text font-size="9" font-family="monospace" fill="#c9d1d9" text-anchor="start" x="27" y="54.61962890625"><tspan dy="0" x="27">Java</tspan></text><rect width="9" height="9" rx="2" ry="2" fill="#555555" x="14" y="62"></rect><text font-size="9" font-family="monospace" fill="#c9d1d9" text-anchor="start" x="27" y="70.61962890625"><tspan dy="0" x="27">C</tspan></text><rect width="9" height="9" rx="2" ry="2" fill="#427819" x="218.8" y="14"></rect><text font-size="9" font-family="monospace" fill="#c9d1d9" text-anchor="end" x="248.35615234375" y="22.61962890625"><tspan dy="0" x="248.35615234375">Makefile</tspan></text><rect width="9" height="9" rx="2" ry="2" fill="#89e051" x="218.8" y="30"></rect><text font-size="9" font-family="monospace" fill="#c9d1d9" text-anchor="end" x="232.8654296875" y="38.61962890625"><tspan dy="0" x="232.8654296875">Shell</tspan></text><rect width="9" height="9" rx="2" ry="2" fill="#3572a5" x="218.8" y="46"></rect><text font-size="9" font-family="monospace" fill="#c9d1d9" text-anchor="end" x="242.41474609375" y="54.61962890625"><tspan dy="0" x="242.41474609375">Python</tspan></text><rect width="9" height="9" rx="2" ry="2" fill="#dea584" x="218.8" y="62"></rect><text font-size="9" font-family="monospace" fill="#c9d1d9" text-anchor="end" x="231.35810546875" y="70.61962890625"><tspan dy="0" x="231.35810546875">Rust</tspan></text></svg>