<svg xmlns="http://www.w3.org/2000/svg" version="1.1" xmlns:xlink="http://www.w3.org/1999/xlink" viewBox="0 0 261.6 330.8" width="261.6" height="330.8" shape-rendering="crispEdges" style="image-rendering: pixelated;"><rect width="261.6" height="330.8" x="0" y="0" fill="#0d1117"></rect><line x1="130.8" y1="60" x2="44.400000000000006" y2="103.2" stroke-opacity="0.15" stroke-width="1" stroke="#ffffff"></line><line x1="159.60000000000002" y1="74.4" x2="73.20000000000002" y2="117.6" stroke-opacity="0.15" stroke-width="1" stroke="#ffffff"></line><line x1="188.4" y1="88.8" x2="102.00000000000001" y2="132" stroke-opacity="0.15" stroke-width="1" stroke="#ffffff"></line><line x1="217.20000000000002" y1="103.2" x2="130.8" y2="146.4" stroke-opacity="0.15" stroke-width="1" stroke="#ffffff"></line><line x1="246" y1="117.6" x2="159.60000000000002" y2="160.8" stroke-opacity="0.15" stroke-width="1" stroke="#ffffff"></line><line x1="130.8" y1="60" x2="246" y2="117.6" stroke-opacity="0.15" stroke-width="1" stroke="#ffffff"></line><line x1="102.00000000000001" y1="74.4" x2="217.20000000000002" y2="132" stroke-opacity="0.15" stroke-width="1" stroke="#ffffff"></line><line x1="73.20000000000002" y1="88.8" x2="188.4" y2="146.4" stroke-opacity="0.15" stroke-width="1" stroke="#ffffff"></line><line x1="44.400000000000006" y1="103.2" x2="159.60000000000002" y2="160.8" stroke-opacity="0.15" stroke-width="1" stroke="#ffffff"></line><polygon points="130.8,-74.816 149.23200000000003,-65.6 130.8,-56.384 112.36800000000001,-65.6" fill="#f1e05a" stroke-width="1.2" stroke="#010409"></polygon><polygon points="112.36800000000001,-65.6 130.8,-56.384 130.8,83.616 112.36800000000001,74.4" fill="#d3c23c" stroke-width="0.8" stroke="#010409"></polygon><polygon points="149.23200000000003,-65.6 130.8,-56.384 130.8,83.616 149.23200000000003,74.4" fill="#e5d44e" stroke-width="0.8" stroke="#010409"></polygon><rect width="46.8" height="13" rx="6" ry="6" fill="#161b22" stroke-width="0.8" stroke="#f1e05a" x="107.4" y="-97.816"></rect><text font-size="7" font-family="monospace" fill="#e6edf3" text-anchor="middle" x="126.550390625" y="-89.33406640625"><tspan dy="0" x="126.550390625">Genta-ta</tspan></text><polygon points="159.60000000000002,51.206641509433965 178.032,60.42264150943396 159.60000000000002,69.63864150943397 141.168,60.42264150943396" fill="#a97bff" stroke-width="1.2" stroke="#010409"></polygon><polygon points="141.168,60.42264150943396 159.60000000000002,69.63864150943397 159.60000000000002,92.27870399144983 141.168,83.06270399144982" fill="#8b5de1" stroke-width="0.8" stroke="#010409"></polygon><polygon points="141.168,83.06270399144982 159.60000000000002,92.27870399144983 159.60000000000002,95.66667620339541 141.168,86.4506762033954" fill="#6d7680" stroke-width="0.8" stroke="#010409"></polygon><polygon points="141.168,86.4506762033954 159.60000000000002,95.66667620339541 159.60000000000002,98.016 141.168,88.8" fill="#6bc233" stroke-width="0.8" stroke="#010409"></polygon><polygon points="178.032,60.42264150943396 159.60000000000002,69.63864150943397 159.60000000000002,92.27870399144983 178.032,83.06270399144982" fill="#9d6ff3" stroke-width="0.8" stroke="#010409"></polygon><polygon points="178.032,83.06270399144982 159.60000000000002,92.27870399144983 159.60000000000002,95.66667620339541 178.032,86.4506762033954" fill="#7f8892" stroke-width="0.8" stroke="#010409"></polygon><polygon points="178.032,86.4506762033954 159.60000000000002,95.66667620339541 159.60000000000002,98.016 178.032,88.8" fill="#7dd445" stroke-width="0.8" stroke="#010409"></polygon><rect width="56" height="13" rx="6" ry="6" fill="#161b22" stroke-width="0.8" stroke="#a97bff" x="131.60000000000002" y="28.206641509433965"></rect><text font-size="7" font-family="monospace" fill="#e6edf3" text-anchor="middle" x="155.40908203125002" y="36.688575103183965"><tspan dy="0" x="155.40908203125002">MCP-server</tspan></text><polygon points="102.00000000000001,44.64060377358491 120.43200000000002,53.8566037735849 102.00000000000001,63.07260377358491 83.56800000000001,53.8566037735849" fill="#89e051" stroke-width="1.2" stroke="#010409"></polygon><polygon points="83.56800000000001,53.8566037735849 102.00000000000001,63.07260377358491 102.00000000000001,97.82121300132599 83.56800000000001,88.60521300132598" fill="#6bc233" stroke-width="0.8" stroke="#010409"></polygon><polygon points="83.56800000000001,88.60521300132598 102.00000000000001,97.82121300132599 102.00000000000001,98.016 83.56800000000001,88.8" fill="#175487" stroke-width="0.8" stroke="#010409"></polygon><polygon points="120.43200000000002,53.8566037735849 102.00000000000001,63.07260377358491 102.00000000000001,97.82121300132599 120.43200000000002,88.60521300132598" fill="#7dd445" stroke-width="0.8" stroke="#010409"></polygon><polygon points="120.43200000000002,88.60521300132598 102.00000000000001,97.82121300132599 102.00000000000001,98.016 120.43200000000002,88.8" fill="#296699" stroke-width="0.8" stroke="#010409"></polygon><rect width="37.599999999999994" height="13" rx="6" ry="6" fill="#161b22" stroke-width="0.8" stroke="#89e051" x="83.20000000000002" y="21.640603773584907"></rect><text font-size="7" font-family="monospace" fill="#e6edf3" text-anchor="middle" x="98.65898437500002" y="30.122537367334907"><tspan dy="0" x="98.65898437500002">Server</tspan></text><polygon points="188.4,61.22928301886793 206.832,70.44528301886793 188.4,79.66128301886792 169.96800000000002,70.44528301886793" fill="#a97bff" stroke-width="1.2" stroke="#010409"></polygon><polygon points="169.96800000000002,70.44528301886793 188.4,79.66128301886792 188.4,111.81947795434314 169.96800000000002,102.60347795434315" fill="#8b5de1" stroke-width="0.8" stroke="#010409"></polygon><polygon points="169.96800000000002,102.60347795434315 188.4,111.81947795434314 188.4,112.17173450716638 169.96800000000002,102.95573450716637" fill="#6d7680" stroke-width="0.8" stroke="#010409"></polygon><polygon points="169.96800000000002,102.95573450716637 188.4,112.17173450716638 188.4,112.416 169.96800000000002,103.2" fill="#6bc233" stroke-width="0.8" stroke="#010409"></polygon><polygon points="206.832,70.44528301886793 188.4,79.66128301886792 188.4,111.81947795434314 206.832,102.60347795434315" fill="#9d6ff3" stroke-width="0.8" stroke="#010409"></polygon><polygon points="206.832,102.60347795434315 188.4,111.81947795434314 188.4,112.17173450716638 206.832,102.95573450716637" fill="#7f8892" stroke-width="0.8" stroke="#010409"></polygon><polygon points="206.832,102.95573450716637 188.4,112.17173450716638 188.4,112.416 206.832,103.2" fill="#7dd445" stroke-width="0.8" stroke="#010409"></polygon><rect width="56" height="13" rx="6" ry="6" fill="#161b22" stroke-width="0.8" stroke="#a97bff" x="160.4" y="38.22928301886793"></rect><text font-size="7" font-family="monospace" fill="#e6edf3" text-anchor="middle" x="180.671484375" y="46.71121661261793"><tspan dy="0" x="180.671484375">Ai-copilot</tspan></text><polygon points="130.8,59.04060377358491 149.23200000000003,68.25660377358491 130.8,77.4726037735849 112.36800000000001,68.25660377358491" fill="#555555" stroke-width="1.2" stroke="#010409"></polygon><polygon points="112.36800000000001,68.25660377358491 130.8,77.4726037735849 130.8,111.23629171852053 112.36800000000001,102.02029171852053" fill="#373737" stroke-width="0.8" stroke="#010409"></polygon><polygon points="112.36800000000001,102.02029171852053 130.8,111.23629171852053 130.8,112.416 112.36800000000001,103.2" fill="#245a00" stroke-width="0.8" stroke="#010409"></polygon><polygon points="149.23200000000003,68.25660377358491 130.8,77.4726037735849 130.8,111.23629171852053 149.23200000000003,102.02029171852053" fill="#494949" stroke-width="0.8" stroke="#010409"></polygon><polygon points="149.23200000000003,102.02029171852053 130.8,111.23629171852053 130.8,112.416 149.23200000000003,103.2" fill="#366c0d" stroke-width="0.8" stroke="#010409"></polygon><rect width="42.199999999999996" height="13" rx="6" ry="6" fill="#161b22" stroke-width="0.8" stroke="#555555" x="109.70000000000002" y="36.04060377358491"></rect><text font-size="7" font-family="monospace" fill="#e6edf3" text-anchor="middle" x="128.50346679687502" y="44.52253736733491"><tspan dy="0" x="128.50346679687502">Ram_tes</tspan></text><polygon points="73.20000000000002,37.15381132075473 91.632,46.36981132075472 73.20000000000002,55.585811320754715 54.768000000000015,46.36981132075472" fill="#555555" stroke-width="1.2" stroke="#010409"></polygon><polygon points="54.768000000000015,46.36981132075472 73.20000000000002,55.585811320754715 73.20000000000002,109.62693453210079 54.768000000000015,100.4109345321008" fill="#373737" stroke-width="0.8" stroke="#010409"></polygon><polygon points="54.768000000000015,100.4109345321008 73.20000000000002,109.62693453210079 73.20000000000002,112.416 54.768000000000015,103.2" fill="#245a00" stroke-width="0.8" stroke="#010409"></polygon><polygon points="91.632,46.36981132075472 73.20000000000002,55.585811320754715 73.20000000000002,109.62693453210079 91.632,100.4109345321008" fill="#494949" stroke-width="0.8" stroke="#010409"></polygon><polygon points="91.632,100.4109345321008 73.20000000000002,109.62693453210079 73.20000000000002,112.416 91.632,103.2" fill="#366c0d" stroke-width="0.8" stroke="#010409"></polygon><rect width="65.19999999999999" height="13" rx="6" ry="6" fill="#161b22" stroke-width="0.8" stroke="#555555" x="40.60000000000002" y="14.153811320754727"></rect><text font-size="7" font-family="monospace" fill="#e6edf3" text-anchor="middle" x="66.11293945312502" y="22.635744914504727"><tspan dy="0" x="66.11293945312502">Kernel-test…</tspan></text><polygon points="217.20000000000002,75.62928301886794 235.632,84.84528301886792 217.20000000000002,94.06128301886793 198.76800000000003,84.84528301886792" fill="#a97bff" stroke-width="1.2" stroke="#010409"></polygon><polygon points="198.76800000000003,84.84528301886792 217.20000000000002,94.06128301886793 217.20000000000002,119.69141419646229 198.76800000000003,110.47541419646228" fill="#8b5de1" stroke-width="0.8" stroke="#010409"></polygon><polygon points="198.76800000000003,110.47541419646228 217.20000000000002,119.69141419646229 217.20000000000002,126.816 198.76800000000003,117.6" fill="#925400" stroke-width="0.8" stroke="#010409"></polygon><polygon points="235.632,84.84528301886792 217.20000000000002,94.06128301886793 217.20000000000002,119.69141419646229 235.632,110.47541419646228" fill="#9d6ff3" stroke-width="0.8" stroke="#010409"></polygon><polygon points="235.632,110.47541419646228 217.20000000000002,119.69141419646229 217.20000000000002,126.816 235.632,117.6" fill="#a4660d" stroke-width="0.8" stroke="#010409"></polygon><rect width="33" height="13" rx="6" ry="6" fill="#161b22" stroke-width="0.8" stroke="#a97bff" x="200.70000000000002" y="52.62928301886794"></rect><text font-size="7" font-family="monospace" fill="#e6edf3" text-anchor="middle" x="214.91484375000002" y="61.11121661261794"><tspan dy="0" x="214.91484375000002">Glens</tspan></text><polygon points="159.60000000000002,71.2519245283019 178.032,80.46792452830188 159.6,89.68392452830189 141.168,80.46792452830188" fill="#8b949e" stroke-width="1.2" stroke="#010409"></polygon><polygon points="141.168,80.46792452830188 159.6,89.68392452830189 159.6,126.816 141.168,117.6" fill="#6d7680" stroke-width="0.8" stroke="#010409"></polygon><polygon points="178.032,80.46792452830188 159.6,89.68392452830189 159.6,126.816 178.032,117.6" fill="#7f8892" stroke-width="0.8" stroke="#010409"></polygon><rect width="65.19999999999999" height="13" rx="6" ry="6" fill="#161b22" stroke-width="0.8" stroke="#8b949e" x="127.00000000000003" y="48.2519245283019"></rect><text font-size="7" font-family="monospace" fill="#e6edf3" text-anchor="middle" x="152.68041992187503" y="56.7338581220519"><tspan dy="0" x="152.68041992187503">Git-Compiler</tspan></text><polygon points="102,42.799094339622656 120.432,52.015094339622635 102.00000000000001,61.23109433962264 83.56800000000001,52.015094339622635" fill="#89e051" stroke-width="1.2" stroke="#010409"></polygon><polygon points="83.56800000000001,52.015094339622635 102.00000000000001,61.23109433962264 102.00000000000001,113.29673685217941 83.56800000000001,104.0807368521794" fill="#6bc233" stroke-width="0.8" stroke="#010409"></polygon><polygon points="83.56800000000001,104.0807368521794 102.00000000000001,113.29673685217941 102.00000000000001,119.88541397070031 83.56800000000001,110.6694139707003" fill="#373737" stroke-width="0.8" stroke="#010409"></polygon><polygon points="83.56800000000001,110.6694139707003 102.00000000000001,119.88541397070031 102.00000000000001,125.5931365983858 83.56800000000001,116.37713659838579" fill="#c08766" stroke-width="0.8" stroke="#010409"></polygon><polygon points="83.56800000000001,116.37713659838579 102.00000000000001,125.5931365983858 102.00000000000001,126.816 83.56800000000001,117.6" fill="#245a00" stroke-width="0.8" stroke="#010409"></polygon><polygon points="120.432,52.015094339622635 102.00000000000001,61.23109433962264 102.00000000000001,113.29673685217941 120.432,104.0807368521794" fill="#7dd445" stroke-width="0.8" stroke="#010409"></polygon><polygon points="120.432,104.0807368521794 102.00000000000001,113.29673685217941 102.00000000000001,119.88541397070031 120.432,110.6694139707003" fill="#494949" stroke-width="0.8" stroke="#010409"></polygon><polygon points="120.432,110.6694139707003 102.00000000000001,119.88541397070031 102.00000000000001,125.5931365983858 120.432,116.37713659838579" fill="#d29978" stroke-width="0.8" stroke="#010409"></polygon><polygon points="120.432,116.37713659838579 102.00000000000001,125.5931365983858 102.00000000000001,126.816 120.432,117.6" fill="#366c0d" stroke-width="0.8" stroke="#010409"></polygon><rect width="33" height="13" rx="6" ry="6" fill="#161b22" stroke-width="0.8" stroke="#89e051" x="85.5" y="19.799094339622656"></rect><text font-size="7" font-family="monospace" fill="#e6edf3" text-anchor="middle" x="99.477294921875" y="28.281027933372656"><tspan dy="0" x="99.477294921875">my-ai</tspan></text><polygon points="188.4,90.02928301886793 206.832,99.24528301886792 188.4,108.46128301886793 169.96800000000002,99.24528301886792" fill="#8b949e" stroke-width="1.2" stroke="#010409"></polygon><polygon points="169.96800000000002,99.24528301886792 188.4,108.46128301886793 188.4,141.216 169.96800000000002,132" fill="#6d7680" stroke-width="0.8" stroke="#010409"></polygon><polygon points="206.832,99.24528301886792 188.4,108.46128301886793 188.4,141.216 206.832,132" fill="#7f8892" stroke-width="0.8" stroke="#010409"></polygon><rect width="60.599999999999994" height="13" rx="6" ry="6" fill="#161b22" stroke-width="0.8" stroke="#8b949e" x="158.10000000000002" y="67.02928301886793"></rect><text font-size="7" font-family="monospace" fill="#e6edf3" text-anchor="middle" x="183.08657226562502" y="75.51121661261793"><tspan dy="0" x="183.08657226562502">Lwgjl-arm64</tspan></text><rect width="170" height="111" rx="8" ry="8" fill="#161b22" stroke-width="1" stroke="#30363d" x="16" y="203.8"></rect><text font-size="11" font-family="monospace" fill="#39d353" text-anchor="start" x="24" y="220.55732421875"><tspan dy="0" x="24">Top Commits</tspan></text><text font-size="9" font-family="monospace" fill="#c9d1d9" text-anchor="start" x="24" y="235.41962890625"><tspan dy="0" x="24">1. Genta-ta</tspan></text><text font-size="9" font-family="monospace" fill="#58a6ff" text-anchor="end" x="188.2919921875" y="235.41962890625"><tspan dy="0" x="188.2919921875">53</tspan></text><text font-size="9" font-family="monospace" fill="#c9d1d9" text-anchor="start" x="24" y="252.41962890625"><tspan dy="0" x="24">2. my-ai</tspan></text><text font-size="9" font-family="monospace" fill="#58a6ff" text-anchor="end" x="188.2919921875" y="252.41962890625"><tspan dy="0" x="188.2919921875">19</tspan></text><text font-size="9" font-family="monospace" fill="#c9d1d9" text-anchor="start" x="24" y="269.41962890625"><tspan dy="0" x="24">3. Kernel-tester</tspan></text><text font-size="9" font-family="monospace" fill="#58a6ff" text-anchor="end" x="188.2919921875" y="269.41962890625"><tspan dy="0" x="188.2919921875">15</tspan></text><text font-size="9" font-family="monospace" fill="#c9d1d9" text-anchor="start" x="24" y="286.41962890625"><tspan dy="0" x="24">4. Git-Compiler</tspan></text><text font-size="9" font-family="monospace" fill="#58a6ff" text-anchor="end" x="183.14599609375" y="286.41962890625"><tspan dy="0" x="183.14599609375">6</tspan></text><text font-size="9" font-family="monospace" fill="#c9d1d9" text-anchor="start" x="24" y="303.41962890625"><tspan dy="0" x="24">5. Server</tspan></text><text font-size="9" font-family="monospace" fill="#58a6ff" text-anchor="end" x="183.14599609375" y="303.41962890625"><tspan dy="0" x="183.14599609375">5</tspan></text><rect width="9" height="9" rx="2" ry="2" fill="#f1e05a" x="14" y="14"></rect><text font-size="9" font-family="monospace" fill="#c9d1d9" text-anchor="start" x="27" y="22.61962890625"><tspan dy="0" x="27">JavaScript</tspan></text><rect width="9" height="9" rx="2" ry="2" fill="#a97bff" x="14" y="30"></rect><text font-size="9" font-family="monospace" fill="#c9d1d9" text-anchor="start" x="27" y="38.61962890625"><tspan dy="0" x="27">Kotlin</tspan></text><rect width="9" height="9" rx="2" ry="2" fill="#8b949e" x="14" y="46"></rect><text font-size="9" font-family="monospace" fill="#c9d1d9" text-anchor="start" x="27" y="54.61962890625"><tspan dy="0" x="27">Batchfile</tspan></text><rect width="9" height="9" rx="2" ry="2" fill="#89e051" x="14" y="62"></rect><text font-size="9" font-family="monospace" fill="#c9d1d9" text-anchor="start" x="27" y="70.61962890625"><tspan dy="0" x="27">Shell</tspan></text><rect width="9" height="9" rx="2" ry="2" fill="#3572a5" x="14" y="78"></rect><text font-size="9" font-family="monospace" fill="#c9d1d9" text-anchor="start" x="27" y="86.61962890625"><tspan dy="0" x="27">Python</tspan></text><rect width="9" height="9" rx="2" ry="2" fill="#555555" x="247.60000000000002" y="14"></rect><text font-size="9" font-family="monospace" fill="#c9d1d9" text-anchor="end" x="247.27773437500002" y="22.61962890625"><tspan dy="0" x="247.27773437500002">C</tspan></text><rect width="9" height="9" rx="2" ry="2" fill="#427819" x="247.60000000000002" y="30"></rect><text font-size="9" font-family="monospace" fill="#c9d1d9" text-anchor="end" x="277.15615234375" y="38.61962890625"><tspan dy="0" x="277.15615234375">Makefile</tspan></text><rect width="9" height="9" rx="2" ry="2" fill="#b07219" x="247.60000000000002" y="46"></rect><text font-size="9" font-family="monospace" fill="#c9d1d9" text-anchor="end" x="258.52333984375" y="54.61962890625"><tspan dy="0" x="258.52333984375">Java</tspan></text><rect width="9" height="9" rx="2" ry="2" fill="#dea584" x="247.60000000000002" y="62"></rect><text font-size="9" font-family="monospace" fill="#c9d1d9" text-anchor="end" x="260.15810546875" y="70.61962890625"><tspan dy="0" x="260.15810546875">Rust</tspan></text></svg>