<svg xmlns="http://www.w3.org/2000/svg" version="1.1" xmlns:xlink="http://www.w3.org/1999/xlink" viewBox="0 0 261.6 330.8" width="261.6" height="330.8" shape-rendering="crispEdges" style="image-rendering: pixelated;"><rect width="261.6" height="330.8" x="0" y="0" fill="#0d1117"></rect><line x1="130.8" y1="60" x2="44.400000000000006" y2="103.2" stroke-opacity="0.15" stroke-width="1" stroke="#ffffff"></line><line x1="159.60000000000002" y1="74.4" x2="73.20000000000002" y2="117.6" stroke-opacity="0.15" stroke-width="1" stroke="#ffffff"></line><line x1="188.4" y1="88.8" x2="102.00000000000001" y2="132" stroke-opacity="0.15" stroke-width="1" stroke="#ffffff"></line><line x1="217.20000000000002" y1="103.2" x2="130.8" y2="146.4" stroke-opacity="0.15" stroke-width="1" stroke="#ffffff"></line><line x1="246" y1="117.6" x2="159.60000000000002" y2="160.8" stroke-opacity="0.15" stroke-width="1" stroke="#ffffff"></line><line x1="130.8" y1="60" x2="246" y2="117.6" stroke-opacity="0.15" stroke-width="1" stroke="#ffffff"></line><line x1="102.00000000000001" y1="74.4" x2="217.20000000000002" y2="132" stroke-opacity="0.15" stroke-width="1" stroke="#ffffff"></line><line x1="73.20000000000002" y1="88.8" x2="188.4" y2="146.4" stroke-opacity="0.15" stroke-width="1" stroke="#ffffff"></line><line x1="44.400000000000006" y1="103.2" x2="159.60000000000002" y2="160.8" stroke-opacity="0.15" stroke-width="1" stroke="#ffffff"></line><polygon points="130.8,-74.816 149.23200000000003,-65.6 130.8,-56.384 112.36800000000001,-65.6" fill="#f1e05a" stroke-width="1.2" stroke="#010409"></polygon><polygon points="112.36800000000001,-65.6 130.8,-56.384 130.8,83.616 112.36800000000001,74.4" fill="#d3c23c" stroke-width="0.8" stroke="#010409"></polygon><polygon points="149.23200000000003,-65.6 130.8,-56.384 130.8,83.616 149.23200000000003,74.4" fill="#e5d44e" stroke-width="0.8" stroke="#010409"></polygon><rect width="46.8" height="13" rx="6" ry="6" fill="#161b22" stroke-width="0.8" stroke="#f1e05a" x="107.4" y="-97.816"></rect><text font-size="7" font-family="monospace" fill="#e6edf3" text-anchor="middle" x="126.550390625" y="-89.33406640625"><tspan dy="0" x="126.550390625">Genta-ta</tspan></text><polygon points="159.60000000000002,51.441142857142864 178.032,60.65714285714286 159.60000000000002,69.87314285714287 141.168,60.65714285714286" fill="#a97bff" stroke-width="1.2" stroke="#010409"></polygon><polygon points="141.168,60.65714285714286 159.60000000000002,69.87314285714287 159.60000000000002,92.32611515717399 141.168,83.11011515717398" fill="#8b5de1" stroke-width="0.8" stroke="#010409"></polygon><polygon points="141.168,83.11011515717398 159.60000000000002,92.32611515717399 159.60000000000002,95.68609025832555 141.168,86.47009025832554" fill="#6d7680" stroke-width="0.8" stroke="#010409"></polygon><polygon points="141.168,86.47009025832554 159.60000000000002,95.68609025832555 159.60000000000002,98.016 141.168,88.8" fill="#6bc233" stroke-width="0.8" stroke="#010409"></polygon><polygon points="178.032,60.65714285714286 159.60000000000002,69.87314285714287 159.60000000000002,92.32611515717399 178.032,83.11011515717398" fill="#9d6ff3" stroke-width="0.8" stroke="#010409"></polygon><polygon points="178.032,83.11011515717398 159.60000000000002,92.32611515717399 159.60000000000002,95.68609025832555 178.032,86.47009025832554" fill="#7f8892" stroke-width="0.8" stroke="#010409"></polygon><polygon points="178.032,86.47009025832554 159.60000000000002,95.68609025832555 159.60000000000002,98.016 178.032,88.8" fill="#7dd445" stroke-width="0.8" stroke="#010409"></polygon><rect width="56" height="13" rx="6" ry="6" fill="#161b22" stroke-width="0.8" stroke="#a97bff" x="131.60000000000002" y="28.441142857142864"></rect><text font-size="7" font-family="monospace" fill="#e6edf3" text-anchor="middle" x="155.40908203125002" y="36.923076450892864"><tspan dy="0" x="155.40908203125002">MCP-server</tspan></text><polygon points="102.00000000000001,45.22685714285714 120.43200000000002,54.442857142857136 102.00000000000001,63.658857142857144 83.56800000000001,54.442857142857136" fill="#89e051" stroke-width="1.2" stroke="#010409"></polygon><polygon points="83.56800000000001,54.442857142857136 102.00000000000001,63.658857142857144 102.00000000000001,97.82448098745769 83.56800000000001,88.60848098745768" fill="#6bc233" stroke-width="0.8" stroke="#010409"></polygon><polygon points="83.56800000000001,88.60848098745768 102.00000000000001,97.82448098745769 102.00000000000001,98.016 83.56800000000001,88.8" fill="#175487" stroke-width="0.8" stroke="#010409"></polygon><polygon points="120.43200000000002,54.442857142857136 102.00000000000001,63.658857142857144 102.00000000000001,97.82448098745769 120.43200000000002,88.60848098745768" fill="#7dd445" stroke-width="0.8" stroke="#010409"></polygon><polygon points="120.43200000000002,88.60848098745768 102.00000000000001,97.82448098745769 102.00000000000001,98.016 120.43200000000002,88.8" fill="#296699" stroke-width="0.8" stroke="#010409"></polygon><rect width="37.599999999999994" height="13" rx="6" ry="6" fill="#161b22" stroke-width="0.8" stroke="#89e051" x="83.20000000000002" y="22.226857142857142"></rect><text font-size="7" font-family="monospace" fill="#e6edf3" text-anchor="middle" x="98.65898437500002" y="30.708790736607142"><tspan dy="0" x="98.65898437500002">Server</tspan></text><polygon points="188.4,61.698285714285724 206.832,70.91428571428571 188.4,80.13028571428572 169.96800000000002,70.91428571428571" fill="#a97bff" stroke-width="1.2" stroke="#010409"></polygon><polygon points="169.96800000000002,70.91428571428571 188.4,80.13028571428572 188.4,111.82801933320624 169.96800000000002,102.61201933320625" fill="#8b5de1" stroke-width="0.8" stroke="#010409"></polygon><polygon points="169.96800000000002,102.61201933320625 188.4,111.82801933320624 188.4,112.17523205454566 169.96800000000002,102.95923205454565" fill="#6d7680" stroke-width="0.8" stroke="#010409"></polygon><polygon points="169.96800000000002,102.95923205454565 188.4,112.17523205454566 188.4,112.416 169.96800000000002,103.2" fill="#6bc233" stroke-width="0.8" stroke="#010409"></polygon><polygon points="206.832,70.91428571428571 188.4,80.13028571428572 188.4,111.82801933320624 206.832,102.61201933320625" fill="#9d6ff3" stroke-width="0.8" stroke="#010409"></polygon><polygon points="206.832,102.61201933320625 188.4,111.82801933320624 188.4,112.17523205454566 206.832,102.95923205454565" fill="#7f8892" stroke-width="0.8" stroke="#010409"></polygon><polygon points="206.832,102.95923205454565 188.4,112.17523205454566 188.4,112.416 206.832,103.2" fill="#7dd445" stroke-width="0.8" stroke="#010409"></polygon><rect width="56" height="13" rx="6" ry="6" fill="#161b22" stroke-width="0.8" stroke="#a97bff" x="160.4" y="38.698285714285724"></rect><text font-size="7" font-family="monospace" fill="#e6edf3" text-anchor="middle" x="180.671484375" y="47.180219308035724"><tspan dy="0" x="180.671484375">Ai-copilot</tspan></text><polygon points="130.8,59.62685714285715 149.23200000000003,68.84285714285714 130.8,78.05885714285714 112.36800000000001,68.84285714285714" fill="#555555" stroke-width="1.2" stroke="#010409"></polygon><polygon points="112.36800000000001,68.84285714285714 130.8,78.05885714285714 130.8,111.25608395480731 112.36800000000001,102.0400839548073" fill="#373737" stroke-width="0.8" stroke="#010409"></polygon><polygon points="112.36800000000001,102.0400839548073 130.8,111.25608395480731 130.8,112.416 112.36800000000001,103.2" fill="#245a00" stroke-width="0.8" stroke="#010409"></polygon><polygon points="149.23200000000003,68.84285714285714 130.8,78.05885714285714 130.8,111.25608395480731 149.23200000000003,102.0400839548073" fill="#494949" stroke-width="0.8" stroke="#010409"></polygon><polygon points="149.23200000000003,102.0400839548073 130.8,111.25608395480731 130.8,112.416 149.23200000000003,103.2" fill="#366c0d" stroke-width="0.8" stroke="#010409"></polygon><rect width="42.199999999999996" height="13" rx="6" ry="6" fill="#161b22" stroke-width="0.8" stroke="#555555" x="109.70000000000002" y="36.62685714285715"></rect><text font-size="7" font-family="monospace" fill="#e6edf3" text-anchor="middle" x="128.50346679687502" y="45.10879073660715"><tspan dy="0" x="128.50346679687502">Ram_tes</tspan></text><polygon points="73.20000000000002,38.91257142857144 91.632,48.12857142857143 73.20000000000002,57.34457142857143 54.768000000000015,48.12857142857143" fill="#555555" stroke-width="1.2" stroke="#010409"></polygon><polygon points="54.768000000000015,48.12857142857143 73.20000000000002,57.34457142857143 73.20000000000002,109.7132495206136 54.768000000000015,100.49724952061362" fill="#373737" stroke-width="0.8" stroke="#010409"></polygon><polygon points="54.768000000000015,100.49724952061362 73.20000000000002,109.7132495206136 73.20000000000002,112.416 54.768000000000015,103.2" fill="#245a00" stroke-width="0.8" stroke="#010409"></polygon><polygon points="91.632,48.12857142857143 73.20000000000002,57.34457142857143 73.20000000000002,109.7132495206136 91.632,100.49724952061362" fill="#494949" stroke-width="0.8" stroke="#010409"></polygon><polygon points="91.632,100.49724952061362 73.20000000000002,109.7132495206136 73.20000000000002,112.416 91.632,103.2" fill="#366c0d" stroke-width="0.8" stroke="#010409"></polygon><rect width="65.19999999999999" height="13" rx="6" ry="6" fill="#161b22" stroke-width="0.8" stroke="#555555" x="40.60000000000002" y="15.91257142857144"></rect><text font-size="7" font-family="monospace" fill="#e6edf3" text-anchor="middle" x="66.11293945312502" y="24.39450502232144"><tspan dy="0" x="66.11293945312502">Kernel-test…</tspan></text><polygon points="217.20000000000002,76.09828571428574 235.632,85.31428571428572 217.20000000000002,94.53028571428572 198.76800000000003,85.31428571428572" fill="#a97bff" stroke-width="1.2" stroke="#010409"></polygon><polygon points="198.76800000000003,85.31428571428572 217.20000000000002,94.53028571428572 217.20000000000002,119.79342850931741 198.76800000000003,110.5774285093174" fill="#8b5de1" stroke-width="0.8" stroke="#010409"></polygon><polygon points="198.76800000000003,110.5774285093174 217.20000000000002,119.79342850931741 217.20000000000002,126.816 198.76800000000003,117.6" fill="#925400" stroke-width="0.8" stroke="#010409"></polygon><polygon points="235.632,85.31428571428572 217.20000000000002,94.53028571428572 217.20000000000002,119.79342850931741 235.632,110.5774285093174" fill="#9d6ff3" stroke-width="0.8" stroke="#010409"></polygon><polygon points="235.632,110.5774285093174 217.20000000000002,119.79342850931741 217.20000000000002,126.816 235.632,117.6" fill="#a4660d" stroke-width="0.8" stroke="#010409"></polygon><rect width="33" height="13" rx="6" ry="6" fill="#161b22" stroke-width="0.8" stroke="#a97bff" x="200.70000000000002" y="53.09828571428574"></rect><text font-size="7" font-family="monospace" fill="#e6edf3" text-anchor="middle" x="214.91484375000002" y="61.58021930803574"><tspan dy="0" x="214.91484375000002">Glens</tspan></text><polygon points="159.60000000000002,71.95542857142858 178.032,81.17142857142856 159.6,90.38742857142857 141.168,81.17142857142856" fill="#8b949e" stroke-width="1.2" stroke="#010409"></polygon><polygon points="141.168,81.17142857142856 159.6,90.38742857142857 159.6,126.816 141.168,117.6" fill="#6d7680" stroke-width="0.8" stroke="#010409"></polygon><polygon points="178.032,81.17142857142856 159.6,90.38742857142857 159.6,126.816 178.032,117.6" fill="#7f8892" stroke-width="0.8" stroke="#010409"></polygon><rect width="65.19999999999999" height="13" rx="6" ry="6" fill="#161b22" stroke-width="0.8" stroke="#8b949e" x="127.00000000000003" y="48.955428571428584"></rect><text font-size="7" font-family="monospace" fill="#e6edf3" text-anchor="middle" x="152.68041992187503" y="57.437362165178584"><tspan dy="0" x="152.68041992187503">Git-Compiler</tspan></text><polygon points="102,45.02685714285715 120.432,54.24285714285713 102.00000000000001,63.45885714285714 83.56800000000001,54.24285714285713" fill="#89e051" stroke-width="1.2" stroke="#010409"></polygon><polygon points="83.56800000000001,54.24285714285713 102.00000000000001,63.45885714285714 102.00000000000001,113.75595397332333 83.56800000000001,104.53995397332332" fill="#6bc233" stroke-width="0.8" stroke="#010409"></polygon><polygon points="83.56800000000001,104.53995397332332 102.00000000000001,113.75595397332333 102.00000000000001,120.120829446338 83.56800000000001,110.904829446338" fill="#373737" stroke-width="0.8" stroke="#010409"></polygon><polygon points="83.56800000000001,110.904829446338 102.00000000000001,120.120829446338 102.00000000000001,125.6346743511983 83.56800000000001,116.41867435119829" fill="#c08766" stroke-width="0.8" stroke="#010409"></polygon><polygon points="83.56800000000001,116.41867435119829 102.00000000000001,125.6346743511983 102.00000000000001,126.816 83.56800000000001,117.6" fill="#245a00" stroke-width="0.8" stroke="#010409"></polygon><polygon points="120.432,54.24285714285713 102.00000000000001,63.45885714285714 102.00000000000001,113.75595397332333 120.432,104.53995397332332" fill="#7dd445" stroke-width="0.8" stroke="#010409"></polygon><polygon points="120.432,104.53995397332332 102.00000000000001,113.75595397332333 102.00000000000001,120.120829446338 120.432,110.904829446338" fill="#494949" stroke-width="0.8" stroke="#010409"></polygon><polygon points="120.432,110.904829446338 102.00000000000001,120.120829446338 102.00000000000001,125.6346743511983 120.432,116.41867435119829" fill="#d29978" stroke-width="0.8" stroke="#010409"></polygon><polygon points="120.432,116.41867435119829 102.00000000000001,125.6346743511983 102.00000000000001,126.816 120.432,117.6" fill="#366c0d" stroke-width="0.8" stroke="#010409"></polygon><rect width="33" height="13" rx="6" ry="6" fill="#161b22" stroke-width="0.8" stroke="#89e051" x="85.5" y="22.026857142857153"></rect><text font-size="7" font-family="monospace" fill="#e6edf3" text-anchor="middle" x="99.477294921875" y="30.508790736607153"><tspan dy="0" x="99.477294921875">my-ai</tspan></text><polygon points="188.4,90.49828571428571 206.832,99.71428571428572 188.4,108.93028571428573 169.96800000000002,99.71428571428572" fill="#8b949e" stroke-width="1.2" stroke="#010409"></polygon><polygon points="169.96800000000002,99.71428571428572 188.4,108.93028571428573 188.4,141.216 169.96800000000002,132" fill="#6d7680" stroke-width="0.8" stroke="#010409"></polygon><polygon points="206.832,99.71428571428572 188.4,108.93028571428573 188.4,141.216 206.832,132" fill="#7f8892" stroke-width="0.8" stroke="#010409"></polygon><rect width="60.599999999999994" height="13" rx="6" ry="6" fill="#161b22" stroke-width="0.8" stroke="#8b949e" x="158.10000000000002" y="67.49828571428571"></rect><text font-size="7" font-family="monospace" fill="#e6edf3" text-anchor="middle" x="183.08657226562502" y="75.98021930803571"><tspan dy="0" x="183.08657226562502">Lwgjl-arm64</tspan></text><rect width="170" height="111" rx="8" ry="8" fill="#161b22" stroke-width="1" stroke="#30363d" x="16" y="203.8"></rect><text font-size="11" font-family="monospace" fill="#39d353" text-anchor="start" x="24" y="220.55732421875"><tspan dy="0" x="24">Top Commits</tspan></text><text font-size="9" font-family="monospace" fill="#c9d1d9" text-anchor="start" x="24" y="235.41962890625"><tspan dy="0" x="24">1. Genta-ta</tspan></text><text font-size="9" font-family="monospace" fill="#58a6ff" text-anchor="end" x="188.2919921875" y="235.41962890625"><tspan dy="0" x="188.2919921875">56</tspan></text><text font-size="9" font-family="monospace" fill="#c9d1d9" text-anchor="start" x="24" y="252.41962890625"><tspan dy="0" x="24">2. my-ai</tspan></text><text font-size="9" font-family="monospace" fill="#58a6ff" text-anchor="end" x="188.2919921875" y="252.41962890625"><tspan dy="0" x="188.2919921875">19</tspan></text><text font-size="9" font-family="monospace" fill="#c9d1d9" text-anchor="start" x="24" y="269.41962890625"><tspan dy="0" x="24">3. Kernel-tester</tspan></text><text font-size="9" font-family="monospace" fill="#58a6ff" text-anchor="end" x="188.2919921875" y="269.41962890625"><tspan dy="0" x="188.2919921875">15</tspan></text><text font-size="9" font-family="monospace" fill="#c9d1d9" text-anchor="start" x="24" y="286.41962890625"><tspan dy="0" x="24">4. Git-Compiler</tspan></text><text font-size="9" font-family="monospace" fill="#58a6ff" text-anchor="end" x="183.14599609375" y="286.41962890625"><tspan dy="0" x="183.14599609375">6</tspan></text><text font-size="9" font-family="monospace" fill="#c9d1d9" text-anchor="start" x="24" y="303.41962890625"><tspan dy="0" x="24">5. Server</tspan></text><text font-size="9" font-family="monospace" fill="#58a6ff" text-anchor="end" x="183.14599609375" y="303.41962890625"><tspan dy="0" x="183.14599609375">5</tspan></text><rect width="9" height="9" rx="2" ry="2" fill="#f1e05a" x="14" y="14"></rect><text font-size="9" font-family="monospace" fill="#c9d1d9" text-anchor="start" x="27" y="22.61962890625"><tspan dy="0" x="27">JavaScript</tspan></text><rect width="9" height="9" rx="2" ry="2" fill="#a97bff" x="14" y="30"></rect><text font-size="9" font-family="monospace" fill="#c9d1d9" text-anchor="start" x="27" y="38.61962890625"><tspan dy="0" x="27">Kotlin</tspan></text><rect width="9" height="9" rx="2" ry="2" fill="#8b949e" x="14" y="46"></rect><text font-size="9" font-family="monospace" fill="#c9d1d9" text-anchor="start" x="27" y="54.61962890625"><tspan dy="0" x="27">Batchfile</tspan></text><rect width="9" height="9" rx="2" ry="2" fill="#89e051" x="14" y="62"></rect><text font-size="9" font-family="monospace" fill="#c9d1d9" text-anchor="start" x="27" y="70.61962890625"><tspan dy="0" x="27">Shell</tspan></text><rect width="9" height="9" rx="2" ry="2" fill="#3572a5" x="14" y="78"></rect><text font-size="9" font-family="monospace" fill="#c9d1d9" text-anchor="start" x="27" y="86.61962890625"><tspan dy="0" x="27">Python</tspan></text><rect width="9" height="9" rx="2" ry="2" fill="#555555" x="247.60000000000002" y="14"></rect><text font-size="9" font-family="monospace" fill="#c9d1d9" text-anchor="end" x="247.27773437500002" y="22.61962890625"><tspan dy="0" x="247.27773437500002">C</tspan></text><rect width="9" height="9" rx="2" ry="2" fill="#427819" x="247.60000000000002" y="30"></rect><text font-size="9" font-family="monospace" fill="#c9d1d9" text-anchor="end" x="277.15615234375" y="38.61962890625"><tspan dy="0" x="277.15615234375">Makefile</tspan></text><rect width="9" height="9" rx="2" ry="2" fill="#b07219" x="247.60000000000002" y="46"></rect><text font-size="9" font-family="monospace" fill="#c9d1d9" text-anchor="end" x="258.52333984375" y="54.61962890625"><tspan dy="0" x="258.52333984375">Java</tspan></text><rect width="9" height="9" rx="2" ry="2" fill="#dea584" x="247.60000000000002" y="62"></rect><text font-size="9" font-family="monospace" fill="#c9d1d9" text-anchor="end" x="260.15810546875" y="70.61962890625"><tspan dy="0" x="260.15810546875">Rust</tspan></text></svg>