<svg xmlns="http://www.w3.org/2000/svg" version="1.1" xmlns:xlink="http://www.w3.org/1999/xlink" viewBox="0 0 261.6 330.8" width="261.6" height="330.8" shape-rendering="crispEdges" style="image-rendering: pixelated;"><rect width="261.6" height="330.8" x="0" y="0" fill="#0d1117"></rect><line x1="130.8" y1="60" x2="44.400000000000006" y2="103.2" stroke-opacity="0.15" stroke-width="1" stroke="#ffffff"></line><line x1="159.60000000000002" y1="74.4" x2="73.20000000000002" y2="117.6" stroke-opacity="0.15" stroke-width="1" stroke="#ffffff"></line><line x1="188.4" y1="88.8" x2="102.00000000000001" y2="132" stroke-opacity="0.15" stroke-width="1" stroke="#ffffff"></line><line x1="217.20000000000002" y1="103.2" x2="130.8" y2="146.4" stroke-opacity="0.15" stroke-width="1" stroke="#ffffff"></line><line x1="246" y1="117.6" x2="159.60000000000002" y2="160.8" stroke-opacity="0.15" stroke-width="1" stroke="#ffffff"></line><line x1="130.8" y1="60" x2="246" y2="117.6" stroke-opacity="0.15" stroke-width="1" stroke="#ffffff"></line><line x1="102.00000000000001" y1="74.4" x2="217.20000000000002" y2="132" stroke-opacity="0.15" stroke-width="1" stroke="#ffffff"></line><line x1="73.20000000000002" y1="88.8" x2="188.4" y2="146.4" stroke-opacity="0.15" stroke-width="1" stroke="#ffffff"></line><line x1="44.400000000000006" y1="103.2" x2="159.60000000000002" y2="160.8" stroke-opacity="0.15" stroke-width="1" stroke="#ffffff"></line><polygon points="130.8,-74.816 149.23200000000003,-65.6 130.8,-56.384 112.36800000000001,-65.6" fill="#f1e05a" stroke-width="1.2" stroke="#010409"></polygon><polygon points="112.36800000000001,-65.6 130.8,-56.384 130.8,83.616 112.36800000000001,74.4" fill="#d3c23c" stroke-width="0.8" stroke="#010409"></polygon><polygon points="149.23200000000003,-65.6 130.8,-56.384 130.8,83.616 149.23200000000003,74.4" fill="#e5d44e" stroke-width="0.8" stroke="#010409"></polygon><rect width="46.8" height="13" rx="6" ry="6" fill="#161b22" stroke-width="0.8" stroke="#f1e05a" x="107.4" y="-97.816"></rect><text font-size="7" font-family="monospace" fill="#e6edf3" text-anchor="middle" x="126.550390625" y="-89.33406640625"><tspan dy="0" x="126.550390625">Genta-ta</tspan></text><polygon points="159.60000000000002,51.365818181818184 178.032,60.58181818181818 159.60000000000002,69.79781818181819 141.168,60.58181818181818" fill="#a97bff" stroke-width="1.2" stroke="#010409"></polygon><polygon points="141.168,60.58181818181818 159.60000000000002,69.79781818181819 159.60000000000002,92.31088611606259 141.168,83.09488611606258" fill="#8b5de1" stroke-width="0.8" stroke="#010409"></polygon><polygon points="141.168,83.09488611606258 159.60000000000002,92.31088611606259 159.60000000000002,95.67985422856012 141.168,86.46385422856011" fill="#6d7680" stroke-width="0.8" stroke="#010409"></polygon><polygon points="141.168,86.46385422856011 159.60000000000002,95.67985422856012 159.60000000000002,98.016 141.168,88.8" fill="#6bc233" stroke-width="0.8" stroke="#010409"></polygon><polygon points="178.032,60.58181818181818 159.60000000000002,69.79781818181819 159.60000000000002,92.31088611606259 178.032,83.09488611606258" fill="#9d6ff3" stroke-width="0.8" stroke="#010409"></polygon><polygon points="178.032,83.09488611606258 159.60000000000002,92.31088611606259 159.60000000000002,95.67985422856012 178.032,86.46385422856011" fill="#7f8892" stroke-width="0.8" stroke="#010409"></polygon><polygon points="178.032,86.46385422856011 159.60000000000002,95.67985422856012 159.60000000000002,98.016 178.032,88.8" fill="#7dd445" stroke-width="0.8" stroke="#010409"></polygon><rect width="56" height="13" rx="6" ry="6" fill="#161b22" stroke-width="0.8" stroke="#a97bff" x="131.60000000000002" y="28.365818181818184"></rect><text font-size="7" font-family="monospace" fill="#e6edf3" text-anchor="middle" x="155.40908203125002" y="36.847751775568184"><tspan dy="0" x="155.40908203125002">MCP-server</tspan></text><polygon points="102.00000000000001,45.038545454545456 120.43200000000002,54.25454545454545 102.00000000000001,63.47054545454546 83.56800000000001,54.25454545454545" fill="#89e051" stroke-width="1.2" stroke="#010409"></polygon><polygon points="83.56800000000001,54.25454545454545 102.00000000000001,63.47054545454546 102.00000000000001,97.82343127070024 83.56800000000001,88.60743127070023" fill="#6bc233" stroke-width="0.8" stroke="#010409"></polygon><polygon points="83.56800000000001,88.60743127070023 102.00000000000001,97.82343127070024 102.00000000000001,98.016 83.56800000000001,88.8" fill="#175487" stroke-width="0.8" stroke="#010409"></polygon><polygon points="120.43200000000002,54.25454545454545 102.00000000000001,63.47054545454546 102.00000000000001,97.82343127070024 120.43200000000002,88.60743127070023" fill="#7dd445" stroke-width="0.8" stroke="#010409"></polygon><polygon points="120.43200000000002,88.60743127070023 102.00000000000001,97.82343127070024 102.00000000000001,98.016 120.43200000000002,88.8" fill="#296699" stroke-width="0.8" stroke="#010409"></polygon><rect width="37.599999999999994" height="13" rx="6" ry="6" fill="#161b22" stroke-width="0.8" stroke="#89e051" x="83.20000000000002" y="22.038545454545456"></rect><text font-size="7" font-family="monospace" fill="#e6edf3" text-anchor="middle" x="98.65898437500002" y="30.520479048295456"><tspan dy="0" x="98.65898437500002">Server</tspan></text><polygon points="188.4,61.54763636363637 206.832,70.76363636363637 188.4,79.97963636363636 169.96800000000002,70.76363636363637" fill="#a97bff" stroke-width="1.2" stroke="#010409"></polygon><polygon points="169.96800000000002,70.76363636363637 188.4,79.97963636363636 188.4,111.82527573878355 169.96800000000002,102.60927573878355" fill="#8b5de1" stroke-width="0.8" stroke="#010409"></polygon><polygon points="169.96800000000002,102.60927573878355 188.4,111.82527573878355 188.4,112.17410859993291 169.96800000000002,102.95810859993293" fill="#6d7680" stroke-width="0.8" stroke="#010409"></polygon><polygon points="169.96800000000002,102.95810859993293 188.4,112.17410859993291 188.4,112.416 169.96800000000002,103.2" fill="#6bc233" stroke-width="0.8" stroke="#010409"></polygon><polygon points="206.832,70.76363636363637 188.4,79.97963636363636 188.4,111.82527573878355 206.832,102.60927573878355" fill="#9d6ff3" stroke-width="0.8" stroke="#010409"></polygon><polygon points="206.832,102.60927573878355 188.4,111.82527573878355 188.4,112.17410859993291 206.832,102.95810859993293" fill="#7f8892" stroke-width="0.8" stroke="#010409"></polygon><polygon points="206.832,102.95810859993293 188.4,112.17410859993291 188.4,112.416 206.832,103.2" fill="#7dd445" stroke-width="0.8" stroke="#010409"></polygon><rect width="56" height="13" rx="6" ry="6" fill="#161b22" stroke-width="0.8" stroke="#a97bff" x="160.4" y="38.54763636363637"></rect><text font-size="7" font-family="monospace" fill="#e6edf3" text-anchor="middle" x="180.671484375" y="47.02956995738637"><tspan dy="0" x="180.671484375">Ai-copilot</tspan></text><polygon points="130.8,59.43854545454546 149.23200000000003,68.65454545454546 130.8,77.87054545454545 112.36800000000001,68.65454545454546" fill="#555555" stroke-width="1.2" stroke="#010409"></polygon><polygon points="112.36800000000001,68.65454545454546 130.8,77.87054545454545 130.8,111.2497264486061 112.36800000000001,102.0337264486061" fill="#373737" stroke-width="0.8" stroke="#010409"></polygon><polygon points="112.36800000000001,102.0337264486061 130.8,111.2497264486061 130.8,112.416 112.36800000000001,103.2" fill="#245a00" stroke-width="0.8" stroke="#010409"></polygon><polygon points="149.23200000000003,68.65454545454546 130.8,77.87054545454545 130.8,111.2497264486061 149.23200000000003,102.0337264486061" fill="#494949" stroke-width="0.8" stroke="#010409"></polygon><polygon points="149.23200000000003,102.0337264486061 130.8,111.2497264486061 130.8,112.416 149.23200000000003,103.2" fill="#366c0d" stroke-width="0.8" stroke="#010409"></polygon><rect width="42.199999999999996" height="13" rx="6" ry="6" fill="#161b22" stroke-width="0.8" stroke="#555555" x="109.70000000000002" y="36.43854545454546"></rect><text font-size="7" font-family="monospace" fill="#e6edf3" text-anchor="middle" x="128.50346679687502" y="44.92047904829546"><tspan dy="0" x="128.50346679687502">Ram_tes</tspan></text><polygon points="73.20000000000002,69.98400000000001 91.632,79.2 73.20000000000002,88.416 54.768000000000015,79.2" fill="#8b949e" stroke-width="1.2" stroke="#010409"></polygon><polygon points="54.768000000000015,79.2 73.20000000000002,88.416 73.20000000000002,112.416 54.768000000000015,103.2" fill="#6d7680" stroke-width="0.8" stroke="#010409"></polygon><polygon points="91.632,79.2 73.20000000000002,88.416 73.20000000000002,112.416 91.632,103.2" fill="#7f8892" stroke-width="0.8" stroke="#010409"></polygon><rect width="65.19999999999999" height="13" rx="6" ry="6" fill="#161b22" stroke-width="0.8" stroke="#8b949e" x="40.60000000000002" y="46.98400000000001"></rect><text font-size="7" font-family="monospace" fill="#e6edf3" text-anchor="middle" x="66.11293945312502" y="55.46593359375001"><tspan dy="0" x="66.11293945312502">Kernel-test…</tspan></text><polygon points="217.20000000000002,75.94763636363638 235.632,85.16363636363636 217.20000000000002,94.37963636363637 198.76800000000003,85.16363636363636" fill="#a97bff" stroke-width="1.2" stroke="#010409"></polygon><polygon points="198.76800000000003,85.16363636363636 217.20000000000002,94.37963636363637 217.20000000000002,119.76066027549122 198.76800000000003,110.54466027549121" fill="#8b5de1" stroke-width="0.8" stroke="#010409"></polygon><polygon points="198.76800000000003,110.54466027549121 217.20000000000002,119.76066027549122 217.20000000000002,126.816 198.76800000000003,117.6" fill="#925400" stroke-width="0.8" stroke="#010409"></polygon><polygon points="235.632,85.16363636363636 217.20000000000002,94.37963636363637 217.20000000000002,119.76066027549122 235.632,110.54466027549121" fill="#9d6ff3" stroke-width="0.8" stroke="#010409"></polygon><polygon points="235.632,110.54466027549121 217.20000000000002,119.76066027549122 217.20000000000002,126.816 235.632,117.6" fill="#a4660d" stroke-width="0.8" stroke="#010409"></polygon><rect width="33" height="13" rx="6" ry="6" fill="#161b22" stroke-width="0.8" stroke="#a97bff" x="200.70000000000002" y="52.94763636363638"></rect><text font-size="7" font-family="monospace" fill="#e6edf3" text-anchor="middle" x="214.91484375000002" y="61.42956995738638"><tspan dy="0" x="214.91484375000002">Glens</tspan></text><polygon points="159.60000000000002,84.38400000000001 178.032,93.6 159.6,102.816 141.168,93.6" fill="#8b949e" stroke-width="1.2" stroke="#010409"></polygon><polygon points="141.168,93.6 159.6,102.816 159.6,126.816 141.168,117.6" fill="#6d7680" stroke-width="0.8" stroke="#010409"></polygon><polygon points="178.032,93.6 159.6,102.816 159.6,126.816 178.032,117.6" fill="#7f8892" stroke-width="0.8" stroke="#010409"></polygon><rect width="65.19999999999999" height="13" rx="6" ry="6" fill="#161b22" stroke-width="0.8" stroke="#8b949e" x="127.00000000000003" y="61.384000000000015"></rect><text font-size="7" font-family="monospace" fill="#e6edf3" text-anchor="middle" x="152.68041992187503" y="69.86593359375001"><tspan dy="0" x="152.68041992187503">Git-Compiler</tspan></text><polygon points="102,84.38400000000001 120.432,93.6 102.00000000000001,102.816 83.56800000000001,93.6" fill="#8b949e" stroke-width="1.2" stroke="#010409"></polygon><polygon points="83.56800000000001,93.6 102.00000000000001,102.816 102.00000000000001,126.816 83.56800000000001,117.6" fill="#6d7680" stroke-width="0.8" stroke="#010409"></polygon><polygon points="120.432,93.6 102.00000000000001,102.816 102.00000000000001,126.816 120.432,117.6" fill="#7f8892" stroke-width="0.8" stroke="#010409"></polygon><rect width="33" height="13" rx="6" ry="6" fill="#161b22" stroke-width="0.8" stroke="#8b949e" x="85.5" y="61.384000000000015"></rect><text font-size="7" font-family="monospace" fill="#e6edf3" text-anchor="middle" x="99.477294921875" y="69.86593359375001"><tspan dy="0" x="99.477294921875">my-ai</tspan></text><polygon points="188.4,98.784 206.832,108 188.4,117.21600000000001 169.96800000000002,108" fill="#8b949e" stroke-width="1.2" stroke="#010409"></polygon><polygon points="169.96800000000002,108 188.4,117.21600000000001 188.4,141.216 169.96800000000002,132" fill="#6d7680" stroke-width="0.8" stroke="#010409"></polygon><polygon points="206.832,108 188.4,117.21600000000001 188.4,141.216 206.832,132" fill="#7f8892" stroke-width="0.8" stroke="#010409"></polygon><rect width="60.599999999999994" height="13" rx="6" ry="6" fill="#161b22" stroke-width="0.8" stroke="#8b949e" x="158.10000000000002" y="75.784"></rect><text font-size="7" font-family="monospace" fill="#e6edf3" text-anchor="middle" x="183.08657226562502" y="84.26593359375"><tspan dy="0" x="183.08657226562502">Lwgjl-arm64</tspan></text><rect width="170" height="111" rx="8" ry="8" fill="#161b22" stroke-width="1" stroke="#30363d" x="16" y="203.8"></rect><text font-size="11" font-family="monospace" fill="#39d353" text-anchor="start" x="24" y="220.55732421875"><tspan dy="0" x="24">Top Commits</tspan></text><text font-size="9" font-family="monospace" fill="#c9d1d9" text-anchor="start" x="24" y="235.41962890625"><tspan dy="0" x="24">1. Genta-ta</tspan></text><text font-size="9" font-family="monospace" fill="#58a6ff" text-anchor="end" x="188.2919921875" y="235.41962890625"><tspan dy="0" x="188.2919921875">55</tspan></text><text font-size="9" font-family="monospace" fill="#c9d1d9" text-anchor="start" x="24" y="252.41962890625"><tspan dy="0" x="24">2. Server</tspan></text><text font-size="9" font-family="monospace" fill="#58a6ff" text-anchor="end" x="183.14599609375" y="252.41962890625"><tspan dy="0" x="183.14599609375">5</tspan></text><text font-size="9" font-family="monospace" fill="#c9d1d9" text-anchor="start" x="24" y="269.41962890625"><tspan dy="0" x="24">3. Ram_tes</tspan></text><text font-size="9" font-family="monospace" fill="#58a6ff" text-anchor="end" x="183.14599609375" y="269.41962890625"><tspan dy="0" x="183.14599609375">5</tspan></text><text font-size="9" font-family="monospace" fill="#c9d1d9" text-anchor="start" x="24" y="286.41962890625"><tspan dy="0" x="24">4. Ai-copilot</tspan></text><text font-size="9" font-family="monospace" fill="#58a6ff" text-anchor="end" x="183.14599609375" y="286.41962890625"><tspan dy="0" x="183.14599609375">4</tspan></text><text font-size="9" font-family="monospace" fill="#c9d1d9" text-anchor="start" x="24" y="303.41962890625"><tspan dy="0" x="24">5. Glens</tspan></text><text font-size="9" font-family="monospace" fill="#58a6ff" text-anchor="end" x="183.14599609375" y="303.41962890625"><tspan dy="0" x="183.14599609375">4</tspan></text><rect width="9" height="9" rx="2" ry="2" fill="#f1e05a" x="14" y="14"></rect><text font-size="9" font-family="monospace" fill="#c9d1d9" text-anchor="start" x="27" y="22.61962890625"><tspan dy="0" x="27">JavaScript</tspan></text><rect width="9" height="9" rx="2" ry="2" fill="#a97bff" x="14" y="30"></rect><text font-size="9" font-family="monospace" fill="#c9d1d9" text-anchor="start" x="27" y="38.61962890625"><tspan dy="0" x="27">Kotlin</tspan></text><rect width="9" height="9" rx="2" ry="2" fill="#8b949e" x="14" y="46"></rect><text font-size="9" font-family="monospace" fill="#c9d1d9" text-anchor="start" x="27" y="54.61962890625"><tspan dy="0" x="27">Batchfile</tspan></text><rect width="9" height="9" rx="2" ry="2" fill="#89e051" x="14" y="62"></rect><text font-size="9" font-family="monospace" fill="#c9d1d9" text-anchor="start" x="27" y="70.61962890625"><tspan dy="0" x="27">Shell</tspan></text><rect width="9" height="9" rx="2" ry="2" fill="#3572a5" x="247.60000000000002" y="14"></rect><text font-size="9" font-family="monospace" fill="#c9d1d9" text-anchor="end" x="271.21474609375" y="22.61962890625"><tspan dy="0" x="271.21474609375">Python</tspan></text><rect width="9" height="9" rx="2" ry="2" fill="#555555" x="247.60000000000002" y="30"></rect><text font-size="9" font-family="monospace" fill="#c9d1d9" text-anchor="end" x="247.27773437500002" y="38.61962890625"><tspan dy="0" x="247.27773437500002">C</tspan></text><rect width="9" height="9" rx="2" ry="2" fill="#427819" x="247.60000000000002" y="46"></rect><text font-size="9" font-family="monospace" fill="#c9d1d9" text-anchor="end" x="277.15615234375" y="54.61962890625"><tspan dy="0" x="277.15615234375">Makefile</tspan></text><rect width="9" height="9" rx="2" ry="2" fill="#b07219" x="247.60000000000002" y="62"></rect><text font-size="9" font-family="monospace" fill="#c9d1d9" text-anchor="end" x="258.52333984375" y="70.61962890625"><tspan dy="0" x="258.52333984375">Java</tspan></text></svg>