<svg xmlns="http://www.w3.org/2000/svg" version="1.1" xmlns:xlink="http://www.w3.org/1999/xlink" viewBox="0 0 232.8 316.4" width="232.8" height="316.4" shape-rendering="crispEdges" style="image-rendering: pixelated;"><rect width="232.8" height="316.4" x="0" y="0" fill="#0d1117"></rect><line x1="116.4" y1="60" x2="30" y2="103.2" stroke-opacity="0.15" stroke-width="1" stroke="#ffffff"></line><line x1="145.20000000000002" y1="74.4" x2="58.800000000000004" y2="117.6" stroke-opacity="0.15" stroke-width="1" stroke="#ffffff"></line><line x1="174" y1="88.8" x2="87.60000000000001" y2="132" stroke-opacity="0.15" stroke-width="1" stroke="#ffffff"></line><line x1="202.8" y1="103.2" x2="116.4" y2="146.4" stroke-opacity="0.15" stroke-width="1" stroke="#ffffff"></line><line x1="116.4" y1="60" x2="202.8" y2="103.2" stroke-opacity="0.15" stroke-width="1" stroke="#ffffff"></line><line x1="87.60000000000001" y1="74.4" x2="174" y2="117.6" stroke-opacity="0.15" stroke-width="1" stroke="#ffffff"></line><line x1="58.800000000000004" y1="88.8" x2="145.20000000000002" y2="132" stroke-opacity="0.15" stroke-width="1" stroke="#ffffff"></line><line x1="30" y1="103.2" x2="116.4" y2="146.4" stroke-opacity="0.15" stroke-width="1" stroke="#ffffff"></line><polygon points="116.4,29.2865641025641 134.83200000000002,38.50256410256411 116.4,47.7185641025641 97.968,38.50256410256411" fill="#a97bff" stroke-width="1.2" stroke="#010409"></polygon><polygon points="97.968,38.50256410256411 116.4,47.7185641025641 116.4,82.96224341563662 97.968,73.74624341563663" fill="#8b5de1" stroke-width="0.8" stroke="#010409"></polygon><polygon points="97.968,73.74624341563663 116.4,82.96224341563662 116.4,83.34829795036845 97.968,74.13229795036844" fill="#6d7680" stroke-width="0.8" stroke="#010409"></polygon><polygon points="97.968,74.13229795036844 116.4,83.34829795036845 116.4,83.616 97.968,74.4" fill="#6bc233" stroke-width="0.8" stroke="#010409"></polygon><polygon points="134.83200000000002,38.50256410256411 116.4,47.7185641025641 116.4,82.96224341563662 134.83200000000002,73.74624341563663" fill="#9d6ff3" stroke-width="0.8" stroke="#010409"></polygon><polygon points="134.83200000000002,73.74624341563663 116.4,82.96224341563662 116.4,83.34829795036845 134.83200000000002,74.13229795036844" fill="#7f8892" stroke-width="0.8" stroke="#010409"></polygon><polygon points="134.83200000000002,74.13229795036844 116.4,83.34829795036845 116.4,83.616 134.83200000000002,74.4" fill="#7dd445" stroke-width="0.8" stroke="#010409"></polygon><rect width="56" height="13" rx="6" ry="6" fill="#161b22" stroke-width="0.8" stroke="#a97bff" x="88.4" y="6.2865641025641"></rect><text font-size="7" font-family="monospace" fill="#e6edf3" text-anchor="middle" x="108.671484375" y="14.7684976963141"><tspan dy="0" x="108.671484375">Ai-copilot</tspan></text><polygon points="145.20000000000002,-60.416 163.632,-51.2 145.20000000000002,-41.983999999999995 126.768,-51.2" fill="#f1e05a" stroke-width="1.2" stroke="#010409"></polygon><polygon points="126.768,-51.2 145.20000000000002,-41.983999999999995 145.20000000000002,98.016 126.768,88.8" fill="#d3c23c" stroke-width="0.8" stroke="#010409"></polygon><polygon points="163.632,-51.2 145.20000000000002,-41.983999999999995 145.20000000000002,98.016 163.632,88.8" fill="#e5d44e" stroke-width="0.8" stroke="#010409"></polygon><rect width="46.8" height="13" rx="6" ry="6" fill="#161b22" stroke-width="0.8" stroke="#f1e05a" x="121.80000000000001" y="-83.416"></rect><text font-size="7" font-family="monospace" fill="#e6edf3" text-anchor="middle" x="140.950390625" y="-74.93406640625"><tspan dy="0" x="140.950390625">Genta-ta</tspan></text><polygon points="87.60000000000001,40.712205128205134 106.03200000000001,49.92820512820513 87.60000000000001,59.14420512820514 69.168,49.92820512820513" fill="#89e051" stroke-width="1.2" stroke="#010409"></polygon><polygon points="69.168,49.92820512820513 87.60000000000001,59.14420512820514 87.60000000000001,97.79931470109292 69.168,88.58331470109292" fill="#6bc233" stroke-width="0.8" stroke="#010409"></polygon><polygon points="69.168,88.58331470109292 87.60000000000001,97.79931470109292 87.60000000000001,98.016 69.168,88.8" fill="#175487" stroke-width="0.8" stroke="#010409"></polygon><polygon points="106.03200000000001,49.92820512820513 87.60000000000001,59.14420512820514 87.60000000000001,97.79931470109292 106.03200000000001,88.58331470109292" fill="#7dd445" stroke-width="0.8" stroke="#010409"></polygon><polygon points="106.03200000000001,88.58331470109292 87.60000000000001,97.79931470109292 87.60000000000001,98.016 106.03200000000001,88.8" fill="#296699" stroke-width="0.8" stroke="#010409"></polygon><rect width="37.599999999999994" height="13" rx="6" ry="6" fill="#161b22" stroke-width="0.8" stroke="#89e051" x="68.80000000000001" y="17.712205128205134"></rect><text font-size="7" font-family="monospace" fill="#e6edf3" text-anchor="middle" x="84.25898437500001" y="26.194138721955134"><tspan dy="0" x="84.25898437500001">Server</tspan></text><polygon points="174,58.08656410256411 192.43200000000002,67.3025641025641 174,76.5185641025641 155.568,67.3025641025641" fill="#a97bff" stroke-width="1.2" stroke="#010409"></polygon><polygon points="155.568,67.3025641025641 174,76.5185641025641 174,104.6078311086125 155.568,95.39183110861251" fill="#8b5de1" stroke-width="0.8" stroke="#010409"></polygon><polygon points="155.568,95.39183110861251 174,104.6078311086125 174,112.416 155.568,103.2" fill="#925400" stroke-width="0.8" stroke="#010409"></polygon><polygon points="192.43200000000002,67.3025641025641 174,76.5185641025641 174,104.6078311086125 192.43200000000002,95.39183110861251" fill="#9d6ff3" stroke-width="0.8" stroke="#010409"></polygon><polygon points="192.43200000000002,95.39183110861251 174,104.6078311086125 174,112.416 192.43200000000002,103.2" fill="#a4660d" stroke-width="0.8" stroke="#010409"></polygon><rect width="33" height="13" rx="6" ry="6" fill="#161b22" stroke-width="0.8" stroke="#a97bff" x="157.5" y="35.08656410256411"></rect><text font-size="7" font-family="monospace" fill="#e6edf3" text-anchor="middle" x="171.71484375" y="43.56849769631411"><tspan dy="0" x="171.71484375">Glens</tspan></text><polygon points="116.4,55.11220512820514 134.83200000000002,64.32820512820513 116.4,73.54420512820514 97.968,64.32820512820513" fill="#555555" stroke-width="1.2" stroke="#010409"></polygon><polygon points="97.968,64.32820512820513 116.4,73.54420512820514 116.4,111.10366681895785 97.968,101.88766681895785" fill="#373737" stroke-width="0.8" stroke="#010409"></polygon><polygon points="97.968,101.88766681895785 116.4,111.10366681895785 116.4,112.416 97.968,103.2" fill="#245a00" stroke-width="0.8" stroke="#010409"></polygon><polygon points="134.83200000000002,64.32820512820513 116.4,73.54420512820514 116.4,111.10366681895785 134.83200000000002,101.88766681895785" fill="#494949" stroke-width="0.8" stroke="#010409"></polygon><polygon points="134.83200000000002,101.88766681895785 116.4,111.10366681895785 116.4,112.416 134.83200000000002,103.2" fill="#366c0d" stroke-width="0.8" stroke="#010409"></polygon><rect width="42.199999999999996" height="13" rx="6" ry="6" fill="#161b22" stroke-width="0.8" stroke="#555555" x="95.30000000000001" y="32.11220512820514"></rect><text font-size="7" font-family="monospace" fill="#e6edf3" text-anchor="middle" x="114.10346679687501" y="40.59413872195514"><tspan dy="0" x="114.10346679687501">Ram_tes</tspan></text><polygon points="58.800000000000004,58.08656410256411 77.232,67.3025641025641 58.80000000000001,76.5185641025641 40.36800000000001,67.3025641025641" fill="#8b949e" stroke-width="1.2" stroke="#010409"></polygon><polygon points="40.36800000000001,67.3025641025641 58.80000000000001,76.5185641025641 58.80000000000001,112.416 40.36800000000001,103.2" fill="#6d7680" stroke-width="0.8" stroke="#010409"></polygon><polygon points="77.232,67.3025641025641 58.80000000000001,76.5185641025641 58.80000000000001,112.416 77.232,103.2" fill="#7f8892" stroke-width="0.8" stroke="#010409"></polygon><rect width="60.599999999999994" height="13" rx="6" ry="6" fill="#161b22" stroke-width="0.8" stroke="#8b949e" x="28.500000000000007" y="35.08656410256411"></rect><text font-size="7" font-family="monospace" fill="#e6edf3" text-anchor="middle" x="53.48657226562501" y="43.56849769631411"><tspan dy="0" x="53.48657226562501">Lwgjl-arm64</tspan></text><polygon points="145.20000000000002,66.53784615384617 163.632,75.75384615384615 145.2,84.96984615384616 126.76800000000001,75.75384615384615" fill="#8b949e" stroke-width="1.2" stroke="#010409"></polygon><polygon points="126.76800000000001,75.75384615384615 145.2,84.96984615384616 145.2,126.816 126.76800000000001,117.6" fill="#6d7680" stroke-width="0.8" stroke="#010409"></polygon><polygon points="163.632,75.75384615384615 145.2,84.96984615384616 145.2,126.816 163.632,117.6" fill="#7f8892" stroke-width="0.8" stroke="#010409"></polygon><rect width="65.19999999999999" height="13" rx="6" ry="6" fill="#161b22" stroke-width="0.8" stroke="#8b949e" x="112.60000000000002" y="43.537846153846175"></rect><text font-size="7" font-family="monospace" fill="#e6edf3" text-anchor="middle" x="138.28041992187502" y="52.019779747596175"><tspan dy="0" x="138.28041992187502">Git-Compiler</tspan></text><polygon points="87.6,39.7686153846154 106.032,48.98461538461538 87.60000000000001,58.20061538461539 69.168,48.98461538461538" fill="#555555" stroke-width="1.2" stroke="#010409"></polygon><polygon points="69.168,48.98461538461538 87.60000000000001,58.20061538461539 87.60000000000001,123.44855033557047 69.168,114.23255033557047" fill="#373737" stroke-width="0.8" stroke="#010409"></polygon><polygon points="69.168,114.23255033557047 87.60000000000001,123.44855033557047 87.60000000000001,126.816 69.168,117.6" fill="#245a00" stroke-width="0.8" stroke="#010409"></polygon><polygon points="106.032,48.98461538461538 87.60000000000001,58.20061538461539 87.60000000000001,123.44855033557047 106.032,114.23255033557047" fill="#494949" stroke-width="0.8" stroke="#010409"></polygon><polygon points="106.032,114.23255033557047 87.60000000000001,123.44855033557047 87.60000000000001,126.816 106.032,117.6" fill="#366c0d" stroke-width="0.8" stroke="#010409"></polygon><rect width="65.19999999999999" height="13" rx="6" ry="6" fill="#161b22" stroke-width="0.8" stroke="#555555" x="55" y="16.7686153846154"></rect><text font-size="7" font-family="monospace" fill="#e6edf3" text-anchor="middle" x="80.512939453125" y="25.2505489783654"><tspan dy="0" x="80.512939453125">Kernel-test…</tspan></text><polygon points="116.4,42.271179487179495 134.832,51.48717948717949 116.4,60.7031794871795 97.96800000000002,51.48717948717949" fill="#89e051" stroke-width="1.2" stroke="#010409"></polygon><polygon points="97.96800000000002,51.48717948717949 116.4,60.7031794871795 116.4,124.61958964724926 97.96800000000002,115.40358964724925" fill="#6bc233" stroke-width="0.8" stroke="#010409"></polygon><polygon points="97.96800000000002,115.40358964724925 116.4,124.61958964724926 116.4,132.7079290741196 97.96800000000002,123.49192907411957" fill="#373737" stroke-width="0.8" stroke="#010409"></polygon><polygon points="97.96800000000002,123.49192907411957 116.4,132.7079290741196 116.4,139.7147981521891 97.96800000000002,130.4987981521891" fill="#c08766" stroke-width="0.8" stroke="#010409"></polygon><polygon points="97.96800000000002,130.4987981521891 116.4,139.7147981521891 116.4,141.216 97.96800000000002,132" fill="#245a00" stroke-width="0.8" stroke="#010409"></polygon><polygon points="134.832,51.48717948717949 116.4,60.7031794871795 116.4,124.61958964724926 134.832,115.40358964724925" fill="#7dd445" stroke-width="0.8" stroke="#010409"></polygon><polygon points="134.832,115.40358964724925 116.4,124.61958964724926 116.4,132.7079290741196 134.832,123.49192907411957" fill="#494949" stroke-width="0.8" stroke="#010409"></polygon><polygon points="134.832,123.49192907411957 116.4,132.7079290741196 116.4,139.7147981521891 134.832,130.4987981521891" fill="#d29978" stroke-width="0.8" stroke="#010409"></polygon><polygon points="134.832,130.4987981521891 116.4,139.7147981521891 116.4,141.216 134.832,132" fill="#366c0d" stroke-width="0.8" stroke="#010409"></polygon><rect width="33" height="13" rx="6" ry="6" fill="#161b22" stroke-width="0.8" stroke="#89e051" x="99.9" y="19.271179487179495"></rect><text font-size="7" font-family="monospace" fill="#e6edf3" text-anchor="middle" x="113.877294921875" y="27.753113080929495"><tspan dy="0" x="113.877294921875">my-ai</tspan></text><rect width="170" height="111" rx="8" ry="8" fill="#161b22" stroke-width="1" stroke="#30363d" x="16" y="189.39999999999998"></rect><text font-size="11" font-family="monospace" fill="#39d353" text-anchor="start" x="24" y="206.15732421874998"><tspan dy="0" x="24">Top Commits</tspan></text><text font-size="9" font-family="monospace" fill="#c9d1d9" text-anchor="start" x="24" y="221.01962890624998"><tspan dy="0" x="24">1. Genta-ta</tspan></text><text font-size="9" font-family="monospace" fill="#58a6ff" text-anchor="end" x="188.2919921875" y="221.01962890624998"><tspan dy="0" x="188.2919921875">39</tspan></text><text font-size="9" font-family="monospace" fill="#c9d1d9" text-anchor="start" x="24" y="238.01962890624998"><tspan dy="0" x="24">2. my-ai</tspan></text><text font-size="9" font-family="monospace" fill="#58a6ff" text-anchor="end" x="188.2919921875" y="238.01962890624998"><tspan dy="0" x="188.2919921875">19</tspan></text><text font-size="9" font-family="monospace" fill="#c9d1d9" text-anchor="start" x="24" y="255.01962890624998"><tspan dy="0" x="24">3. Kernel-tester</tspan></text><text font-size="9" font-family="monospace" fill="#58a6ff" text-anchor="end" x="188.2919921875" y="255.01962890624998"><tspan dy="0" x="188.2919921875">15</tspan></text><text font-size="9" font-family="monospace" fill="#c9d1d9" text-anchor="start" x="24" y="272.01962890625"><tspan dy="0" x="24">4. Git-Compiler</tspan></text><text font-size="9" font-family="monospace" fill="#58a6ff" text-anchor="end" x="183.14599609375" y="272.01962890625"><tspan dy="0" x="183.14599609375">6</tspan></text><text font-size="9" font-family="monospace" fill="#c9d1d9" text-anchor="start" x="24" y="289.01962890625"><tspan dy="0" x="24">5. Server</tspan></text><text font-size="9" font-family="monospace" fill="#58a6ff" text-anchor="end" x="183.14599609375" y="289.01962890625"><tspan dy="0" x="183.14599609375">5</tspan></text><rect width="9" height="9" rx="2" ry="2" fill="#a97bff" x="14" y="14"></rect><text font-size="9" font-family="monospace" fill="#c9d1d9" text-anchor="start" x="27" y="22.61962890625"><tspan dy="0" x="27">Kotlin</tspan></text><rect width="9" height="9" rx="2" ry="2" fill="#8b949e" x="14" y="30"></rect><text font-size="9" font-family="monospace" fill="#c9d1d9" text-anchor="start" x="27" y="38.61962890625"><tspan dy="0" x="27">Batchfile</tspan></text><rect width="9" height="9" rx="2" ry="2" fill="#89e051" x="14" y="46"></rect><text font-size="9" font-family="monospace" fill="#c9d1d9" text-anchor="start" x="27" y="54.61962890625"><tspan dy="0" x="27">Shell</tspan></text><rect width="9" height="9" rx="2" ry="2" fill="#f1e05a" x="14" y="62"></rect><text font-size="9" font-family="monospace" fill="#c9d1d9" text-anchor="start" x="27" y="70.61962890625"><tspan dy="0" x="27">JavaScript</tspan></text><rect width="9" height="9" rx="2" ry="2" fill="#3572a5" x="14" y="78"></rect><text font-size="9" font-family="monospace" fill="#c9d1d9" text-anchor="start" x="27" y="86.61962890625"><tspan dy="0" x="27">Python</tspan></text><rect width="9" height="9" rx="2" ry="2" fill="#b07219" x="218.8" y="14"></rect><text font-size="9" font-family="monospace" fill="#c9d1d9" text-anchor="end" x="229.72333984375" y="22.61962890625"><tspan dy="0" x="229.72333984375">Java</tspan></text><rect width="9" height="9" rx="2" ry="2" fill="#555555" x="218.8" y="30"></rect><text font-size="9" font-family="monospace" fill="#c9d1d9" text-anchor="end" x="218.477734375" y="38.61962890625"><tspan dy="0" x="218.477734375">C</tspan></text><rect width="9" height="9" rx="2" ry="2" fill="#427819" x="218.8" y="46"></rect><text font-size="9" font-family="monospace" fill="#c9d1d9" text-anchor="end" x="248.35615234375" y="54.61962890625"><tspan dy="0" x="248.35615234375">Makefile</tspan></text><rect width="9" height="9" rx="2" ry="2" fill="#dea584" x="218.8" y="62"></rect><text font-size="9" font-family="monospace" fill="#c9d1d9" text-anchor="end" x="231.35810546875" y="70.61962890625"><tspan dy="0" x="231.35810546875">Rust</tspan></text></svg>