<svg xmlns="http://www.w3.org/2000/svg" version="1.1" xmlns:xlink="http://www.w3.org/1999/xlink" viewBox="0 0 261.6 330.8" width="261.6" height="330.8" shape-rendering="crispEdges" style="image-rendering: pixelated;"><rect width="261.6" height="330.8" x="0" y="0" fill="#0d1117"></rect><line x1="130.8" y1="60" x2="44.400000000000006" y2="103.2" stroke-opacity="0.15" stroke-width="1" stroke="#ffffff"></line><line x1="159.60000000000002" y1="74.4" x2="73.20000000000002" y2="117.6" stroke-opacity="0.15" stroke-width="1" stroke="#ffffff"></line><line x1="188.4" y1="88.8" x2="102.00000000000001" y2="132" stroke-opacity="0.15" stroke-width="1" stroke="#ffffff"></line><line x1="217.20000000000002" y1="103.2" x2="130.8" y2="146.4" stroke-opacity="0.15" stroke-width="1" stroke="#ffffff"></line><line x1="246" y1="117.6" x2="159.60000000000002" y2="160.8" stroke-opacity="0.15" stroke-width="1" stroke="#ffffff"></line><line x1="130.8" y1="60" x2="246" y2="117.6" stroke-opacity="0.15" stroke-width="1" stroke="#ffffff"></line><line x1="102.00000000000001" y1="74.4" x2="217.20000000000002" y2="132" stroke-opacity="0.15" stroke-width="1" stroke="#ffffff"></line><line x1="73.20000000000002" y1="88.8" x2="188.4" y2="146.4" stroke-opacity="0.15" stroke-width="1" stroke="#ffffff"></line><line x1="44.400000000000006" y1="103.2" x2="159.60000000000002" y2="160.8" stroke-opacity="0.15" stroke-width="1" stroke="#ffffff"></line><polygon points="130.8,-74.816 149.23200000000003,-65.6 130.8,-56.384 112.36800000000001,-65.6" fill="#f1e05a" stroke-width="1.2" stroke="#010409"></polygon><polygon points="112.36800000000001,-65.6 130.8,-56.384 130.8,83.616 112.36800000000001,74.4" fill="#d3c23c" stroke-width="0.8" stroke="#010409"></polygon><polygon points="149.23200000000003,-65.6 130.8,-56.384 130.8,83.616 149.23200000000003,74.4" fill="#e5d44e" stroke-width="0.8" stroke="#010409"></polygon><rect width="46.8" height="13" rx="6" ry="6" fill="#161b22" stroke-width="0.8" stroke="#f1e05a" x="107.4" y="-97.816"></rect><text font-size="7" font-family="monospace" fill="#e6edf3" text-anchor="middle" x="126.550390625" y="-89.33406640625"><tspan dy="0" x="126.550390625">Genta-ta</tspan></text><polygon points="159.60000000000002,51.78072131147542 178.032,60.99672131147541 159.60000000000002,70.21272131147542 141.168,60.99672131147541" fill="#a97bff" stroke-width="1.2" stroke="#010409"></polygon><polygon points="141.168,60.99672131147541 159.60000000000002,70.21272131147542 159.60000000000002,92.39477067038109 141.168,83.17877067038108" fill="#8b5de1" stroke-width="0.8" stroke="#010409"></polygon><polygon points="141.168,83.17877067038108 159.60000000000002,92.39477067038109 159.60000000000002,95.71420350726812 141.168,86.49820350726812" fill="#6d7680" stroke-width="0.8" stroke="#010409"></polygon><polygon points="141.168,86.49820350726812 159.60000000000002,95.71420350726812 159.60000000000002,98.016 141.168,88.8" fill="#6bc233" stroke-width="0.8" stroke="#010409"></polygon><polygon points="178.032,60.99672131147541 159.60000000000002,70.21272131147542 159.60000000000002,92.39477067038109 178.032,83.17877067038108" fill="#9d6ff3" stroke-width="0.8" stroke="#010409"></polygon><polygon points="178.032,83.17877067038108 159.60000000000002,92.39477067038109 159.60000000000002,95.71420350726812 178.032,86.49820350726812" fill="#7f8892" stroke-width="0.8" stroke="#010409"></polygon><polygon points="178.032,86.49820350726812 159.60000000000002,95.71420350726812 159.60000000000002,98.016 178.032,88.8" fill="#7dd445" stroke-width="0.8" stroke="#010409"></polygon><rect width="56" height="13" rx="6" ry="6" fill="#161b22" stroke-width="0.8" stroke="#a97bff" x="131.60000000000002" y="28.780721311475418"></rect><text font-size="7" font-family="monospace" fill="#e6edf3" text-anchor="middle" x="155.40908203125002" y="37.26265490522542"><tspan dy="0" x="155.40908203125002">MCP-server</tspan></text><polygon points="102.00000000000001,46.075803278688525 120.43200000000002,55.29180327868852 102.00000000000001,64.50780327868853 83.56800000000001,55.29180327868852" fill="#89e051" stroke-width="1.2" stroke="#010409"></polygon><polygon points="83.56800000000001,55.29180327868852 102.00000000000001,64.50780327868853 102.00000000000001,97.82921331710199 83.56800000000001,88.61321331710198" fill="#6bc233" stroke-width="0.8" stroke="#010409"></polygon><polygon points="83.56800000000001,88.61321331710198 102.00000000000001,97.82921331710199 102.00000000000001,98.016 83.56800000000001,88.8" fill="#175487" stroke-width="0.8" stroke="#010409"></polygon><polygon points="120.43200000000002,55.29180327868852 102.00000000000001,64.50780327868853 102.00000000000001,97.82921331710199 120.43200000000002,88.61321331710198" fill="#7dd445" stroke-width="0.8" stroke="#010409"></polygon><polygon points="120.43200000000002,88.61321331710198 102.00000000000001,97.82921331710199 102.00000000000001,98.016 120.43200000000002,88.8" fill="#296699" stroke-width="0.8" stroke="#010409"></polygon><rect width="37.599999999999994" height="13" rx="6" ry="6" fill="#161b22" stroke-width="0.8" stroke="#89e051" x="83.20000000000002" y="23.075803278688525"></rect><text font-size="7" font-family="monospace" fill="#e6edf3" text-anchor="middle" x="98.65898437500002" y="31.557736872438525"><tspan dy="0" x="98.65898437500002">Server</tspan></text><polygon points="188.4,62.377442622950824 206.832,71.59344262295082 188.4,80.80944262295081 169.96800000000002,71.59344262295082" fill="#a97bff" stroke-width="1.2" stroke="#010409"></polygon><polygon points="169.96800000000002,71.59344262295082 188.4,80.80944262295081 188.4,111.84038799658722 169.96800000000002,102.62438799658722" fill="#8b5de1" stroke-width="0.8" stroke="#010409"></polygon><polygon points="169.96800000000002,102.62438799658722 188.4,111.84038799658722 188.4,112.18029680894735 169.96800000000002,102.96429680894735" fill="#6d7680" stroke-width="0.8" stroke="#010409"></polygon><polygon points="169.96800000000002,102.96429680894735 188.4,112.18029680894735 188.4,112.416 169.96800000000002,103.2" fill="#6bc233" stroke-width="0.8" stroke="#010409"></polygon><polygon points="206.832,71.59344262295082 188.4,80.80944262295081 188.4,111.84038799658722 206.832,102.62438799658722" fill="#9d6ff3" stroke-width="0.8" stroke="#010409"></polygon><polygon points="206.832,102.62438799658722 188.4,111.84038799658722 188.4,112.18029680894735 206.832,102.96429680894735" fill="#7f8892" stroke-width="0.8" stroke="#010409"></polygon><polygon points="206.832,102.96429680894735 188.4,112.18029680894735 188.4,112.416 206.832,103.2" fill="#7dd445" stroke-width="0.8" stroke="#010409"></polygon><rect width="56" height="13" rx="6" ry="6" fill="#161b22" stroke-width="0.8" stroke="#a97bff" x="160.4" y="39.377442622950824"></rect><text font-size="7" font-family="monospace" fill="#e6edf3" text-anchor="middle" x="180.671484375" y="47.859376216700824"><tspan dy="0" x="180.671484375">Ai-copilot</tspan></text><polygon points="130.8,60.47580327868853 149.23200000000003,69.69180327868852 130.8,78.90780327868852 112.36800000000001,69.69180327868852" fill="#555555" stroke-width="1.2" stroke="#010409"></polygon><polygon points="112.36800000000001,69.69180327868852 130.8,78.90780327868852 130.8,111.2847448434193 112.36800000000001,102.06874484341931" fill="#373737" stroke-width="0.8" stroke="#010409"></polygon><polygon points="112.36800000000001,102.06874484341931 130.8,111.2847448434193 130.8,112.416 112.36800000000001,103.2" fill="#245a00" stroke-width="0.8" stroke="#010409"></polygon><polygon points="149.23200000000003,69.69180327868852 130.8,78.90780327868852 130.8,111.2847448434193 149.23200000000003,102.06874484341931" fill="#494949" stroke-width="0.8" stroke="#010409"></polygon><polygon points="149.23200000000003,102.06874484341931 130.8,111.2847448434193 130.8,112.416 149.23200000000003,103.2" fill="#366c0d" stroke-width="0.8" stroke="#010409"></polygon><rect width="42.199999999999996" height="13" rx="6" ry="6" fill="#161b22" stroke-width="0.8" stroke="#555555" x="109.70000000000002" y="37.47580327868853"></rect><text font-size="7" font-family="monospace" fill="#e6edf3" text-anchor="middle" x="128.50346679687502" y="45.95773687243853"><tspan dy="0" x="128.50346679687502">Ram_tes</tspan></text><polygon points="73.20000000000002,41.45940983606558 91.632,50.675409836065576 73.20000000000002,59.89140983606557 54.768000000000015,50.675409836065576" fill="#555555" stroke-width="1.2" stroke="#010409"></polygon><polygon points="54.768000000000015,50.675409836065576 73.20000000000002,59.89140983606557 73.20000000000002,109.83824117064583 54.768000000000015,100.62224117064584" fill="#373737" stroke-width="0.8" stroke="#010409"></polygon><polygon points="54.768000000000015,100.62224117064584 73.20000000000002,109.83824117064583 73.20000000000002,112.416 54.768000000000015,103.2" fill="#245a00" stroke-width="0.8" stroke="#010409"></polygon><polygon points="91.632,50.675409836065576 73.20000000000002,59.89140983606557 73.20000000000002,109.83824117064583 91.632,100.62224117064584" fill="#494949" stroke-width="0.8" stroke="#010409"></polygon><polygon points="91.632,100.62224117064584 73.20000000000002,109.83824117064583 73.20000000000002,112.416 91.632,103.2" fill="#366c0d" stroke-width="0.8" stroke="#010409"></polygon><rect width="65.19999999999999" height="13" rx="6" ry="6" fill="#161b22" stroke-width="0.8" stroke="#555555" x="40.60000000000002" y="18.459409836065582"></rect><text font-size="7" font-family="monospace" fill="#e6edf3" text-anchor="middle" x="66.11293945312502" y="26.941343429815582"><tspan dy="0" x="66.11293945312502">Kernel-test…</tspan></text><polygon points="217.20000000000002,76.77744262295083 235.632,85.99344262295081 217.20000000000002,95.20944262295082 198.76800000000003,85.99344262295081" fill="#a97bff" stroke-width="1.2" stroke="#010409"></polygon><polygon points="198.76800000000003,85.99344262295081 217.20000000000002,95.20944262295082 217.20000000000002,119.94115415361583 198.76800000000003,110.72515415361582" fill="#8b5de1" stroke-width="0.8" stroke="#010409"></polygon><polygon points="198.76800000000003,110.72515415361582 217.20000000000002,119.94115415361583 217.20000000000002,126.816 198.76800000000003,117.6" fill="#925400" stroke-width="0.8" stroke="#010409"></polygon><polygon points="235.632,85.99344262295081 217.20000000000002,95.20944262295082 217.20000000000002,119.94115415361583 235.632,110.72515415361582" fill="#9d6ff3" stroke-width="0.8" stroke="#010409"></polygon><polygon points="235.632,110.72515415361582 217.20000000000002,119.94115415361583 217.20000000000002,126.816 235.632,117.6" fill="#a4660d" stroke-width="0.8" stroke="#010409"></polygon><rect width="33" height="13" rx="6" ry="6" fill="#161b22" stroke-width="0.8" stroke="#a97bff" x="200.70000000000002" y="53.77744262295083"></rect><text font-size="7" font-family="monospace" fill="#e6edf3" text-anchor="middle" x="214.91484375000002" y="62.25937621670083"><tspan dy="0" x="214.91484375000002">Glens</tspan></text><polygon points="159.60000000000002,72.97416393442624 178.032,82.19016393442622 159.6,91.40616393442623 141.168,82.19016393442622" fill="#8b949e" stroke-width="1.2" stroke="#010409"></polygon><polygon points="141.168,82.19016393442622 159.6,91.40616393442623 159.6,126.816 141.168,117.6" fill="#6d7680" stroke-width="0.8" stroke="#010409"></polygon><polygon points="178.032,82.19016393442622 159.6,91.40616393442623 159.6,126.816 178.032,117.6" fill="#7f8892" stroke-width="0.8" stroke="#010409"></polygon><rect width="65.19999999999999" height="13" rx="6" ry="6" fill="#161b22" stroke-width="0.8" stroke="#8b949e" x="127.00000000000003" y="49.974163934426244"></rect><text font-size="7" font-family="monospace" fill="#e6edf3" text-anchor="middle" x="152.68041992187503" y="58.456097528176244"><tspan dy="0" x="152.68041992187503">Git-Compiler</tspan></text><polygon points="102,48.25285245901641 120.432,57.46885245901639 102.00000000000001,66.6848524590164 83.56800000000001,57.46885245901639" fill="#89e051" stroke-width="1.2" stroke="#010409"></polygon><polygon points="83.56800000000001,57.46885245901639 102.00000000000001,66.6848524590164 102.00000000000001,114.42094051487052 83.56800000000001,105.20494051487051" fill="#6bc233" stroke-width="0.8" stroke="#010409"></polygon><polygon points="83.56800000000001,105.20494051487051 102.00000000000001,114.42094051487052 102.00000000000001,120.4617316378352 83.56800000000001,111.24573163783519" fill="#373737" stroke-width="0.8" stroke="#010409"></polygon><polygon points="83.56800000000001,111.24573163783519 102.00000000000001,120.4617316378352 102.00000000000001,125.69482464898692 83.56800000000001,116.47882464898692" fill="#c08766" stroke-width="0.8" stroke="#010409"></polygon><polygon points="83.56800000000001,116.47882464898692 102.00000000000001,125.69482464898692 102.00000000000001,126.816 83.56800000000001,117.6" fill="#245a00" stroke-width="0.8" stroke="#010409"></polygon><polygon points="120.432,57.46885245901639 102.00000000000001,66.6848524590164 102.00000000000001,114.42094051487052 120.432,105.20494051487051" fill="#7dd445" stroke-width="0.8" stroke="#010409"></polygon><polygon points="120.432,105.20494051487051 102.00000000000001,114.42094051487052 102.00000000000001,120.4617316378352 120.432,111.24573163783519" fill="#494949" stroke-width="0.8" stroke="#010409"></polygon><polygon points="120.432,111.24573163783519 102.00000000000001,120.4617316378352 102.00000000000001,125.69482464898692 120.432,116.47882464898692" fill="#d29978" stroke-width="0.8" stroke="#010409"></polygon><polygon points="120.432,116.47882464898692 102.00000000000001,125.69482464898692 102.00000000000001,126.816 120.432,117.6" fill="#366c0d" stroke-width="0.8" stroke="#010409"></polygon><rect width="33" height="13" rx="6" ry="6" fill="#161b22" stroke-width="0.8" stroke="#89e051" x="85.5" y="25.25285245901641"></rect><text font-size="7" font-family="monospace" fill="#e6edf3" text-anchor="middle" x="99.477294921875" y="33.73478605276641"><tspan dy="0" x="99.477294921875">my-ai</tspan></text><polygon points="188.4,91.17744262295082 206.832,100.39344262295081 188.4,109.60944262295082 169.96800000000002,100.39344262295081" fill="#8b949e" stroke-width="1.2" stroke="#010409"></polygon><polygon points="169.96800000000002,100.39344262295081 188.4,109.60944262295082 188.4,141.216 169.96800000000002,132" fill="#6d7680" stroke-width="0.8" stroke="#010409"></polygon><polygon points="206.832,100.39344262295081 188.4,109.60944262295082 188.4,141.216 206.832,132" fill="#7f8892" stroke-width="0.8" stroke="#010409"></polygon><rect width="60.599999999999994" height="13" rx="6" ry="6" fill="#161b22" stroke-width="0.8" stroke="#8b949e" x="158.10000000000002" y="68.17744262295082"></rect><text font-size="7" font-family="monospace" fill="#e6edf3" text-anchor="middle" x="183.08657226562502" y="76.65937621670082"><tspan dy="0" x="183.08657226562502">Lwgjl-arm64</tspan></text><rect width="170" height="111" rx="8" ry="8" fill="#161b22" stroke-width="1" stroke="#30363d" x="16" y="203.8"></rect><text font-size="11" font-family="monospace" fill="#39d353" text-anchor="start" x="24" y="220.55732421875"><tspan dy="0" x="24">Top Commits</tspan></text><text font-size="9" font-family="monospace" fill="#c9d1d9" text-anchor="start" x="24" y="235.41962890625"><tspan dy="0" x="24">1. Genta-ta</tspan></text><text font-size="9" font-family="monospace" fill="#58a6ff" text-anchor="end" x="188.2919921875" y="235.41962890625"><tspan dy="0" x="188.2919921875">61</tspan></text><text font-size="9" font-family="monospace" fill="#c9d1d9" text-anchor="start" x="24" y="252.41962890625"><tspan dy="0" x="24">2. my-ai</tspan></text><text font-size="9" font-family="monospace" fill="#58a6ff" text-anchor="end" x="188.2919921875" y="252.41962890625"><tspan dy="0" x="188.2919921875">19</tspan></text><text font-size="9" font-family="monospace" fill="#c9d1d9" text-anchor="start" x="24" y="269.41962890625"><tspan dy="0" x="24">3. Kernel-tester</tspan></text><text font-size="9" font-family="monospace" fill="#58a6ff" text-anchor="end" x="188.2919921875" y="269.41962890625"><tspan dy="0" x="188.2919921875">15</tspan></text><text font-size="9" font-family="monospace" fill="#c9d1d9" text-anchor="start" x="24" y="286.41962890625"><tspan dy="0" x="24">4. Git-Compiler</tspan></text><text font-size="9" font-family="monospace" fill="#58a6ff" text-anchor="end" x="183.14599609375" y="286.41962890625"><tspan dy="0" x="183.14599609375">6</tspan></text><text font-size="9" font-family="monospace" fill="#c9d1d9" text-anchor="start" x="24" y="303.41962890625"><tspan dy="0" x="24">5. Server</tspan></text><text font-size="9" font-family="monospace" fill="#58a6ff" text-anchor="end" x="183.14599609375" y="303.41962890625"><tspan dy="0" x="183.14599609375">5</tspan></text><rect width="9" height="9" rx="2" ry="2" fill="#f1e05a" x="14" y="14"></rect><text font-size="9" font-family="monospace" fill="#c9d1d9" text-anchor="start" x="27" y="22.61962890625"><tspan dy="0" x="27">JavaScript</tspan></text><rect width="9" height="9" rx="2" ry="2" fill="#a97bff" x="14" y="30"></rect><text font-size="9" font-family="monospace" fill="#c9d1d9" text-anchor="start" x="27" y="38.61962890625"><tspan dy="0" x="27">Kotlin</tspan></text><rect width="9" height="9" rx="2" ry="2" fill="#8b949e" x="14" y="46"></rect><text font-size="9" font-family="monospace" fill="#c9d1d9" text-anchor="start" x="27" y="54.61962890625"><tspan dy="0" x="27">Batchfile</tspan></text><rect width="9" height="9" rx="2" ry="2" fill="#89e051" x="14" y="62"></rect><text font-size="9" font-family="monospace" fill="#c9d1d9" text-anchor="start" x="27" y="70.61962890625"><tspan dy="0" x="27">Shell</tspan></text><rect width="9" height="9" rx="2" ry="2" fill="#3572a5" x="14" y="78"></rect><text font-size="9" font-family="monospace" fill="#c9d1d9" text-anchor="start" x="27" y="86.61962890625"><tspan dy="0" x="27">Python</tspan></text><rect width="9" height="9" rx="2" ry="2" fill="#555555" x="247.60000000000002" y="14"></rect><text font-size="9" font-family="monospace" fill="#c9d1d9" text-anchor="end" x="247.27773437500002" y="22.61962890625"><tspan dy="0" x="247.27773437500002">C</tspan></text><rect width="9" height="9" rx="2" ry="2" fill="#427819" x="247.60000000000002" y="30"></rect><text font-size="9" font-family="monospace" fill="#c9d1d9" text-anchor="end" x="277.15615234375" y="38.61962890625"><tspan dy="0" x="277.15615234375">Makefile</tspan></text><rect width="9" height="9" rx="2" ry="2" fill="#b07219" x="247.60000000000002" y="46"></rect><text font-size="9" font-family="monospace" fill="#c9d1d9" text-anchor="end" x="258.52333984375" y="54.61962890625"><tspan dy="0" x="258.52333984375">Java</tspan></text><rect width="9" height="9" rx="2" ry="2" fill="#dea584" x="247.60000000000002" y="62"></rect><text font-size="9" font-family="monospace" fill="#c9d1d9" text-anchor="end" x="260.15810546875" y="70.61962890625"><tspan dy="0" x="260.15810546875">Rust</tspan></text></svg>