<svg xmlns="http://www.w3.org/2000/svg" version="1.1" xmlns:xlink="http://www.w3.org/1999/xlink" viewBox="0 0 232.8 316.4" width="232.8" height="316.4" shape-rendering="crispEdges" style="image-rendering: pixelated;"><rect width="232.8" height="316.4" x="0" y="0" fill="#0d1117"></rect><line x1="116.4" y1="60" x2="30" y2="103.2" stroke-opacity="0.15" stroke-width="1" stroke="#ffffff"></line><line x1="145.20000000000002" y1="74.4" x2="58.800000000000004" y2="117.6" stroke-opacity="0.15" stroke-width="1" stroke="#ffffff"></line><line x1="174" y1="88.8" x2="87.60000000000001" y2="132" stroke-opacity="0.15" stroke-width="1" stroke="#ffffff"></line><line x1="202.8" y1="103.2" x2="116.4" y2="146.4" stroke-opacity="0.15" stroke-width="1" stroke="#ffffff"></line><line x1="116.4" y1="60" x2="202.8" y2="103.2" stroke-opacity="0.15" stroke-width="1" stroke="#ffffff"></line><line x1="87.60000000000001" y1="74.4" x2="174" y2="117.6" stroke-opacity="0.15" stroke-width="1" stroke="#ffffff"></line><line x1="58.800000000000004" y1="88.8" x2="145.20000000000002" y2="132" stroke-opacity="0.15" stroke-width="1" stroke="#ffffff"></line><line x1="30" y1="103.2" x2="116.4" y2="146.4" stroke-opacity="0.15" stroke-width="1" stroke="#ffffff"></line><polygon points="116.4,-74.816 134.83200000000002,-65.6 116.4,-56.384 97.968,-65.6" fill="#f1e05a" stroke-width="1.2" stroke="#010409"></polygon><polygon points="97.968,-65.6 116.4,-56.384 116.4,83.616 97.968,74.4" fill="#d3c23c" stroke-width="0.8" stroke="#010409"></polygon><polygon points="134.83200000000002,-65.6 116.4,-56.384 116.4,83.616 134.83200000000002,74.4" fill="#e5d44e" stroke-width="0.8" stroke="#010409"></polygon><rect width="46.8" height="13" rx="6" ry="6" fill="#161b22" stroke-width="0.8" stroke="#f1e05a" x="93" y="-97.816"></rect><text font-size="7" font-family="monospace" fill="#e6edf3" text-anchor="middle" x="112.150390625" y="-89.33406640625"><tspan dy="0" x="112.150390625">Genta-ta</tspan></text><polygon points="145.20000000000002,44.7933023255814 163.632,54.009302325581395 145.20000000000002,63.2253023255814 126.768,54.009302325581395" fill="#a97bff" stroke-width="1.2" stroke="#010409"></polygon><polygon points="126.768,54.009302325581395 145.20000000000002,63.2253023255814 145.20000000000002,97.38239910036384 126.768,88.16639910036383" fill="#8b5de1" stroke-width="0.8" stroke="#010409"></polygon><polygon points="126.768,88.16639910036383 145.20000000000002,97.38239910036384 145.20000000000002,97.75655135575244 126.768,88.54055135575243" fill="#6d7680" stroke-width="0.8" stroke="#010409"></polygon><polygon points="126.768,88.54055135575243 145.20000000000002,97.75655135575244 145.20000000000002,98.016 126.768,88.8" fill="#6bc233" stroke-width="0.8" stroke="#010409"></polygon><polygon points="163.632,54.009302325581395 145.20000000000002,63.2253023255814 145.20000000000002,97.38239910036384 163.632,88.16639910036383" fill="#9d6ff3" stroke-width="0.8" stroke="#010409"></polygon><polygon points="163.632,88.16639910036383 145.20000000000002,97.38239910036384 145.20000000000002,97.75655135575244 163.632,88.54055135575243" fill="#7f8892" stroke-width="0.8" stroke="#010409"></polygon><polygon points="163.632,88.54055135575243 145.20000000000002,97.75655135575244 145.20000000000002,98.016 163.632,88.8" fill="#7dd445" stroke-width="0.8" stroke="#010409"></polygon><rect width="56" height="13" rx="6" ry="6" fill="#161b22" stroke-width="0.8" stroke="#a97bff" x="117.20000000000002" y="21.7933023255814"></rect><text font-size="7" font-family="monospace" fill="#e6edf3" text-anchor="middle" x="137.47148437500002" y="30.2752359193314"><tspan dy="0" x="137.47148437500002">Ai-copilot</tspan></text><polygon points="87.60000000000001,42.095627906976745 106.03200000000001,51.31162790697674 87.60000000000001,60.52762790697675 69.168,51.31162790697674" fill="#89e051" stroke-width="1.2" stroke="#010409"></polygon><polygon points="69.168,51.31162790697674 87.60000000000001,60.52762790697675 87.60000000000001,97.8070263948627 69.168,88.5910263948627" fill="#6bc233" stroke-width="0.8" stroke="#010409"></polygon><polygon points="69.168,88.5910263948627 87.60000000000001,97.8070263948627 87.60000000000001,98.016 69.168,88.8" fill="#175487" stroke-width="0.8" stroke="#010409"></polygon><polygon points="106.03200000000001,51.31162790697674 87.60000000000001,60.52762790697675 87.60000000000001,97.8070263948627 106.03200000000001,88.5910263948627" fill="#7dd445" stroke-width="0.8" stroke="#010409"></polygon><polygon points="106.03200000000001,88.5910263948627 87.60000000000001,97.8070263948627 87.60000000000001,98.016 106.03200000000001,88.8" fill="#296699" stroke-width="0.8" stroke="#010409"></polygon><rect width="37.599999999999994" height="13" rx="6" ry="6" fill="#161b22" stroke-width="0.8" stroke="#89e051" x="68.80000000000001" y="19.095627906976745"></rect><text font-size="7" font-family="monospace" fill="#e6edf3" text-anchor="middle" x="84.25898437500001" y="27.577561500726745"><tspan dy="0" x="84.25898437500001">Server</tspan></text><polygon points="174,59.193302325581406 192.43200000000002,68.4093023255814 174,77.6253023255814 155.568,68.4093023255814" fill="#a97bff" stroke-width="1.2" stroke="#010409"></polygon><polygon points="155.568,68.4093023255814 174,77.6253023255814 174,104.84856136546325 155.568,95.63256136546326" fill="#8b5de1" stroke-width="0.8" stroke="#010409"></polygon><polygon points="155.568,95.63256136546326 174,104.84856136546325 174,112.416 155.568,103.2" fill="#925400" stroke-width="0.8" stroke="#010409"></polygon><polygon points="192.43200000000002,68.4093023255814 174,77.6253023255814 174,104.84856136546325 192.43200000000002,95.63256136546326" fill="#9d6ff3" stroke-width="0.8" stroke="#010409"></polygon><polygon points="192.43200000000002,95.63256136546326 174,104.84856136546325 174,112.416 192.43200000000002,103.2" fill="#a4660d" stroke-width="0.8" stroke="#010409"></polygon><rect width="33" height="13" rx="6" ry="6" fill="#161b22" stroke-width="0.8" stroke="#a97bff" x="157.5" y="36.193302325581406"></rect><text font-size="7" font-family="monospace" fill="#e6edf3" text-anchor="middle" x="171.71484375" y="44.675235919331406"><tspan dy="0" x="171.71484375">Glens</tspan></text><polygon points="116.4,56.49562790697675 134.83200000000002,65.71162790697674 116.4,74.92762790697674 97.968,65.71162790697674" fill="#555555" stroke-width="1.2" stroke="#010409"></polygon><polygon points="97.968,65.71162790697674 116.4,74.92762790697674 116.4,111.15037193308956 97.968,101.93437193308955" fill="#373737" stroke-width="0.8" stroke="#010409"></polygon><polygon points="97.968,101.93437193308955 116.4,111.15037193308956 116.4,112.416 97.968,103.2" fill="#245a00" stroke-width="0.8" stroke="#010409"></polygon><polygon points="134.83200000000002,65.71162790697674 116.4,74.92762790697674 116.4,111.15037193308956 134.83200000000002,101.93437193308955" fill="#494949" stroke-width="0.8" stroke="#010409"></polygon><polygon points="134.83200000000002,101.93437193308955 116.4,111.15037193308956 116.4,112.416 134.83200000000002,103.2" fill="#366c0d" stroke-width="0.8" stroke="#010409"></polygon><rect width="42.199999999999996" height="13" rx="6" ry="6" fill="#161b22" stroke-width="0.8" stroke="#555555" x="95.30000000000001" y="33.49562790697675"></rect><text font-size="7" font-family="monospace" fill="#e6edf3" text-anchor="middle" x="114.10346679687501" y="41.97756150072675"><tspan dy="0" x="114.10346679687501">Ram_tes</tspan></text><polygon points="58.800000000000004,59.193302325581406 77.232,68.4093023255814 58.80000000000001,77.6253023255814 40.36800000000001,68.4093023255814" fill="#8b949e" stroke-width="1.2" stroke="#010409"></polygon><polygon points="40.36800000000001,68.4093023255814 58.80000000000001,77.6253023255814 58.80000000000001,112.416 40.36800000000001,103.2" fill="#6d7680" stroke-width="0.8" stroke="#010409"></polygon><polygon points="77.232,68.4093023255814 58.80000000000001,77.6253023255814 58.80000000000001,112.416 77.232,103.2" fill="#7f8892" stroke-width="0.8" stroke="#010409"></polygon><rect width="60.599999999999994" height="13" rx="6" ry="6" fill="#161b22" stroke-width="0.8" stroke="#8b949e" x="28.500000000000007" y="36.193302325581406"></rect><text font-size="7" font-family="monospace" fill="#e6edf3" text-anchor="middle" x="53.48657226562501" y="44.675235919331406"><tspan dy="0" x="53.48657226562501">Lwgjl-arm64</tspan></text><polygon points="145.20000000000002,68.19795348837211 163.632,77.41395348837209 145.2,86.6299534883721 126.76800000000001,77.41395348837209" fill="#8b949e" stroke-width="1.2" stroke="#010409"></polygon><polygon points="126.76800000000001,77.41395348837209 145.2,86.6299534883721 145.2,126.816 126.76800000000001,117.6" fill="#6d7680" stroke-width="0.8" stroke="#010409"></polygon><polygon points="163.632,77.41395348837209 145.2,86.6299534883721 145.2,126.816 163.632,117.6" fill="#7f8892" stroke-width="0.8" stroke="#010409"></polygon><rect width="65.19999999999999" height="13" rx="6" ry="6" fill="#161b22" stroke-width="0.8" stroke="#8b949e" x="112.60000000000002" y="45.19795348837211"></rect><text font-size="7" font-family="monospace" fill="#e6edf3" text-anchor="middle" x="138.28041992187502" y="53.67988708212211"><tspan dy="0" x="138.28041992187502">Git-Compiler</tspan></text><polygon points="87.6,43.91888372093024 106.032,53.13488372093022 87.60000000000001,62.35088372093023 69.168,53.13488372093022" fill="#555555" stroke-width="1.2" stroke="#010409"></polygon><polygon points="69.168,53.13488372093022 87.60000000000001,62.35088372093023 87.60000000000001,123.65223380677384 69.168,114.43623380677383" fill="#373737" stroke-width="0.8" stroke="#010409"></polygon><polygon points="69.168,114.43623380677383 87.60000000000001,123.65223380677384 87.60000000000001,126.816 69.168,117.6" fill="#245a00" stroke-width="0.8" stroke="#010409"></polygon><polygon points="106.032,53.13488372093022 87.60000000000001,62.35088372093023 87.60000000000001,123.65223380677384 106.032,114.43623380677383" fill="#494949" stroke-width="0.8" stroke="#010409"></polygon><polygon points="106.032,114.43623380677383 87.60000000000001,123.65223380677384 87.60000000000001,126.816 106.032,117.6" fill="#366c0d" stroke-width="0.8" stroke="#010409"></polygon><rect width="65.19999999999999" height="13" rx="6" ry="6" fill="#161b22" stroke-width="0.8" stroke="#555555" x="55" y="20.91888372093024"></rect><text font-size="7" font-family="monospace" fill="#e6edf3" text-anchor="middle" x="80.512939453125" y="29.40081731468024"><tspan dy="0" x="80.512939453125">Kernel-test…</tspan></text><polygon points="116.4,47.528186046511635 134.832,56.74418604651163 116.4,65.96018604651164 97.96800000000002,56.74418604651163" fill="#89e051" stroke-width="1.2" stroke="#010409"></polygon><polygon points="97.96800000000002,56.74418604651163 116.4,65.96018604651164 116.4,125.70323617124458 97.96800000000002,116.48723617124458" fill="#6bc233" stroke-width="0.8" stroke="#010409"></polygon><polygon points="97.96800000000002,116.48723617124458 116.4,125.70323617124458 116.4,133.2634553167693 97.96800000000002,124.04745531676927" fill="#373737" stroke-width="0.8" stroke="#010409"></polygon><polygon points="97.96800000000002,124.04745531676927 116.4,133.2634553167693 116.4,139.81281767144776 97.96800000000002,130.59681767144775" fill="#c08766" stroke-width="0.8" stroke="#010409"></polygon><polygon points="97.96800000000002,130.59681767144775 116.4,139.81281767144776 116.4,141.216 97.96800000000002,132" fill="#245a00" stroke-width="0.8" stroke="#010409"></polygon><polygon points="134.832,56.74418604651163 116.4,65.96018604651164 116.4,125.70323617124458 134.832,116.48723617124458" fill="#7dd445" stroke-width="0.8" stroke="#010409"></polygon><polygon points="134.832,116.48723617124458 116.4,125.70323617124458 116.4,133.2634553167693 134.832,124.04745531676927" fill="#494949" stroke-width="0.8" stroke="#010409"></polygon><polygon points="134.832,124.04745531676927 116.4,133.2634553167693 116.4,139.81281767144776 134.832,130.59681767144775" fill="#d29978" stroke-width="0.8" stroke="#010409"></polygon><polygon points="134.832,130.59681767144775 116.4,139.81281767144776 116.4,141.216 134.832,132" fill="#366c0d" stroke-width="0.8" stroke="#010409"></polygon><rect width="33" height="13" rx="6" ry="6" fill="#161b22" stroke-width="0.8" stroke="#89e051" x="99.9" y="24.528186046511635"></rect><text font-size="7" font-family="monospace" fill="#e6edf3" text-anchor="middle" x="113.877294921875" y="33.010119640261635"><tspan dy="0" x="113.877294921875">my-ai</tspan></text><rect width="170" height="111" rx="8" ry="8" fill="#161b22" stroke-width="1" stroke="#30363d" x="16" y="189.39999999999998"></rect><text font-size="11" font-family="monospace" fill="#39d353" text-anchor="start" x="24" y="206.15732421874998"><tspan dy="0" x="24">Top Commits</tspan></text><text font-size="9" font-family="monospace" fill="#c9d1d9" text-anchor="start" x="24" y="221.01962890624998"><tspan dy="0" x="24">1. Genta-ta</tspan></text><text font-size="9" font-family="monospace" fill="#58a6ff" text-anchor="end" x="188.2919921875" y="221.01962890624998"><tspan dy="0" x="188.2919921875">43</tspan></text><text font-size="9" font-family="monospace" fill="#c9d1d9" text-anchor="start" x="24" y="238.01962890624998"><tspan dy="0" x="24">2. my-ai</tspan></text><text font-size="9" font-family="monospace" fill="#58a6ff" text-anchor="end" x="188.2919921875" y="238.01962890624998"><tspan dy="0" x="188.2919921875">19</tspan></text><text font-size="9" font-family="monospace" fill="#c9d1d9" text-anchor="start" x="24" y="255.01962890624998"><tspan dy="0" x="24">3. Kernel-tester</tspan></text><text font-size="9" font-family="monospace" fill="#58a6ff" text-anchor="end" x="188.2919921875" y="255.01962890624998"><tspan dy="0" x="188.2919921875">15</tspan></text><text font-size="9" font-family="monospace" fill="#c9d1d9" text-anchor="start" x="24" y="272.01962890625"><tspan dy="0" x="24">4. Git-Compiler</tspan></text><text font-size="9" font-family="monospace" fill="#58a6ff" text-anchor="end" x="183.14599609375" y="272.01962890625"><tspan dy="0" x="183.14599609375">6</tspan></text><text font-size="9" font-family="monospace" fill="#c9d1d9" text-anchor="start" x="24" y="289.01962890625"><tspan dy="0" x="24">5. Server</tspan></text><text font-size="9" font-family="monospace" fill="#58a6ff" text-anchor="end" x="183.14599609375" y="289.01962890625"><tspan dy="0" x="183.14599609375">5</tspan></text><rect width="9" height="9" rx="2" ry="2" fill="#f1e05a" x="14" y="14"></rect><text font-size="9" font-family="monospace" fill="#c9d1d9" text-anchor="start" x="27" y="22.61962890625"><tspan dy="0" x="27">JavaScript</tspan></text><rect width="9" height="9" rx="2" ry="2" fill="#a97bff" x="14" y="30"></rect><text font-size="9" font-family="monospace" fill="#c9d1d9" text-anchor="start" x="27" y="38.61962890625"><tspan dy="0" x="27">Kotlin</tspan></text><rect width="9" height="9" rx="2" ry="2" fill="#8b949e" x="14" y="46"></rect><text font-size="9" font-family="monospace" fill="#c9d1d9" text-anchor="start" x="27" y="54.61962890625"><tspan dy="0" x="27">Batchfile</tspan></text><rect width="9" height="9" rx="2" ry="2" fill="#89e051" x="14" y="62"></rect><text font-size="9" font-family="monospace" fill="#c9d1d9" text-anchor="start" x="27" y="70.61962890625"><tspan dy="0" x="27">Shell</tspan></text><rect width="9" height="9" rx="2" ry="2" fill="#3572a5" x="14" y="78"></rect><text font-size="9" font-family="monospace" fill="#c9d1d9" text-anchor="start" x="27" y="86.61962890625"><tspan dy="0" x="27">Python</tspan></text><rect width="9" height="9" rx="2" ry="2" fill="#b07219" x="218.8" y="14"></rect><text font-size="9" font-family="monospace" fill="#c9d1d9" text-anchor="end" x="229.72333984375" y="22.61962890625"><tspan dy="0" x="229.72333984375">Java</tspan></text><rect width="9" height="9" rx="2" ry="2" fill="#555555" x="218.8" y="30"></rect><text font-size="9" font-family="monospace" fill="#c9d1d9" text-anchor="end" x="218.477734375" y="38.61962890625"><tspan dy="0" x="218.477734375">C</tspan></text><rect width="9" height="9" rx="2" ry="2" fill="#427819" x="218.8" y="46"></rect><text font-size="9" font-family="monospace" fill="#c9d1d9" text-anchor="end" x="248.35615234375" y="54.61962890625"><tspan dy="0" x="248.35615234375">Makefile</tspan></text><rect width="9" height="9" rx="2" ry="2" fill="#dea584" x="218.8" y="62"></rect><text font-size="9" font-family="monospace" fill="#c9d1d9" text-anchor="end" x="231.35810546875" y="70.61962890625"><tspan dy="0" x="231.35810546875">Rust</tspan></text></svg>