<svg xmlns="http://www.w3.org/2000/svg" version="1.1" xmlns:xlink="http://www.w3.org/1999/xlink" viewBox="0 0 261.6 330.8" width="261.6" height="330.8" shape-rendering="crispEdges" style="image-rendering: pixelated;"><rect width="261.6" height="330.8" x="0" y="0" fill="#0d1117"></rect><line x1="130.8" y1="60" x2="44.400000000000006" y2="103.2" stroke-opacity="0.15" stroke-width="1" stroke="#ffffff"></line><line x1="159.60000000000002" y1="74.4" x2="73.20000000000002" y2="117.6" stroke-opacity="0.15" stroke-width="1" stroke="#ffffff"></line><line x1="188.4" y1="88.8" x2="102.00000000000001" y2="132" stroke-opacity="0.15" stroke-width="1" stroke="#ffffff"></line><line x1="217.20000000000002" y1="103.2" x2="130.8" y2="146.4" stroke-opacity="0.15" stroke-width="1" stroke="#ffffff"></line><line x1="246" y1="117.6" x2="159.60000000000002" y2="160.8" stroke-opacity="0.15" stroke-width="1" stroke="#ffffff"></line><line x1="130.8" y1="60" x2="246" y2="117.6" stroke-opacity="0.15" stroke-width="1" stroke="#ffffff"></line><line x1="102.00000000000001" y1="74.4" x2="217.20000000000002" y2="132" stroke-opacity="0.15" stroke-width="1" stroke="#ffffff"></line><line x1="73.20000000000002" y1="88.8" x2="188.4" y2="146.4" stroke-opacity="0.15" stroke-width="1" stroke="#ffffff"></line><line x1="44.400000000000006" y1="103.2" x2="159.60000000000002" y2="160.8" stroke-opacity="0.15" stroke-width="1" stroke="#ffffff"></line><polygon points="130.8,-74.816 149.23200000000003,-65.6 130.8,-56.384 112.36800000000001,-65.6" fill="#f1e05a" stroke-width="1.2" stroke="#010409"></polygon><polygon points="112.36800000000001,-65.6 130.8,-56.384 130.8,83.616 112.36800000000001,74.4" fill="#d3c23c" stroke-width="0.8" stroke="#010409"></polygon><polygon points="149.23200000000003,-65.6 130.8,-56.384 130.8,83.616 149.23200000000003,74.4" fill="#e5d44e" stroke-width="0.8" stroke="#010409"></polygon><rect width="46.8" height="13" rx="6" ry="6" fill="#161b22" stroke-width="0.8" stroke="#f1e05a" x="107.4" y="-97.816"></rect><text font-size="7" font-family="monospace" fill="#e6edf3" text-anchor="middle" x="126.550390625" y="-89.33406640625"><tspan dy="0" x="126.550390625">Genta-ta</tspan></text><polygon points="159.60000000000002,51.717333333333336 178.032,60.93333333333333 159.60000000000002,70.14933333333335 141.168,60.93333333333333" fill="#a97bff" stroke-width="1.2" stroke="#010409"></polygon><polygon points="141.168,60.93333333333333 159.60000000000002,70.14933333333335 159.60000000000002,92.38195497458243 141.168,83.16595497458242" fill="#8b5de1" stroke-width="0.8" stroke="#010409"></polygon><polygon points="141.168,83.16595497458242 159.60000000000002,92.38195497458243 159.60000000000002,95.70895570079884 141.168,86.49295570079883" fill="#6d7680" stroke-width="0.8" stroke="#010409"></polygon><polygon points="141.168,86.49295570079883 159.60000000000002,95.70895570079884 159.60000000000002,98.016 141.168,88.8" fill="#6bc233" stroke-width="0.8" stroke="#010409"></polygon><polygon points="178.032,60.93333333333333 159.60000000000002,70.14933333333335 159.60000000000002,92.38195497458243 178.032,83.16595497458242" fill="#9d6ff3" stroke-width="0.8" stroke="#010409"></polygon><polygon points="178.032,83.16595497458242 159.60000000000002,92.38195497458243 159.60000000000002,95.70895570079884 178.032,86.49295570079883" fill="#7f8892" stroke-width="0.8" stroke="#010409"></polygon><polygon points="178.032,86.49295570079883 159.60000000000002,95.70895570079884 159.60000000000002,98.016 178.032,88.8" fill="#7dd445" stroke-width="0.8" stroke="#010409"></polygon><rect width="56" height="13" rx="6" ry="6" fill="#161b22" stroke-width="0.8" stroke="#a97bff" x="131.60000000000002" y="28.717333333333336"></rect><text font-size="7" font-family="monospace" fill="#e6edf3" text-anchor="middle" x="155.40908203125002" y="37.199266927083336"><tspan dy="0" x="155.40908203125002">MCP-server</tspan></text><polygon points="102.00000000000001,45.91733333333334 120.43200000000002,55.13333333333333 102.00000000000001,64.34933333333333 83.56800000000001,55.13333333333333" fill="#89e051" stroke-width="1.2" stroke="#010409"></polygon><polygon points="83.56800000000001,55.13333333333333 102.00000000000001,64.34933333333333 102.00000000000001,97.82832994890173 83.56800000000001,88.61232994890172" fill="#6bc233" stroke-width="0.8" stroke="#010409"></polygon><polygon points="83.56800000000001,88.61232994890172 102.00000000000001,97.82832994890173 102.00000000000001,98.016 83.56800000000001,88.8" fill="#175487" stroke-width="0.8" stroke="#010409"></polygon><polygon points="120.43200000000002,55.13333333333333 102.00000000000001,64.34933333333333 102.00000000000001,97.82832994890173 120.43200000000002,88.61232994890172" fill="#7dd445" stroke-width="0.8" stroke="#010409"></polygon><polygon points="120.43200000000002,88.61232994890172 102.00000000000001,97.82832994890173 102.00000000000001,98.016 120.43200000000002,88.8" fill="#296699" stroke-width="0.8" stroke="#010409"></polygon><rect width="37.599999999999994" height="13" rx="6" ry="6" fill="#161b22" stroke-width="0.8" stroke="#89e051" x="83.20000000000002" y="22.91733333333334"></rect><text font-size="7" font-family="monospace" fill="#e6edf3" text-anchor="middle" x="98.65898437500002" y="31.39926692708334"><tspan dy="0" x="98.65898437500002">Server</tspan></text><polygon points="188.4,62.250666666666675 206.832,71.46666666666667 188.4,80.68266666666666 169.96800000000002,71.46666666666667" fill="#a97bff" stroke-width="1.2" stroke="#010409"></polygon><polygon points="169.96800000000002,71.46666666666667 188.4,80.68266666666666 188.4,111.83807917942276 169.96800000000002,102.62207917942277" fill="#8b5de1" stroke-width="0.8" stroke="#010409"></polygon><polygon points="169.96800000000002,102.62207917942277 188.4,111.83807917942276 188.4,112.1793513881257 169.96800000000002,102.9633513881257" fill="#6d7680" stroke-width="0.8" stroke="#010409"></polygon><polygon points="169.96800000000002,102.9633513881257 188.4,112.1793513881257 188.4,112.416 169.96800000000002,103.2" fill="#6bc233" stroke-width="0.8" stroke="#010409"></polygon><polygon points="206.832,71.46666666666667 188.4,80.68266666666666 188.4,111.83807917942276 206.832,102.62207917942277" fill="#9d6ff3" stroke-width="0.8" stroke="#010409"></polygon><polygon points="206.832,102.62207917942277 188.4,111.83807917942276 188.4,112.1793513881257 206.832,102.9633513881257" fill="#7f8892" stroke-width="0.8" stroke="#010409"></polygon><polygon points="206.832,102.9633513881257 188.4,112.1793513881257 188.4,112.416 206.832,103.2" fill="#7dd445" stroke-width="0.8" stroke="#010409"></polygon><rect width="56" height="13" rx="6" ry="6" fill="#161b22" stroke-width="0.8" stroke="#a97bff" x="160.4" y="39.250666666666675"></rect><text font-size="7" font-family="monospace" fill="#e6edf3" text-anchor="middle" x="180.671484375" y="47.732600260416675"><tspan dy="0" x="180.671484375">Ai-copilot</tspan></text><polygon points="130.8,60.317333333333345 149.23200000000003,69.53333333333333 130.8,78.74933333333334 112.36800000000001,69.53333333333333" fill="#555555" stroke-width="1.2" stroke="#010409"></polygon><polygon points="112.36800000000001,69.53333333333333 130.8,78.74933333333334 130.8,111.2793948108784 112.36800000000001,102.0633948108784" fill="#373737" stroke-width="0.8" stroke="#010409"></polygon><polygon points="112.36800000000001,102.0633948108784 130.8,111.2793948108784 130.8,112.416 112.36800000000001,103.2" fill="#245a00" stroke-width="0.8" stroke="#010409"></polygon><polygon points="149.23200000000003,69.53333333333333 130.8,78.74933333333334 130.8,111.2793948108784 149.23200000000003,102.0633948108784" fill="#494949" stroke-width="0.8" stroke="#010409"></polygon><polygon points="149.23200000000003,102.0633948108784 130.8,111.2793948108784 130.8,112.416 149.23200000000003,103.2" fill="#366c0d" stroke-width="0.8" stroke="#010409"></polygon><rect width="42.199999999999996" height="13" rx="6" ry="6" fill="#161b22" stroke-width="0.8" stroke="#555555" x="109.70000000000002" y="37.317333333333345"></rect><text font-size="7" font-family="monospace" fill="#e6edf3" text-anchor="middle" x="128.50346679687502" y="45.799266927083345"><tspan dy="0" x="128.50346679687502">Ram_tes</tspan></text><polygon points="73.20000000000002,40.98400000000001 91.632,50.2 73.20000000000002,59.416 54.768000000000015,50.2" fill="#555555" stroke-width="1.2" stroke="#010409"></polygon><polygon points="54.768000000000015,50.2 73.20000000000002,59.416 73.20000000000002,109.81490939597316 54.768000000000015,100.59890939597315" fill="#373737" stroke-width="0.8" stroke="#010409"></polygon><polygon points="54.768000000000015,100.59890939597315 73.20000000000002,109.81490939597316 73.20000000000002,112.416 54.768000000000015,103.2" fill="#245a00" stroke-width="0.8" stroke="#010409"></polygon><polygon points="91.632,50.2 73.20000000000002,59.416 73.20000000000002,109.81490939597316 91.632,100.59890939597315" fill="#494949" stroke-width="0.8" stroke="#010409"></polygon><polygon points="91.632,100.59890939597315 73.20000000000002,109.81490939597316 73.20000000000002,112.416 91.632,103.2" fill="#366c0d" stroke-width="0.8" stroke="#010409"></polygon><rect width="65.19999999999999" height="13" rx="6" ry="6" fill="#161b22" stroke-width="0.8" stroke="#555555" x="40.60000000000002" y="17.98400000000001"></rect><text font-size="7" font-family="monospace" fill="#e6edf3" text-anchor="middle" x="66.11293945312502" y="26.46593359375001"><tspan dy="0" x="66.11293945312502">Kernel-test…</tspan></text><polygon points="217.20000000000002,76.65066666666668 235.632,85.86666666666666 217.20000000000002,95.08266666666667 198.76800000000003,85.86666666666666" fill="#a97bff" stroke-width="1.2" stroke="#010409"></polygon><polygon points="198.76800000000003,85.86666666666666 217.20000000000002,95.08266666666667 217.20000000000002,119.91357870001346 198.76800000000003,110.69757870001345" fill="#8b5de1" stroke-width="0.8" stroke="#010409"></polygon><polygon points="198.76800000000003,110.69757870001345 217.20000000000002,119.91357870001346 217.20000000000002,126.816 198.76800000000003,117.6" fill="#925400" stroke-width="0.8" stroke="#010409"></polygon><polygon points="235.632,85.86666666666666 217.20000000000002,95.08266666666667 217.20000000000002,119.91357870001346 235.632,110.69757870001345" fill="#9d6ff3" stroke-width="0.8" stroke="#010409"></polygon><polygon points="235.632,110.69757870001345 217.20000000000002,119.91357870001346 217.20000000000002,126.816 235.632,117.6" fill="#a4660d" stroke-width="0.8" stroke="#010409"></polygon><rect width="33" height="13" rx="6" ry="6" fill="#161b22" stroke-width="0.8" stroke="#a97bff" x="200.70000000000002" y="53.65066666666668"></rect><text font-size="7" font-family="monospace" fill="#e6edf3" text-anchor="middle" x="214.91484375000002" y="62.13260026041668"><tspan dy="0" x="214.91484375000002">Glens</tspan></text><polygon points="159.60000000000002,72.78400000000002 178.032,82 159.6,91.21600000000001 141.168,82" fill="#8b949e" stroke-width="1.2" stroke="#010409"></polygon><polygon points="141.168,82 159.6,91.21600000000001 159.6,126.816 141.168,117.6" fill="#6d7680" stroke-width="0.8" stroke="#010409"></polygon><polygon points="178.032,82 159.6,91.21600000000001 159.6,126.816 178.032,117.6" fill="#7f8892" stroke-width="0.8" stroke="#010409"></polygon><rect width="65.19999999999999" height="13" rx="6" ry="6" fill="#161b22" stroke-width="0.8" stroke="#8b949e" x="127.00000000000003" y="49.78400000000002"></rect><text font-size="7" font-family="monospace" fill="#e6edf3" text-anchor="middle" x="152.68041992187503" y="58.26593359375002"><tspan dy="0" x="152.68041992187503">Git-Compiler</tspan></text><polygon points="102,47.65066666666668 120.432,56.86666666666666 102.00000000000001,66.08266666666667 83.56800000000001,56.86666666666666" fill="#89e051" stroke-width="1.2" stroke="#010409"></polygon><polygon points="83.56800000000001,56.86666666666666 102.00000000000001,66.08266666666667 102.00000000000001,114.29680969378171 83.56800000000001,105.0808096937817" fill="#6bc233" stroke-width="0.8" stroke="#010409"></polygon><polygon points="83.56800000000001,105.0808096937817 102.00000000000001,114.29680969378171 102.00000000000001,120.39809656208905 83.56800000000001,111.18209656208904" fill="#373737" stroke-width="0.8" stroke="#010409"></polygon><polygon points="83.56800000000001,111.18209656208904 102.00000000000001,120.39809656208905 102.00000000000001,125.68359659339973 83.56800000000001,116.46759659339972" fill="#c08766" stroke-width="0.8" stroke="#010409"></polygon><polygon points="83.56800000000001,116.46759659339972 102.00000000000001,125.68359659339973 102.00000000000001,126.816 83.56800000000001,117.6" fill="#245a00" stroke-width="0.8" stroke="#010409"></polygon><polygon points="120.432,56.86666666666666 102.00000000000001,66.08266666666667 102.00000000000001,114.29680969378171 120.432,105.0808096937817" fill="#7dd445" stroke-width="0.8" stroke="#010409"></polygon><polygon points="120.432,105.0808096937817 102.00000000000001,114.29680969378171 102.00000000000001,120.39809656208905 120.432,111.18209656208904" fill="#494949" stroke-width="0.8" stroke="#010409"></polygon><polygon points="120.432,111.18209656208904 102.00000000000001,120.39809656208905 102.00000000000001,125.68359659339973 120.432,116.46759659339972" fill="#d29978" stroke-width="0.8" stroke="#010409"></polygon><polygon points="120.432,116.46759659339972 102.00000000000001,125.68359659339973 102.00000000000001,126.816 120.432,117.6" fill="#366c0d" stroke-width="0.8" stroke="#010409"></polygon><rect width="33" height="13" rx="6" ry="6" fill="#161b22" stroke-width="0.8" stroke="#89e051" x="85.5" y="24.65066666666668"></rect><text font-size="7" font-family="monospace" fill="#e6edf3" text-anchor="middle" x="99.477294921875" y="33.13260026041668"><tspan dy="0" x="99.477294921875">my-ai</tspan></text><polygon points="188.4,91.05066666666667 206.832,100.26666666666667 188.4,109.48266666666667 169.96800000000002,100.26666666666667" fill="#8b949e" stroke-width="1.2" stroke="#010409"></polygon><polygon points="169.96800000000002,100.26666666666667 188.4,109.48266666666667 188.4,141.216 169.96800000000002,132" fill="#6d7680" stroke-width="0.8" stroke="#010409"></polygon><polygon points="206.832,100.26666666666667 188.4,109.48266666666667 188.4,141.216 206.832,132" fill="#7f8892" stroke-width="0.8" stroke="#010409"></polygon><rect width="60.599999999999994" height="13" rx="6" ry="6" fill="#161b22" stroke-width="0.8" stroke="#8b949e" x="158.10000000000002" y="68.05066666666667"></rect><text font-size="7" font-family="monospace" fill="#e6edf3" text-anchor="middle" x="183.08657226562502" y="76.53260026041667"><tspan dy="0" x="183.08657226562502">Lwgjl-arm64</tspan></text><rect width="170" height="111" rx="8" ry="8" fill="#161b22" stroke-width="1" stroke="#30363d" x="16" y="203.8"></rect><text font-size="11" font-family="monospace" fill="#39d353" text-anchor="start" x="24" y="220.55732421875"><tspan dy="0" x="24">Top Commits</tspan></text><text font-size="9" font-family="monospace" fill="#c9d1d9" text-anchor="start" x="24" y="235.41962890625"><tspan dy="0" x="24">1. Genta-ta</tspan></text><text font-size="9" font-family="monospace" fill="#58a6ff" text-anchor="end" x="188.2919921875" y="235.41962890625"><tspan dy="0" x="188.2919921875">60</tspan></text><text font-size="9" font-family="monospace" fill="#c9d1d9" text-anchor="start" x="24" y="252.41962890625"><tspan dy="0" x="24">2. my-ai</tspan></text><text font-size="9" font-family="monospace" fill="#58a6ff" text-anchor="end" x="188.2919921875" y="252.41962890625"><tspan dy="0" x="188.2919921875">19</tspan></text><text font-size="9" font-family="monospace" fill="#c9d1d9" text-anchor="start" x="24" y="269.41962890625"><tspan dy="0" x="24">3. Kernel-tester</tspan></text><text font-size="9" font-family="monospace" fill="#58a6ff" text-anchor="end" x="188.2919921875" y="269.41962890625"><tspan dy="0" x="188.2919921875">15</tspan></text><text font-size="9" font-family="monospace" fill="#c9d1d9" text-anchor="start" x="24" y="286.41962890625"><tspan dy="0" x="24">4. Git-Compiler</tspan></text><text font-size="9" font-family="monospace" fill="#58a6ff" text-anchor="end" x="183.14599609375" y="286.41962890625"><tspan dy="0" x="183.14599609375">6</tspan></text><text font-size="9" font-family="monospace" fill="#c9d1d9" text-anchor="start" x="24" y="303.41962890625"><tspan dy="0" x="24">5. Server</tspan></text><text font-size="9" font-family="monospace" fill="#58a6ff" text-anchor="end" x="183.14599609375" y="303.41962890625"><tspan dy="0" x="183.14599609375">5</tspan></text><rect width="9" height="9" rx="2" ry="2" fill="#f1e05a" x="14" y="14"></rect><text font-size="9" font-family="monospace" fill="#c9d1d9" text-anchor="start" x="27" y="22.61962890625"><tspan dy="0" x="27">JavaScript</tspan></text><rect width="9" height="9" rx="2" ry="2" fill="#a97bff" x="14" y="30"></rect><text font-size="9" font-family="monospace" fill="#c9d1d9" text-anchor="start" x="27" y="38.61962890625"><tspan dy="0" x="27">Kotlin</tspan></text><rect width="9" height="9" rx="2" ry="2" fill="#8b949e" x="14" y="46"></rect><text font-size="9" font-family="monospace" fill="#c9d1d9" text-anchor="start" x="27" y="54.61962890625"><tspan dy="0" x="27">Batchfile</tspan></text><rect width="9" height="9" rx="2" ry="2" fill="#89e051" x="14" y="62"></rect><text font-size="9" font-family="monospace" fill="#c9d1d9" text-anchor="start" x="27" y="70.61962890625"><tspan dy="0" x="27">Shell</tspan></text><rect width="9" height="9" rx="2" ry="2" fill="#3572a5" x="14" y="78"></rect><text font-size="9" font-family="monospace" fill="#c9d1d9" text-anchor="start" x="27" y="86.61962890625"><tspan dy="0" x="27">Python</tspan></text><rect width="9" height="9" rx="2" ry="2" fill="#555555" x="247.60000000000002" y="14"></rect><text font-size="9" font-family="monospace" fill="#c9d1d9" text-anchor="end" x="247.27773437500002" y="22.61962890625"><tspan dy="0" x="247.27773437500002">C</tspan></text><rect width="9" height="9" rx="2" ry="2" fill="#427819" x="247.60000000000002" y="30"></rect><text font-size="9" font-family="monospace" fill="#c9d1d9" text-anchor="end" x="277.15615234375" y="38.61962890625"><tspan dy="0" x="277.15615234375">Makefile</tspan></text><rect width="9" height="9" rx="2" ry="2" fill="#b07219" x="247.60000000000002" y="46"></rect><text font-size="9" font-family="monospace" fill="#c9d1d9" text-anchor="end" x="258.52333984375" y="54.61962890625"><tspan dy="0" x="258.52333984375">Java</tspan></text><rect width="9" height="9" rx="2" ry="2" fill="#dea584" x="247.60000000000002" y="62"></rect><text font-size="9" font-family="monospace" fill="#c9d1d9" text-anchor="end" x="260.15810546875" y="70.61962890625"><tspan dy="0" x="260.15810546875">Rust</tspan></text></svg>